G04 #@! TF.GenerationSoftware,KiCad,Pcbnew,(5.1.4)-1*
G04 #@! TF.CreationDate,2019-11-15T07:05:28+03:00*
G04 #@! TF.ProjectId,ApogeeRom,41706f67-6565-4526-9f6d-2e6b69636164,rev?*
G04 #@! TF.SameCoordinates,Original*
G04 #@! TF.FileFunction,Copper,L1,Top*
G04 #@! TF.FilePolarity,Positive*
%FSLAX46Y46*%
G04 Gerber Fmt 4.6, Leading zero omitted, Abs format (unit mm)*
G04 Created by KiCad (PCBNEW (5.1.4)-1) date 2019-11-15 07:05:28*
%MOMM*%
%LPD*%
G04 APERTURE LIST*
%ADD10C,1.600000*%
%ADD11R,2.540000X6.350000*%
%ADD12O,1.600000X1.600000*%
%ADD13R,1.600000X1.600000*%
%ADD14O,1.600000X2.400000*%
%ADD15R,1.600000X2.400000*%
%ADD16C,0.800000*%
%ADD17C,0.250000*%
%ADD18C,0.254000*%
G04 APERTURE END LIST*
D10*
X156765000Y-74930000D03*
X151765000Y-74930000D03*
D11*
X104648000Y-66548000D03*
X108204000Y-66548000D03*
X111760000Y-66548000D03*
X115316000Y-66548000D03*
X118872000Y-66548000D03*
X122428000Y-66548000D03*
X125984000Y-66548000D03*
X129540000Y-66548000D03*
X133096000Y-66548000D03*
X136652000Y-66548000D03*
X140208000Y-66548000D03*
X143764000Y-66548000D03*
X147320000Y-66548000D03*
X150876000Y-66548000D03*
X154432000Y-66548000D03*
X157988000Y-66548000D03*
D12*
X157480000Y-80010000D03*
X149860000Y-97790000D03*
X157480000Y-82550000D03*
X149860000Y-95250000D03*
X157480000Y-85090000D03*
X149860000Y-92710000D03*
X157480000Y-87630000D03*
X149860000Y-90170000D03*
X157480000Y-90170000D03*
X149860000Y-87630000D03*
X157480000Y-92710000D03*
X149860000Y-85090000D03*
X157480000Y-95250000D03*
X149860000Y-82550000D03*
X157480000Y-97790000D03*
D13*
X149860000Y-80010000D03*
D14*
X143510000Y-97790000D03*
X105410000Y-82550000D03*
X140970000Y-97790000D03*
X107950000Y-82550000D03*
X138430000Y-97790000D03*
X110490000Y-82550000D03*
X135890000Y-97790000D03*
X113030000Y-82550000D03*
X133350000Y-97790000D03*
X115570000Y-82550000D03*
X130810000Y-97790000D03*
X118110000Y-82550000D03*
X128270000Y-97790000D03*
X120650000Y-82550000D03*
X125730000Y-97790000D03*
X123190000Y-82550000D03*
X123190000Y-97790000D03*
X125730000Y-82550000D03*
X120650000Y-97790000D03*
X128270000Y-82550000D03*
X118110000Y-97790000D03*
X130810000Y-82550000D03*
X115570000Y-97790000D03*
X133350000Y-82550000D03*
X113030000Y-97790000D03*
X135890000Y-82550000D03*
X110490000Y-97790000D03*
X138430000Y-82550000D03*
X107950000Y-97790000D03*
X140970000Y-82550000D03*
X105410000Y-97790000D03*
D15*
X143510000Y-82550000D03*
D16*
X127000000Y-77470000D03*
X127000000Y-73025000D03*
X154940000Y-93345000D03*
X145415000Y-86995000D03*
X120650000Y-78740000D03*
X140335000Y-76200000D03*
X145415000Y-76200000D03*
X142240000Y-87630000D03*
X120650000Y-89535000D03*
X139700000Y-92075000D03*
X145415000Y-92075000D03*
X134620000Y-78740000D03*
X108902500Y-73342500D03*
X118110000Y-74295000D03*
X153035000Y-93345000D03*
X132080000Y-74930000D03*
X125730000Y-79375000D03*
X129540000Y-77470000D03*
X132080000Y-76200000D03*
X134620000Y-89535000D03*
X128270000Y-77470000D03*
X122555000Y-74930000D03*
D17*
X143510000Y-82550000D02*
X143510000Y-82150000D01*
X105410000Y-97790000D02*
X105410000Y-95250000D01*
X105410000Y-95250000D02*
X103632000Y-93472000D01*
X103632000Y-93472000D02*
X103632000Y-71628000D01*
X104648000Y-70612000D02*
X104648000Y-66548000D01*
X103632000Y-71628000D02*
X104648000Y-70612000D01*
X108204000Y-72644000D02*
X108204000Y-66548000D01*
X113030000Y-97790000D02*
X113030000Y-97390000D01*
X127000000Y-76200000D02*
X127000000Y-73660000D01*
X155575000Y-90805000D02*
X157480000Y-92710000D01*
X155575000Y-77470000D02*
X155575000Y-90805000D01*
X156210000Y-96520000D02*
X157480000Y-97790000D01*
X156210000Y-93345000D02*
X156210000Y-96520000D01*
X154305000Y-91440000D02*
X156210000Y-93345000D01*
X154305000Y-79871370D02*
X154305000Y-91440000D01*
X151765000Y-76200000D02*
X151765000Y-77331370D01*
X151765000Y-77331370D02*
X154305000Y-79871370D01*
X133350000Y-97390000D02*
X131845000Y-95885000D01*
X133350000Y-97790000D02*
X133350000Y-97390000D01*
X131845000Y-95885000D02*
X121285000Y-95885000D01*
X121285000Y-95885000D02*
X119380000Y-93980000D01*
X123190000Y-84000000D02*
X124280000Y-85090000D01*
X123190000Y-82550000D02*
X123190000Y-84000000D01*
X124280000Y-85090000D02*
X144780000Y-85090000D01*
X144780000Y-85090000D02*
X147320000Y-82550000D01*
X120650000Y-78740000D02*
X122555000Y-80645000D01*
X135890000Y-80645000D02*
X140335000Y-76200000D01*
X122555000Y-80645000D02*
X135890000Y-80645000D01*
X140335000Y-76200000D02*
X145415000Y-76200000D01*
X145415000Y-86995000D02*
X146050000Y-86995000D01*
X146050000Y-86995000D02*
X147955000Y-88900000D01*
X147955000Y-88900000D02*
X150495000Y-88900000D01*
X141674315Y-87630000D02*
X142240000Y-87630000D01*
X124280000Y-87630000D02*
X141674315Y-87630000D01*
X120650000Y-84000000D02*
X124280000Y-87630000D01*
X120650000Y-82550000D02*
X120650000Y-84000000D01*
X139700000Y-92075000D02*
X145415000Y-92075000D01*
X108902500Y-73342500D02*
X108204000Y-72644000D01*
X107950000Y-97790000D02*
X107950000Y-86360000D01*
X107950000Y-86360000D02*
X109220000Y-85090000D01*
X109220000Y-85090000D02*
X109220000Y-76200000D01*
X111760000Y-73660000D02*
X111760000Y-66548000D01*
X109220000Y-76200000D02*
X111760000Y-73660000D01*
X113030000Y-97390000D02*
X111760000Y-96120000D01*
X111760000Y-75057000D02*
X115316000Y-71501000D01*
X111760000Y-96120000D02*
X111760000Y-75057000D01*
X115316000Y-71501000D02*
X115316000Y-66548000D01*
X118872000Y-66548000D02*
X118872000Y-68453000D01*
X153035000Y-102235000D02*
X157480000Y-97790000D01*
X115570000Y-102235000D02*
X153035000Y-102235000D01*
X114300000Y-100965000D02*
X115570000Y-102235000D01*
X114300000Y-74930000D02*
X114300000Y-100965000D01*
X118872000Y-70358000D02*
X114300000Y-74930000D01*
X118872000Y-66548000D02*
X118872000Y-70358000D01*
X118110000Y-78740000D02*
X118110000Y-79610000D01*
X118110000Y-74295000D02*
X118110000Y-78740000D01*
X118110000Y-79610000D02*
X116840000Y-80880000D01*
X116840000Y-80880000D02*
X116840000Y-99695000D01*
X116840000Y-99695000D02*
X118110000Y-100965000D01*
X134165000Y-100965000D02*
X132715000Y-100965000D01*
X135890000Y-99240000D02*
X134165000Y-100965000D01*
X135890000Y-97790000D02*
X135890000Y-99240000D01*
X118110000Y-100965000D02*
X132715000Y-100965000D01*
X132715000Y-100965000D02*
X133350000Y-100965000D01*
X134620000Y-78740000D02*
X133985000Y-78740000D01*
X132715000Y-80010000D02*
X123825000Y-80010000D01*
X133985000Y-78740000D02*
X132715000Y-80010000D01*
X123825000Y-80010000D02*
X122555000Y-78740000D01*
X122555000Y-78740000D02*
X122555000Y-74930000D01*
X136652000Y-71628000D02*
X136652000Y-66548000D01*
X127000000Y-71755000D02*
X126365000Y-71755000D01*
X125984000Y-71374000D02*
X125984000Y-66548000D01*
X126365000Y-71755000D02*
X125984000Y-71374000D01*
X140208000Y-73787000D02*
X140208000Y-66548000D01*
X136525000Y-77470000D02*
X140208000Y-73787000D01*
X133985000Y-77470000D02*
X136525000Y-77470000D01*
X132715000Y-78740000D02*
X133985000Y-77470000D01*
X132715000Y-77470000D02*
X129540000Y-77470000D01*
X135572500Y-76517500D02*
X133667500Y-76517500D01*
X136652000Y-75438000D02*
X135572500Y-76517500D01*
X136652000Y-66548000D02*
X136652000Y-75438000D01*
X129540000Y-73025000D02*
X129540000Y-66548000D01*
X150495000Y-88900000D02*
X154940000Y-93345000D01*
X143510000Y-87630000D02*
X147790001Y-91910001D01*
X142240000Y-87630000D02*
X143510000Y-87630000D01*
X147790001Y-91910001D02*
X149060001Y-91910001D01*
X149060001Y-91910001D02*
X149860000Y-92710000D01*
X157988000Y-73707000D02*
X156765000Y-74930000D01*
X157988000Y-66548000D02*
X157988000Y-73707000D01*
X151765000Y-76200000D02*
X151765000Y-74930000D01*
X155575000Y-77470000D02*
X155575000Y-76200000D01*
X147320000Y-74295000D02*
X147320000Y-73529000D01*
X147320000Y-82550000D02*
X147320000Y-74295000D01*
X143764000Y-66548000D02*
X143764000Y-69973000D01*
X143764000Y-69973000D02*
X143764000Y-70739000D01*
X143764000Y-70739000D02*
X146050000Y-73025000D01*
X146050000Y-73025000D02*
X150999000Y-73025000D01*
X147320000Y-74295000D02*
X147320000Y-73025000D01*
X146050000Y-73025000D02*
X152400000Y-73025000D01*
X155575000Y-76200000D02*
X152400000Y-73025000D01*
X137160000Y-92075000D02*
X134620000Y-89535000D01*
X139065000Y-93980000D02*
X137160000Y-92075000D01*
X153035000Y-93345000D02*
X152400000Y-93980000D01*
X152400000Y-93980000D02*
X139065000Y-93980000D01*
X134620000Y-89535000D02*
X120650000Y-89535000D01*
X133096000Y-66548000D02*
X133096000Y-73279000D01*
X122428000Y-70612000D02*
X122428000Y-66548000D01*
X120015000Y-73025000D02*
X122428000Y-70612000D01*
X120015000Y-76835000D02*
X119380000Y-77470000D01*
X120015000Y-73025000D02*
X120015000Y-76835000D01*
X119380000Y-93980000D02*
X119380000Y-77470000D01*
X128270000Y-73025000D02*
X127635000Y-72390000D01*
X128270000Y-76835000D02*
X128270000Y-73025000D01*
X127635000Y-72390000D02*
X127000000Y-71755000D01*
X122555000Y-74930000D02*
X122555000Y-74930000D01*
X128270000Y-73025000D02*
X128270000Y-77470000D01*
X127000000Y-73025000D02*
X127000000Y-77470000D01*
X133096000Y-73914000D02*
X132080000Y-74930000D01*
X133096000Y-66548000D02*
X133096000Y-73914000D01*
X129540000Y-66548000D02*
X129540000Y-75565000D01*
X130175000Y-76200000D02*
X132080000Y-76200000D01*
X129540000Y-75565000D02*
X130175000Y-76200000D01*
X133667500Y-76517500D02*
X132715000Y-77470000D01*
X126365000Y-78740000D02*
X125730000Y-79375000D01*
X126365000Y-78740000D02*
X132715000Y-78740000D01*
D18*
G36*
X159360001Y-103480000D02*
G01*
X103276000Y-103480000D01*
X103276000Y-94190801D01*
X104650001Y-95564803D01*
X104650001Y-96169099D01*
X104608900Y-96191068D01*
X104390393Y-96370392D01*
X104211068Y-96588899D01*
X104077818Y-96838192D01*
X103995764Y-97108691D01*
X103975000Y-97319508D01*
X103975000Y-98260491D01*
X103995764Y-98471308D01*
X104077818Y-98741807D01*
X104211068Y-98991100D01*
X104390392Y-99209607D01*
X104608899Y-99388932D01*
X104858192Y-99522182D01*
X105128691Y-99604236D01*
X105410000Y-99631943D01*
X105691308Y-99604236D01*
X105961807Y-99522182D01*
X106211100Y-99388932D01*
X106429607Y-99209608D01*
X106608932Y-98991101D01*
X106680000Y-98858142D01*
X106751068Y-98991100D01*
X106930392Y-99209607D01*
X107148899Y-99388932D01*
X107398192Y-99522182D01*
X107668691Y-99604236D01*
X107950000Y-99631943D01*
X108231308Y-99604236D01*
X108501807Y-99522182D01*
X108751100Y-99388932D01*
X108969607Y-99209608D01*
X109148932Y-98991101D01*
X109220000Y-98858142D01*
X109291068Y-98991100D01*
X109470392Y-99209607D01*
X109688899Y-99388932D01*
X109938192Y-99522182D01*
X110208691Y-99604236D01*
X110490000Y-99631943D01*
X110771308Y-99604236D01*
X111041807Y-99522182D01*
X111291100Y-99388932D01*
X111509607Y-99209608D01*
X111688932Y-98991101D01*
X111760000Y-98858142D01*
X111831068Y-98991100D01*
X112010392Y-99209607D01*
X112228899Y-99388932D01*
X112478192Y-99522182D01*
X112748691Y-99604236D01*
X113030000Y-99631943D01*
X113311308Y-99604236D01*
X113540001Y-99534864D01*
X113540001Y-100927667D01*
X113536324Y-100965000D01*
X113550998Y-101113985D01*
X113594454Y-101257246D01*
X113665026Y-101389276D01*
X113735379Y-101475000D01*
X113760000Y-101505001D01*
X113788998Y-101528799D01*
X115006201Y-102746003D01*
X115029999Y-102775001D01*
X115145724Y-102869974D01*
X115277753Y-102940546D01*
X115421014Y-102984003D01*
X115532667Y-102995000D01*
X115532676Y-102995000D01*
X115569999Y-102998676D01*
X115607322Y-102995000D01*
X152997678Y-102995000D01*
X153035000Y-102998676D01*
X153072322Y-102995000D01*
X153072333Y-102995000D01*
X153183986Y-102984003D01*
X153327247Y-102940546D01*
X153459276Y-102869974D01*
X153575001Y-102775001D01*
X153598804Y-102745997D01*
X157154094Y-99190708D01*
X157198691Y-99204236D01*
X157409508Y-99225000D01*
X157550492Y-99225000D01*
X157761309Y-99204236D01*
X158031808Y-99122182D01*
X158281101Y-98988932D01*
X158499608Y-98809608D01*
X158678932Y-98591101D01*
X158812182Y-98341808D01*
X158894236Y-98071309D01*
X158921943Y-97790000D01*
X158894236Y-97508691D01*
X158812182Y-97238192D01*
X158678932Y-96988899D01*
X158499608Y-96770392D01*
X158281101Y-96591068D01*
X158148142Y-96520000D01*
X158281101Y-96448932D01*
X158499608Y-96269608D01*
X158678932Y-96051101D01*
X158812182Y-95801808D01*
X158894236Y-95531309D01*
X158921943Y-95250000D01*
X158894236Y-94968691D01*
X158812182Y-94698192D01*
X158678932Y-94448899D01*
X158499608Y-94230392D01*
X158281101Y-94051068D01*
X158148142Y-93980000D01*
X158281101Y-93908932D01*
X158499608Y-93729608D01*
X158678932Y-93511101D01*
X158812182Y-93261808D01*
X158894236Y-92991309D01*
X158921943Y-92710000D01*
X158894236Y-92428691D01*
X158812182Y-92158192D01*
X158678932Y-91908899D01*
X158499608Y-91690392D01*
X158281101Y-91511068D01*
X158148142Y-91440000D01*
X158281101Y-91368932D01*
X158499608Y-91189608D01*
X158678932Y-90971101D01*
X158812182Y-90721808D01*
X158894236Y-90451309D01*
X158921943Y-90170000D01*
X158894236Y-89888691D01*
X158812182Y-89618192D01*
X158678932Y-89368899D01*
X158499608Y-89150392D01*
X158281101Y-88971068D01*
X158148142Y-88900000D01*
X158281101Y-88828932D01*
X158499608Y-88649608D01*
X158678932Y-88431101D01*
X158812182Y-88181808D01*
X158894236Y-87911309D01*
X158921943Y-87630000D01*
X158894236Y-87348691D01*
X158812182Y-87078192D01*
X158678932Y-86828899D01*
X158499608Y-86610392D01*
X158281101Y-86431068D01*
X158148142Y-86360000D01*
X158281101Y-86288932D01*
X158499608Y-86109608D01*
X158678932Y-85891101D01*
X158812182Y-85641808D01*
X158894236Y-85371309D01*
X158921943Y-85090000D01*
X158894236Y-84808691D01*
X158812182Y-84538192D01*
X158678932Y-84288899D01*
X158499608Y-84070392D01*
X158281101Y-83891068D01*
X158148142Y-83820000D01*
X158281101Y-83748932D01*
X158499608Y-83569608D01*
X158678932Y-83351101D01*
X158812182Y-83101808D01*
X158894236Y-82831309D01*
X158921943Y-82550000D01*
X158894236Y-82268691D01*
X158812182Y-81998192D01*
X158678932Y-81748899D01*
X158499608Y-81530392D01*
X158281101Y-81351068D01*
X158148142Y-81280000D01*
X158281101Y-81208932D01*
X158499608Y-81029608D01*
X158678932Y-80811101D01*
X158812182Y-80561808D01*
X158894236Y-80291309D01*
X158921943Y-80010000D01*
X158894236Y-79728691D01*
X158812182Y-79458192D01*
X158678932Y-79208899D01*
X158499608Y-78990392D01*
X158281101Y-78811068D01*
X158031808Y-78677818D01*
X157761309Y-78595764D01*
X157550492Y-78575000D01*
X157409508Y-78575000D01*
X157198691Y-78595764D01*
X156928192Y-78677818D01*
X156678899Y-78811068D01*
X156460392Y-78990392D01*
X156335000Y-79143183D01*
X156335000Y-76305120D01*
X156346426Y-76309853D01*
X156623665Y-76365000D01*
X156906335Y-76365000D01*
X157183574Y-76309853D01*
X157444727Y-76201680D01*
X157679759Y-76044637D01*
X157879637Y-75844759D01*
X158036680Y-75609727D01*
X158144853Y-75348574D01*
X158200000Y-75071335D01*
X158200000Y-74788665D01*
X158163688Y-74606114D01*
X158499003Y-74270799D01*
X158528001Y-74247001D01*
X158622974Y-74131276D01*
X158693546Y-73999247D01*
X158737003Y-73855986D01*
X158748000Y-73744333D01*
X158748000Y-73744324D01*
X158751676Y-73707001D01*
X158748000Y-73669678D01*
X158748000Y-70612000D01*
X159360000Y-70612000D01*
X159360001Y-103480000D01*
X159360001Y-103480000D01*
G37*
X159360001Y-103480000D02*
X103276000Y-103480000D01*
X103276000Y-94190801D01*
X104650001Y-95564803D01*
X104650001Y-96169099D01*
X104608900Y-96191068D01*
X104390393Y-96370392D01*
X104211068Y-96588899D01*
X104077818Y-96838192D01*
X103995764Y-97108691D01*
X103975000Y-97319508D01*
X103975000Y-98260491D01*
X103995764Y-98471308D01*
X104077818Y-98741807D01*
X104211068Y-98991100D01*
X104390392Y-99209607D01*
X104608899Y-99388932D01*
X104858192Y-99522182D01*
X105128691Y-99604236D01*
X105410000Y-99631943D01*
X105691308Y-99604236D01*
X105961807Y-99522182D01*
X106211100Y-99388932D01*
X106429607Y-99209608D01*
X106608932Y-98991101D01*
X106680000Y-98858142D01*
X106751068Y-98991100D01*
X106930392Y-99209607D01*
X107148899Y-99388932D01*
X107398192Y-99522182D01*
X107668691Y-99604236D01*
X107950000Y-99631943D01*
X108231308Y-99604236D01*
X108501807Y-99522182D01*
X108751100Y-99388932D01*
X108969607Y-99209608D01*
X109148932Y-98991101D01*
X109220000Y-98858142D01*
X109291068Y-98991100D01*
X109470392Y-99209607D01*
X109688899Y-99388932D01*
X109938192Y-99522182D01*
X110208691Y-99604236D01*
X110490000Y-99631943D01*
X110771308Y-99604236D01*
X111041807Y-99522182D01*
X111291100Y-99388932D01*
X111509607Y-99209608D01*
X111688932Y-98991101D01*
X111760000Y-98858142D01*
X111831068Y-98991100D01*
X112010392Y-99209607D01*
X112228899Y-99388932D01*
X112478192Y-99522182D01*
X112748691Y-99604236D01*
X113030000Y-99631943D01*
X113311308Y-99604236D01*
X113540001Y-99534864D01*
X113540001Y-100927667D01*
X113536324Y-100965000D01*
X113550998Y-101113985D01*
X113594454Y-101257246D01*
X113665026Y-101389276D01*
X113735379Y-101475000D01*
X113760000Y-101505001D01*
X113788998Y-101528799D01*
X115006201Y-102746003D01*
X115029999Y-102775001D01*
X115145724Y-102869974D01*
X115277753Y-102940546D01*
X115421014Y-102984003D01*
X115532667Y-102995000D01*
X115532676Y-102995000D01*
X115569999Y-102998676D01*
X115607322Y-102995000D01*
X152997678Y-102995000D01*
X153035000Y-102998676D01*
X153072322Y-102995000D01*
X153072333Y-102995000D01*
X153183986Y-102984003D01*
X153327247Y-102940546D01*
X153459276Y-102869974D01*
X153575001Y-102775001D01*
X153598804Y-102745997D01*
X157154094Y-99190708D01*
X157198691Y-99204236D01*
X157409508Y-99225000D01*
X157550492Y-99225000D01*
X157761309Y-99204236D01*
X158031808Y-99122182D01*
X158281101Y-98988932D01*
X158499608Y-98809608D01*
X158678932Y-98591101D01*
X158812182Y-98341808D01*
X158894236Y-98071309D01*
X158921943Y-97790000D01*
X158894236Y-97508691D01*
X158812182Y-97238192D01*
X158678932Y-96988899D01*
X158499608Y-96770392D01*
X158281101Y-96591068D01*
X158148142Y-96520000D01*
X158281101Y-96448932D01*
X158499608Y-96269608D01*
X158678932Y-96051101D01*
X158812182Y-95801808D01*
X158894236Y-95531309D01*
X158921943Y-95250000D01*
X158894236Y-94968691D01*
X158812182Y-94698192D01*
X158678932Y-94448899D01*
X158499608Y-94230392D01*
X158281101Y-94051068D01*
X158148142Y-93980000D01*
X158281101Y-93908932D01*
X158499608Y-93729608D01*
X158678932Y-93511101D01*
X158812182Y-93261808D01*
X158894236Y-92991309D01*
X158921943Y-92710000D01*
X158894236Y-92428691D01*
X158812182Y-92158192D01*
X158678932Y-91908899D01*
X158499608Y-91690392D01*
X158281101Y-91511068D01*
X158148142Y-91440000D01*
X158281101Y-91368932D01*
X158499608Y-91189608D01*
X158678932Y-90971101D01*
X158812182Y-90721808D01*
X158894236Y-90451309D01*
X158921943Y-90170000D01*
X158894236Y-89888691D01*
X158812182Y-89618192D01*
X158678932Y-89368899D01*
X158499608Y-89150392D01*
X158281101Y-88971068D01*
X158148142Y-88900000D01*
X158281101Y-88828932D01*
X158499608Y-88649608D01*
X158678932Y-88431101D01*
X158812182Y-88181808D01*
X158894236Y-87911309D01*
X158921943Y-87630000D01*
X158894236Y-87348691D01*
X158812182Y-87078192D01*
X158678932Y-86828899D01*
X158499608Y-86610392D01*
X158281101Y-86431068D01*
X158148142Y-86360000D01*
X158281101Y-86288932D01*
X158499608Y-86109608D01*
X158678932Y-85891101D01*
X158812182Y-85641808D01*
X158894236Y-85371309D01*
X158921943Y-85090000D01*
X158894236Y-84808691D01*
X158812182Y-84538192D01*
X158678932Y-84288899D01*
X158499608Y-84070392D01*
X158281101Y-83891068D01*
X158148142Y-83820000D01*
X158281101Y-83748932D01*
X158499608Y-83569608D01*
X158678932Y-83351101D01*
X158812182Y-83101808D01*
X158894236Y-82831309D01*
X158921943Y-82550000D01*
X158894236Y-82268691D01*
X158812182Y-81998192D01*
X158678932Y-81748899D01*
X158499608Y-81530392D01*
X158281101Y-81351068D01*
X158148142Y-81280000D01*
X158281101Y-81208932D01*
X158499608Y-81029608D01*
X158678932Y-80811101D01*
X158812182Y-80561808D01*
X158894236Y-80291309D01*
X158921943Y-80010000D01*
X158894236Y-79728691D01*
X158812182Y-79458192D01*
X158678932Y-79208899D01*
X158499608Y-78990392D01*
X158281101Y-78811068D01*
X158031808Y-78677818D01*
X157761309Y-78595764D01*
X157550492Y-78575000D01*
X157409508Y-78575000D01*
X157198691Y-78595764D01*
X156928192Y-78677818D01*
X156678899Y-78811068D01*
X156460392Y-78990392D01*
X156335000Y-79143183D01*
X156335000Y-76305120D01*
X156346426Y-76309853D01*
X156623665Y-76365000D01*
X156906335Y-76365000D01*
X157183574Y-76309853D01*
X157444727Y-76201680D01*
X157679759Y-76044637D01*
X157879637Y-75844759D01*
X158036680Y-75609727D01*
X158144853Y-75348574D01*
X158200000Y-75071335D01*
X158200000Y-74788665D01*
X158163688Y-74606114D01*
X158499003Y-74270799D01*
X158528001Y-74247001D01*
X158622974Y-74131276D01*
X158693546Y-73999247D01*
X158737003Y-73855986D01*
X158748000Y-73744333D01*
X158748000Y-73744324D01*
X158751676Y-73707001D01*
X158748000Y-73669678D01*
X158748000Y-70612000D01*
X159360000Y-70612000D01*
X159360001Y-103480000D01*
G36*
X116080001Y-99657667D02*
G01*
X116076324Y-99695000D01*
X116090998Y-99843985D01*
X116134454Y-99987246D01*
X116205026Y-100119276D01*
X116272362Y-100201324D01*
X116300000Y-100235001D01*
X116328998Y-100258799D01*
X117545198Y-101475000D01*
X115884802Y-101475000D01*
X115060000Y-100650199D01*
X115060000Y-99534864D01*
X115288691Y-99604236D01*
X115570000Y-99631943D01*
X115851308Y-99604236D01*
X116080001Y-99534864D01*
X116080001Y-99657667D01*
X116080001Y-99657667D01*
G37*
X116080001Y-99657667D02*
X116076324Y-99695000D01*
X116090998Y-99843985D01*
X116134454Y-99987246D01*
X116205026Y-100119276D01*
X116272362Y-100201324D01*
X116300000Y-100235001D01*
X116328998Y-100258799D01*
X117545198Y-101475000D01*
X115884802Y-101475000D01*
X115060000Y-100650199D01*
X115060000Y-99534864D01*
X115288691Y-99604236D01*
X115570000Y-99631943D01*
X115851308Y-99604236D01*
X116080001Y-99534864D01*
X116080001Y-99657667D01*
G36*
X133960226Y-90338937D02*
G01*
X134129744Y-90452205D01*
X134318102Y-90530226D01*
X134518061Y-90570000D01*
X134580199Y-90570000D01*
X136648996Y-92638799D01*
X136649007Y-92638808D01*
X138501200Y-94491002D01*
X138524999Y-94520001D01*
X138640724Y-94614974D01*
X138772753Y-94685546D01*
X138916014Y-94729003D01*
X139027667Y-94740000D01*
X139027677Y-94740000D01*
X139065000Y-94743676D01*
X139102323Y-94740000D01*
X148515136Y-94740000D01*
X148445764Y-94968691D01*
X148418057Y-95250000D01*
X148445764Y-95531309D01*
X148527818Y-95801808D01*
X148661068Y-96051101D01*
X148840392Y-96269608D01*
X149058899Y-96448932D01*
X149191858Y-96520000D01*
X149058899Y-96591068D01*
X148840392Y-96770392D01*
X148661068Y-96988899D01*
X148527818Y-97238192D01*
X148445764Y-97508691D01*
X148418057Y-97790000D01*
X148445764Y-98071309D01*
X148527818Y-98341808D01*
X148661068Y-98591101D01*
X148840392Y-98809608D01*
X149058899Y-98988932D01*
X149308192Y-99122182D01*
X149578691Y-99204236D01*
X149789508Y-99225000D01*
X149930492Y-99225000D01*
X150141309Y-99204236D01*
X150411808Y-99122182D01*
X150661101Y-98988932D01*
X150879608Y-98809608D01*
X151058932Y-98591101D01*
X151192182Y-98341808D01*
X151274236Y-98071309D01*
X151301943Y-97790000D01*
X151274236Y-97508691D01*
X151192182Y-97238192D01*
X151058932Y-96988899D01*
X150879608Y-96770392D01*
X150661101Y-96591068D01*
X150528142Y-96520000D01*
X150661101Y-96448932D01*
X150879608Y-96269608D01*
X151058932Y-96051101D01*
X151192182Y-95801808D01*
X151274236Y-95531309D01*
X151301943Y-95250000D01*
X151274236Y-94968691D01*
X151204864Y-94740000D01*
X152362678Y-94740000D01*
X152400000Y-94743676D01*
X152437322Y-94740000D01*
X152437333Y-94740000D01*
X152548986Y-94729003D01*
X152692247Y-94685546D01*
X152824276Y-94614974D01*
X152940001Y-94520001D01*
X152963803Y-94490998D01*
X153074801Y-94380000D01*
X153136939Y-94380000D01*
X153336898Y-94340226D01*
X153525256Y-94262205D01*
X153694774Y-94148937D01*
X153838937Y-94004774D01*
X153952205Y-93835256D01*
X153987500Y-93750047D01*
X154022795Y-93835256D01*
X154136063Y-94004774D01*
X154280226Y-94148937D01*
X154449744Y-94262205D01*
X154638102Y-94340226D01*
X154838061Y-94380000D01*
X155041939Y-94380000D01*
X155241898Y-94340226D01*
X155430256Y-94262205D01*
X155450000Y-94249012D01*
X155450001Y-96482668D01*
X155446324Y-96520000D01*
X155450001Y-96557333D01*
X155457553Y-96634003D01*
X155460998Y-96668985D01*
X155504454Y-96812246D01*
X155575026Y-96944276D01*
X155611648Y-96988899D01*
X155670000Y-97060001D01*
X155698998Y-97083799D01*
X156079292Y-97464094D01*
X156065764Y-97508691D01*
X156038057Y-97790000D01*
X156065764Y-98071309D01*
X156079292Y-98115906D01*
X152720199Y-101475000D01*
X134729801Y-101475000D01*
X136401008Y-99803795D01*
X136430001Y-99780001D01*
X136453795Y-99751008D01*
X136453799Y-99751004D01*
X136524973Y-99664277D01*
X136524974Y-99664276D01*
X136595546Y-99532247D01*
X136628941Y-99422157D01*
X136691100Y-99388932D01*
X136909607Y-99209608D01*
X137088932Y-98991101D01*
X137160000Y-98858142D01*
X137231068Y-98991100D01*
X137410392Y-99209607D01*
X137628899Y-99388932D01*
X137878192Y-99522182D01*
X138148691Y-99604236D01*
X138430000Y-99631943D01*
X138711308Y-99604236D01*
X138981807Y-99522182D01*
X139231100Y-99388932D01*
X139449607Y-99209608D01*
X139628932Y-98991101D01*
X139700000Y-98858142D01*
X139771068Y-98991100D01*
X139950392Y-99209607D01*
X140168899Y-99388932D01*
X140418192Y-99522182D01*
X140688691Y-99604236D01*
X140970000Y-99631943D01*
X141251308Y-99604236D01*
X141521807Y-99522182D01*
X141771100Y-99388932D01*
X141989607Y-99209608D01*
X142168932Y-98991101D01*
X142240000Y-98858142D01*
X142311068Y-98991100D01*
X142490392Y-99209607D01*
X142708899Y-99388932D01*
X142958192Y-99522182D01*
X143228691Y-99604236D01*
X143510000Y-99631943D01*
X143791308Y-99604236D01*
X144061807Y-99522182D01*
X144311100Y-99388932D01*
X144529607Y-99209608D01*
X144708932Y-98991101D01*
X144842182Y-98741808D01*
X144924236Y-98471309D01*
X144945000Y-98260492D01*
X144945000Y-97319509D01*
X144924236Y-97108691D01*
X144842182Y-96838192D01*
X144708932Y-96588899D01*
X144529608Y-96370392D01*
X144311101Y-96191068D01*
X144061808Y-96057818D01*
X143791309Y-95975764D01*
X143510000Y-95948057D01*
X143228692Y-95975764D01*
X142958193Y-96057818D01*
X142708900Y-96191068D01*
X142490393Y-96370392D01*
X142311068Y-96588899D01*
X142240000Y-96721858D01*
X142168932Y-96588899D01*
X141989608Y-96370392D01*
X141771101Y-96191068D01*
X141521808Y-96057818D01*
X141251309Y-95975764D01*
X140970000Y-95948057D01*
X140688692Y-95975764D01*
X140418193Y-96057818D01*
X140168900Y-96191068D01*
X139950393Y-96370392D01*
X139771068Y-96588899D01*
X139700000Y-96721858D01*
X139628932Y-96588899D01*
X139449608Y-96370392D01*
X139231101Y-96191068D01*
X138981808Y-96057818D01*
X138711309Y-95975764D01*
X138430000Y-95948057D01*
X138148692Y-95975764D01*
X137878193Y-96057818D01*
X137628900Y-96191068D01*
X137410393Y-96370392D01*
X137231068Y-96588899D01*
X137160000Y-96721858D01*
X137088932Y-96588899D01*
X136909608Y-96370392D01*
X136691101Y-96191068D01*
X136441808Y-96057818D01*
X136171309Y-95975764D01*
X135890000Y-95948057D01*
X135608692Y-95975764D01*
X135338193Y-96057818D01*
X135088900Y-96191068D01*
X134870393Y-96370392D01*
X134691068Y-96588899D01*
X134620000Y-96721858D01*
X134548932Y-96588899D01*
X134369608Y-96370392D01*
X134151101Y-96191068D01*
X133901808Y-96057818D01*
X133631309Y-95975764D01*
X133350000Y-95948057D01*
X133068692Y-95975764D01*
X133024094Y-95989292D01*
X132408803Y-95374002D01*
X132385001Y-95344999D01*
X132269276Y-95250026D01*
X132137247Y-95179454D01*
X131993986Y-95135997D01*
X131882333Y-95125000D01*
X131882322Y-95125000D01*
X131845000Y-95121324D01*
X131807678Y-95125000D01*
X121599802Y-95125000D01*
X120140000Y-93665199D01*
X120140000Y-90439013D01*
X120159744Y-90452205D01*
X120348102Y-90530226D01*
X120548061Y-90570000D01*
X120751939Y-90570000D01*
X120951898Y-90530226D01*
X121140256Y-90452205D01*
X121309774Y-90338937D01*
X121353711Y-90295000D01*
X133916289Y-90295000D01*
X133960226Y-90338937D01*
X133960226Y-90338937D01*
G37*
X133960226Y-90338937D02*
X134129744Y-90452205D01*
X134318102Y-90530226D01*
X134518061Y-90570000D01*
X134580199Y-90570000D01*
X136648996Y-92638799D01*
X136649007Y-92638808D01*
X138501200Y-94491002D01*
X138524999Y-94520001D01*
X138640724Y-94614974D01*
X138772753Y-94685546D01*
X138916014Y-94729003D01*
X139027667Y-94740000D01*
X139027677Y-94740000D01*
X139065000Y-94743676D01*
X139102323Y-94740000D01*
X148515136Y-94740000D01*
X148445764Y-94968691D01*
X148418057Y-95250000D01*
X148445764Y-95531309D01*
X148527818Y-95801808D01*
X148661068Y-96051101D01*
X148840392Y-96269608D01*
X149058899Y-96448932D01*
X149191858Y-96520000D01*
X149058899Y-96591068D01*
X148840392Y-96770392D01*
X148661068Y-96988899D01*
X148527818Y-97238192D01*
X148445764Y-97508691D01*
X148418057Y-97790000D01*
X148445764Y-98071309D01*
X148527818Y-98341808D01*
X148661068Y-98591101D01*
X148840392Y-98809608D01*
X149058899Y-98988932D01*
X149308192Y-99122182D01*
X149578691Y-99204236D01*
X149789508Y-99225000D01*
X149930492Y-99225000D01*
X150141309Y-99204236D01*
X150411808Y-99122182D01*
X150661101Y-98988932D01*
X150879608Y-98809608D01*
X151058932Y-98591101D01*
X151192182Y-98341808D01*
X151274236Y-98071309D01*
X151301943Y-97790000D01*
X151274236Y-97508691D01*
X151192182Y-97238192D01*
X151058932Y-96988899D01*
X150879608Y-96770392D01*
X150661101Y-96591068D01*
X150528142Y-96520000D01*
X150661101Y-96448932D01*
X150879608Y-96269608D01*
X151058932Y-96051101D01*
X151192182Y-95801808D01*
X151274236Y-95531309D01*
X151301943Y-95250000D01*
X151274236Y-94968691D01*
X151204864Y-94740000D01*
X152362678Y-94740000D01*
X152400000Y-94743676D01*
X152437322Y-94740000D01*
X152437333Y-94740000D01*
X152548986Y-94729003D01*
X152692247Y-94685546D01*
X152824276Y-94614974D01*
X152940001Y-94520001D01*
X152963803Y-94490998D01*
X153074801Y-94380000D01*
X153136939Y-94380000D01*
X153336898Y-94340226D01*
X153525256Y-94262205D01*
X153694774Y-94148937D01*
X153838937Y-94004774D01*
X153952205Y-93835256D01*
X153987500Y-93750047D01*
X154022795Y-93835256D01*
X154136063Y-94004774D01*
X154280226Y-94148937D01*
X154449744Y-94262205D01*
X154638102Y-94340226D01*
X154838061Y-94380000D01*
X155041939Y-94380000D01*
X155241898Y-94340226D01*
X155430256Y-94262205D01*
X155450000Y-94249012D01*
X155450001Y-96482668D01*
X155446324Y-96520000D01*
X155450001Y-96557333D01*
X155457553Y-96634003D01*
X155460998Y-96668985D01*
X155504454Y-96812246D01*
X155575026Y-96944276D01*
X155611648Y-96988899D01*
X155670000Y-97060001D01*
X155698998Y-97083799D01*
X156079292Y-97464094D01*
X156065764Y-97508691D01*
X156038057Y-97790000D01*
X156065764Y-98071309D01*
X156079292Y-98115906D01*
X152720199Y-101475000D01*
X134729801Y-101475000D01*
X136401008Y-99803795D01*
X136430001Y-99780001D01*
X136453795Y-99751008D01*
X136453799Y-99751004D01*
X136524973Y-99664277D01*
X136524974Y-99664276D01*
X136595546Y-99532247D01*
X136628941Y-99422157D01*
X136691100Y-99388932D01*
X136909607Y-99209608D01*
X137088932Y-98991101D01*
X137160000Y-98858142D01*
X137231068Y-98991100D01*
X137410392Y-99209607D01*
X137628899Y-99388932D01*
X137878192Y-99522182D01*
X138148691Y-99604236D01*
X138430000Y-99631943D01*
X138711308Y-99604236D01*
X138981807Y-99522182D01*
X139231100Y-99388932D01*
X139449607Y-99209608D01*
X139628932Y-98991101D01*
X139700000Y-98858142D01*
X139771068Y-98991100D01*
X139950392Y-99209607D01*
X140168899Y-99388932D01*
X140418192Y-99522182D01*
X140688691Y-99604236D01*
X140970000Y-99631943D01*
X141251308Y-99604236D01*
X141521807Y-99522182D01*
X141771100Y-99388932D01*
X141989607Y-99209608D01*
X142168932Y-98991101D01*
X142240000Y-98858142D01*
X142311068Y-98991100D01*
X142490392Y-99209607D01*
X142708899Y-99388932D01*
X142958192Y-99522182D01*
X143228691Y-99604236D01*
X143510000Y-99631943D01*
X143791308Y-99604236D01*
X144061807Y-99522182D01*
X144311100Y-99388932D01*
X144529607Y-99209608D01*
X144708932Y-98991101D01*
X144842182Y-98741808D01*
X144924236Y-98471309D01*
X144945000Y-98260492D01*
X144945000Y-97319509D01*
X144924236Y-97108691D01*
X144842182Y-96838192D01*
X144708932Y-96588899D01*
X144529608Y-96370392D01*
X144311101Y-96191068D01*
X144061808Y-96057818D01*
X143791309Y-95975764D01*
X143510000Y-95948057D01*
X143228692Y-95975764D01*
X142958193Y-96057818D01*
X142708900Y-96191068D01*
X142490393Y-96370392D01*
X142311068Y-96588899D01*
X142240000Y-96721858D01*
X142168932Y-96588899D01*
X141989608Y-96370392D01*
X141771101Y-96191068D01*
X141521808Y-96057818D01*
X141251309Y-95975764D01*
X140970000Y-95948057D01*
X140688692Y-95975764D01*
X140418193Y-96057818D01*
X140168900Y-96191068D01*
X139950393Y-96370392D01*
X139771068Y-96588899D01*
X139700000Y-96721858D01*
X139628932Y-96588899D01*
X139449608Y-96370392D01*
X139231101Y-96191068D01*
X138981808Y-96057818D01*
X138711309Y-95975764D01*
X138430000Y-95948057D01*
X138148692Y-95975764D01*
X137878193Y-96057818D01*
X137628900Y-96191068D01*
X137410393Y-96370392D01*
X137231068Y-96588899D01*
X137160000Y-96721858D01*
X137088932Y-96588899D01*
X136909608Y-96370392D01*
X136691101Y-96191068D01*
X136441808Y-96057818D01*
X136171309Y-95975764D01*
X135890000Y-95948057D01*
X135608692Y-95975764D01*
X135338193Y-96057818D01*
X135088900Y-96191068D01*
X134870393Y-96370392D01*
X134691068Y-96588899D01*
X134620000Y-96721858D01*
X134548932Y-96588899D01*
X134369608Y-96370392D01*
X134151101Y-96191068D01*
X133901808Y-96057818D01*
X133631309Y-95975764D01*
X133350000Y-95948057D01*
X133068692Y-95975764D01*
X133024094Y-95989292D01*
X132408803Y-95374002D01*
X132385001Y-95344999D01*
X132269276Y-95250026D01*
X132137247Y-95179454D01*
X131993986Y-95135997D01*
X131882333Y-95125000D01*
X131882322Y-95125000D01*
X131845000Y-95121324D01*
X131807678Y-95125000D01*
X121599802Y-95125000D01*
X120140000Y-93665199D01*
X120140000Y-90439013D01*
X120159744Y-90452205D01*
X120348102Y-90530226D01*
X120548061Y-90570000D01*
X120751939Y-90570000D01*
X120951898Y-90530226D01*
X121140256Y-90452205D01*
X121309774Y-90338937D01*
X121353711Y-90295000D01*
X133916289Y-90295000D01*
X133960226Y-90338937D01*
G36*
X134691068Y-98991100D02*
G01*
X134859213Y-99195985D01*
X133850199Y-100205000D01*
X118424802Y-100205000D01*
X117822011Y-99602210D01*
X117828691Y-99604236D01*
X118110000Y-99631943D01*
X118391308Y-99604236D01*
X118661807Y-99522182D01*
X118911100Y-99388932D01*
X119129607Y-99209608D01*
X119308932Y-98991101D01*
X119380000Y-98858142D01*
X119451068Y-98991100D01*
X119630392Y-99209607D01*
X119848899Y-99388932D01*
X120098192Y-99522182D01*
X120368691Y-99604236D01*
X120650000Y-99631943D01*
X120931308Y-99604236D01*
X121201807Y-99522182D01*
X121451100Y-99388932D01*
X121669607Y-99209608D01*
X121848932Y-98991101D01*
X121920000Y-98858142D01*
X121991068Y-98991100D01*
X122170392Y-99209607D01*
X122388899Y-99388932D01*
X122638192Y-99522182D01*
X122908691Y-99604236D01*
X123190000Y-99631943D01*
X123471308Y-99604236D01*
X123741807Y-99522182D01*
X123991100Y-99388932D01*
X124209607Y-99209608D01*
X124388932Y-98991101D01*
X124460000Y-98858142D01*
X124531068Y-98991100D01*
X124710392Y-99209607D01*
X124928899Y-99388932D01*
X125178192Y-99522182D01*
X125448691Y-99604236D01*
X125730000Y-99631943D01*
X126011308Y-99604236D01*
X126281807Y-99522182D01*
X126531100Y-99388932D01*
X126749607Y-99209608D01*
X126928932Y-98991101D01*
X127000000Y-98858142D01*
X127071068Y-98991100D01*
X127250392Y-99209607D01*
X127468899Y-99388932D01*
X127718192Y-99522182D01*
X127988691Y-99604236D01*
X128270000Y-99631943D01*
X128551308Y-99604236D01*
X128821807Y-99522182D01*
X129071100Y-99388932D01*
X129289607Y-99209608D01*
X129468932Y-98991101D01*
X129540000Y-98858142D01*
X129611068Y-98991100D01*
X129790392Y-99209607D01*
X130008899Y-99388932D01*
X130258192Y-99522182D01*
X130528691Y-99604236D01*
X130810000Y-99631943D01*
X131091308Y-99604236D01*
X131361807Y-99522182D01*
X131611100Y-99388932D01*
X131829607Y-99209608D01*
X132008932Y-98991101D01*
X132080000Y-98858142D01*
X132151068Y-98991100D01*
X132330392Y-99209607D01*
X132548899Y-99388932D01*
X132798192Y-99522182D01*
X133068691Y-99604236D01*
X133350000Y-99631943D01*
X133631308Y-99604236D01*
X133901807Y-99522182D01*
X134151100Y-99388932D01*
X134369607Y-99209608D01*
X134548932Y-98991101D01*
X134620000Y-98858142D01*
X134691068Y-98991100D01*
X134691068Y-98991100D01*
G37*
X134691068Y-98991100D02*
X134859213Y-99195985D01*
X133850199Y-100205000D01*
X118424802Y-100205000D01*
X117822011Y-99602210D01*
X117828691Y-99604236D01*
X118110000Y-99631943D01*
X118391308Y-99604236D01*
X118661807Y-99522182D01*
X118911100Y-99388932D01*
X119129607Y-99209608D01*
X119308932Y-98991101D01*
X119380000Y-98858142D01*
X119451068Y-98991100D01*
X119630392Y-99209607D01*
X119848899Y-99388932D01*
X120098192Y-99522182D01*
X120368691Y-99604236D01*
X120650000Y-99631943D01*
X120931308Y-99604236D01*
X121201807Y-99522182D01*
X121451100Y-99388932D01*
X121669607Y-99209608D01*
X121848932Y-98991101D01*
X121920000Y-98858142D01*
X121991068Y-98991100D01*
X122170392Y-99209607D01*
X122388899Y-99388932D01*
X122638192Y-99522182D01*
X122908691Y-99604236D01*
X123190000Y-99631943D01*
X123471308Y-99604236D01*
X123741807Y-99522182D01*
X123991100Y-99388932D01*
X124209607Y-99209608D01*
X124388932Y-98991101D01*
X124460000Y-98858142D01*
X124531068Y-98991100D01*
X124710392Y-99209607D01*
X124928899Y-99388932D01*
X125178192Y-99522182D01*
X125448691Y-99604236D01*
X125730000Y-99631943D01*
X126011308Y-99604236D01*
X126281807Y-99522182D01*
X126531100Y-99388932D01*
X126749607Y-99209608D01*
X126928932Y-98991101D01*
X127000000Y-98858142D01*
X127071068Y-98991100D01*
X127250392Y-99209607D01*
X127468899Y-99388932D01*
X127718192Y-99522182D01*
X127988691Y-99604236D01*
X128270000Y-99631943D01*
X128551308Y-99604236D01*
X128821807Y-99522182D01*
X129071100Y-99388932D01*
X129289607Y-99209608D01*
X129468932Y-98991101D01*
X129540000Y-98858142D01*
X129611068Y-98991100D01*
X129790392Y-99209607D01*
X130008899Y-99388932D01*
X130258192Y-99522182D01*
X130528691Y-99604236D01*
X130810000Y-99631943D01*
X131091308Y-99604236D01*
X131361807Y-99522182D01*
X131611100Y-99388932D01*
X131829607Y-99209608D01*
X132008932Y-98991101D01*
X132080000Y-98858142D01*
X132151068Y-98991100D01*
X132330392Y-99209607D01*
X132548899Y-99388932D01*
X132798192Y-99522182D01*
X133068691Y-99604236D01*
X133350000Y-99631943D01*
X133631308Y-99604236D01*
X133901807Y-99522182D01*
X134151100Y-99388932D01*
X134369607Y-99209608D01*
X134548932Y-98991101D01*
X134620000Y-98858142D01*
X134691068Y-98991100D01*
G36*
X118620000Y-93942678D02*
G01*
X118616324Y-93980000D01*
X118620000Y-94017322D01*
X118620000Y-94017332D01*
X118630997Y-94128985D01*
X118645728Y-94177546D01*
X118674454Y-94272246D01*
X118745026Y-94404276D01*
X118781648Y-94448899D01*
X118839999Y-94520001D01*
X118869003Y-94543804D01*
X120316726Y-95991528D01*
X120098193Y-96057818D01*
X119848900Y-96191068D01*
X119630393Y-96370392D01*
X119451068Y-96588899D01*
X119380000Y-96721858D01*
X119308932Y-96588899D01*
X119129608Y-96370392D01*
X118911101Y-96191068D01*
X118661808Y-96057818D01*
X118391309Y-95975764D01*
X118110000Y-95948057D01*
X117828692Y-95975764D01*
X117600000Y-96045136D01*
X117600000Y-84294864D01*
X117828691Y-84364236D01*
X118110000Y-84391943D01*
X118391308Y-84364236D01*
X118620001Y-84294864D01*
X118620000Y-93942678D01*
X118620000Y-93942678D01*
G37*
X118620000Y-93942678D02*
X118616324Y-93980000D01*
X118620000Y-94017322D01*
X118620000Y-94017332D01*
X118630997Y-94128985D01*
X118645728Y-94177546D01*
X118674454Y-94272246D01*
X118745026Y-94404276D01*
X118781648Y-94448899D01*
X118839999Y-94520001D01*
X118869003Y-94543804D01*
X120316726Y-95991528D01*
X120098193Y-96057818D01*
X119848900Y-96191068D01*
X119630393Y-96370392D01*
X119451068Y-96588899D01*
X119380000Y-96721858D01*
X119308932Y-96588899D01*
X119129608Y-96370392D01*
X118911101Y-96191068D01*
X118661808Y-96057818D01*
X118391309Y-95975764D01*
X118110000Y-95948057D01*
X117828692Y-95975764D01*
X117600000Y-96045136D01*
X117600000Y-84294864D01*
X117828691Y-84364236D01*
X118110000Y-84391943D01*
X118391308Y-84364236D01*
X118620001Y-84294864D01*
X118620000Y-93942678D01*
G36*
X106751068Y-83751100D02*
G01*
X106930392Y-83969607D01*
X107148899Y-84148932D01*
X107398192Y-84282182D01*
X107668691Y-84364236D01*
X107950000Y-84391943D01*
X108231308Y-84364236D01*
X108460000Y-84294864D01*
X108460000Y-84775198D01*
X107438998Y-85796201D01*
X107410000Y-85819999D01*
X107386202Y-85848997D01*
X107386201Y-85848998D01*
X107315026Y-85935724D01*
X107244454Y-86067754D01*
X107214180Y-86167558D01*
X107200998Y-86211014D01*
X107190001Y-86322667D01*
X107186324Y-86360000D01*
X107190001Y-86397332D01*
X107190000Y-96169099D01*
X107148900Y-96191068D01*
X106930393Y-96370392D01*
X106751068Y-96588899D01*
X106680000Y-96721858D01*
X106608932Y-96588899D01*
X106429608Y-96370392D01*
X106211101Y-96191068D01*
X106170000Y-96169099D01*
X106170000Y-95287325D01*
X106173676Y-95250000D01*
X106170000Y-95212675D01*
X106170000Y-95212667D01*
X106159003Y-95101014D01*
X106115546Y-94957753D01*
X106044974Y-94825724D01*
X105950001Y-94709999D01*
X105921003Y-94686201D01*
X104392000Y-93157199D01*
X104392000Y-83970927D01*
X104608899Y-84148932D01*
X104858192Y-84282182D01*
X105128691Y-84364236D01*
X105410000Y-84391943D01*
X105691308Y-84364236D01*
X105961807Y-84282182D01*
X106211100Y-84148932D01*
X106429607Y-83969608D01*
X106608932Y-83751101D01*
X106680000Y-83618142D01*
X106751068Y-83751100D01*
X106751068Y-83751100D01*
G37*
X106751068Y-83751100D02*
X106930392Y-83969607D01*
X107148899Y-84148932D01*
X107398192Y-84282182D01*
X107668691Y-84364236D01*
X107950000Y-84391943D01*
X108231308Y-84364236D01*
X108460000Y-84294864D01*
X108460000Y-84775198D01*
X107438998Y-85796201D01*
X107410000Y-85819999D01*
X107386202Y-85848997D01*
X107386201Y-85848998D01*
X107315026Y-85935724D01*
X107244454Y-86067754D01*
X107214180Y-86167558D01*
X107200998Y-86211014D01*
X107190001Y-86322667D01*
X107186324Y-86360000D01*
X107190001Y-86397332D01*
X107190000Y-96169099D01*
X107148900Y-96191068D01*
X106930393Y-96370392D01*
X106751068Y-96588899D01*
X106680000Y-96721858D01*
X106608932Y-96588899D01*
X106429608Y-96370392D01*
X106211101Y-96191068D01*
X106170000Y-96169099D01*
X106170000Y-95287325D01*
X106173676Y-95250000D01*
X106170000Y-95212675D01*
X106170000Y-95212667D01*
X106159003Y-95101014D01*
X106115546Y-94957753D01*
X106044974Y-94825724D01*
X105950001Y-94709999D01*
X105921003Y-94686201D01*
X104392000Y-93157199D01*
X104392000Y-83970927D01*
X104608899Y-84148932D01*
X104858192Y-84282182D01*
X105128691Y-84364236D01*
X105410000Y-84391943D01*
X105691308Y-84364236D01*
X105961807Y-84282182D01*
X106211100Y-84148932D01*
X106429607Y-83969608D01*
X106608932Y-83751101D01*
X106680000Y-83618142D01*
X106751068Y-83751100D01*
G36*
X129540000Y-96721858D02*
G01*
X129498919Y-96645000D01*
X129581081Y-96645000D01*
X129540000Y-96721858D01*
X129540000Y-96721858D01*
G37*
X129540000Y-96721858D02*
X129498919Y-96645000D01*
X129581081Y-96645000D01*
X129540000Y-96721858D01*
G36*
X111000000Y-96045136D02*
G01*
X110771309Y-95975764D01*
X110490000Y-95948057D01*
X110208692Y-95975764D01*
X109938193Y-96057818D01*
X109688900Y-96191068D01*
X109470393Y-96370392D01*
X109291068Y-96588899D01*
X109220000Y-96721858D01*
X109148932Y-96588899D01*
X108969608Y-96370392D01*
X108751101Y-96191068D01*
X108710000Y-96169099D01*
X108710000Y-86674801D01*
X109731004Y-85653798D01*
X109760001Y-85630001D01*
X109854974Y-85514276D01*
X109925546Y-85382247D01*
X109969003Y-85238986D01*
X109980000Y-85127333D01*
X109980000Y-85127324D01*
X109983676Y-85090001D01*
X109980000Y-85052678D01*
X109980000Y-84294864D01*
X110208691Y-84364236D01*
X110490000Y-84391943D01*
X110771308Y-84364236D01*
X111000001Y-84294864D01*
X111000000Y-96045136D01*
X111000000Y-96045136D01*
G37*
X111000000Y-96045136D02*
X110771309Y-95975764D01*
X110490000Y-95948057D01*
X110208692Y-95975764D01*
X109938193Y-96057818D01*
X109688900Y-96191068D01*
X109470393Y-96370392D01*
X109291068Y-96588899D01*
X109220000Y-96721858D01*
X109148932Y-96588899D01*
X108969608Y-96370392D01*
X108751101Y-96191068D01*
X108710000Y-96169099D01*
X108710000Y-86674801D01*
X109731004Y-85653798D01*
X109760001Y-85630001D01*
X109854974Y-85514276D01*
X109925546Y-85382247D01*
X109969003Y-85238986D01*
X109980000Y-85127333D01*
X109980000Y-85127324D01*
X109983676Y-85090001D01*
X109980000Y-85052678D01*
X109980000Y-84294864D01*
X110208691Y-84364236D01*
X110490000Y-84391943D01*
X110771308Y-84364236D01*
X111000001Y-84294864D01*
X111000000Y-96045136D01*
G36*
X127000000Y-96721858D02*
G01*
X126958919Y-96645000D01*
X127041081Y-96645000D01*
X127000000Y-96721858D01*
X127000000Y-96721858D01*
G37*
X127000000Y-96721858D02*
X126958919Y-96645000D01*
X127041081Y-96645000D01*
X127000000Y-96721858D01*
G36*
X121920000Y-96721858D02*
G01*
X121878919Y-96645000D01*
X121961081Y-96645000D01*
X121920000Y-96721858D01*
X121920000Y-96721858D01*
G37*
X121920000Y-96721858D02*
X121878919Y-96645000D01*
X121961081Y-96645000D01*
X121920000Y-96721858D01*
G36*
X124460000Y-96721858D02*
G01*
X124418919Y-96645000D01*
X124501081Y-96645000D01*
X124460000Y-96721858D01*
X124460000Y-96721858D01*
G37*
X124460000Y-96721858D02*
X124418919Y-96645000D01*
X124501081Y-96645000D01*
X124460000Y-96721858D01*
G36*
X113540001Y-96045136D02*
G01*
X113311309Y-95975764D01*
X113030000Y-95948057D01*
X112748692Y-95975764D01*
X112704094Y-95989293D01*
X112520000Y-95805199D01*
X112520000Y-84294864D01*
X112748691Y-84364236D01*
X113030000Y-84391943D01*
X113311308Y-84364236D01*
X113540000Y-84294864D01*
X113540001Y-96045136D01*
X113540001Y-96045136D01*
G37*
X113540001Y-96045136D02*
X113311309Y-95975764D01*
X113030000Y-95948057D01*
X112748692Y-95975764D01*
X112704094Y-95989293D01*
X112520000Y-95805199D01*
X112520000Y-84294864D01*
X112748691Y-84364236D01*
X113030000Y-84391943D01*
X113311308Y-84364236D01*
X113540000Y-84294864D01*
X113540001Y-96045136D01*
G36*
X116080001Y-96045136D02*
G01*
X115851309Y-95975764D01*
X115570000Y-95948057D01*
X115288692Y-95975764D01*
X115060000Y-96045136D01*
X115060000Y-84294864D01*
X115288691Y-84364236D01*
X115570000Y-84391943D01*
X115851308Y-84364236D01*
X116080000Y-84294864D01*
X116080001Y-96045136D01*
X116080001Y-96045136D01*
G37*
X116080001Y-96045136D02*
X115851309Y-95975764D01*
X115570000Y-95948057D01*
X115288692Y-95975764D01*
X115060000Y-96045136D01*
X115060000Y-84294864D01*
X115288691Y-84364236D01*
X115570000Y-84391943D01*
X115851308Y-84364236D01*
X116080000Y-84294864D01*
X116080001Y-96045136D01*
G36*
X123716200Y-88141002D02*
G01*
X123739999Y-88170001D01*
X123855724Y-88264974D01*
X123987753Y-88335546D01*
X124131014Y-88379003D01*
X124242667Y-88390000D01*
X124242676Y-88390000D01*
X124279999Y-88393676D01*
X124317322Y-88390000D01*
X141536289Y-88390000D01*
X141580226Y-88433937D01*
X141749744Y-88547205D01*
X141938102Y-88625226D01*
X142138061Y-88665000D01*
X142341939Y-88665000D01*
X142541898Y-88625226D01*
X142730256Y-88547205D01*
X142899774Y-88433937D01*
X142943711Y-88390000D01*
X143195199Y-88390000D01*
X147226206Y-92421009D01*
X147250000Y-92450002D01*
X147278993Y-92473796D01*
X147278997Y-92473800D01*
X147349686Y-92531812D01*
X147365725Y-92544975D01*
X147497754Y-92615547D01*
X147641015Y-92659004D01*
X147752668Y-92670001D01*
X147752677Y-92670001D01*
X147790000Y-92673677D01*
X147827323Y-92670001D01*
X148421997Y-92670001D01*
X148418057Y-92710000D01*
X148445764Y-92991309D01*
X148515136Y-93220000D01*
X139379802Y-93220000D01*
X138132863Y-91973061D01*
X138665000Y-91973061D01*
X138665000Y-92176939D01*
X138704774Y-92376898D01*
X138782795Y-92565256D01*
X138896063Y-92734774D01*
X139040226Y-92878937D01*
X139209744Y-92992205D01*
X139398102Y-93070226D01*
X139598061Y-93110000D01*
X139801939Y-93110000D01*
X140001898Y-93070226D01*
X140190256Y-92992205D01*
X140359774Y-92878937D01*
X140403711Y-92835000D01*
X144711289Y-92835000D01*
X144755226Y-92878937D01*
X144924744Y-92992205D01*
X145113102Y-93070226D01*
X145313061Y-93110000D01*
X145516939Y-93110000D01*
X145716898Y-93070226D01*
X145905256Y-92992205D01*
X146074774Y-92878937D01*
X146218937Y-92734774D01*
X146332205Y-92565256D01*
X146410226Y-92376898D01*
X146450000Y-92176939D01*
X146450000Y-91973061D01*
X146410226Y-91773102D01*
X146332205Y-91584744D01*
X146218937Y-91415226D01*
X146074774Y-91271063D01*
X145905256Y-91157795D01*
X145716898Y-91079774D01*
X145516939Y-91040000D01*
X145313061Y-91040000D01*
X145113102Y-91079774D01*
X144924744Y-91157795D01*
X144755226Y-91271063D01*
X144711289Y-91315000D01*
X140403711Y-91315000D01*
X140359774Y-91271063D01*
X140190256Y-91157795D01*
X140001898Y-91079774D01*
X139801939Y-91040000D01*
X139598061Y-91040000D01*
X139398102Y-91079774D01*
X139209744Y-91157795D01*
X139040226Y-91271063D01*
X138896063Y-91415226D01*
X138782795Y-91584744D01*
X138704774Y-91773102D01*
X138665000Y-91973061D01*
X138132863Y-91973061D01*
X137723808Y-91564007D01*
X137723799Y-91563996D01*
X135655000Y-89495199D01*
X135655000Y-89433061D01*
X135615226Y-89233102D01*
X135537205Y-89044744D01*
X135423937Y-88875226D01*
X135279774Y-88731063D01*
X135110256Y-88617795D01*
X134921898Y-88539774D01*
X134721939Y-88500000D01*
X134518061Y-88500000D01*
X134318102Y-88539774D01*
X134129744Y-88617795D01*
X133960226Y-88731063D01*
X133916289Y-88775000D01*
X121353711Y-88775000D01*
X121309774Y-88731063D01*
X121140256Y-88617795D01*
X120951898Y-88539774D01*
X120751939Y-88500000D01*
X120548061Y-88500000D01*
X120348102Y-88539774D01*
X120159744Y-88617795D01*
X120140000Y-88630987D01*
X120140000Y-84564801D01*
X123716200Y-88141002D01*
X123716200Y-88141002D01*
G37*
X123716200Y-88141002D02*
X123739999Y-88170001D01*
X123855724Y-88264974D01*
X123987753Y-88335546D01*
X124131014Y-88379003D01*
X124242667Y-88390000D01*
X124242676Y-88390000D01*
X124279999Y-88393676D01*
X124317322Y-88390000D01*
X141536289Y-88390000D01*
X141580226Y-88433937D01*
X141749744Y-88547205D01*
X141938102Y-88625226D01*
X142138061Y-88665000D01*
X142341939Y-88665000D01*
X142541898Y-88625226D01*
X142730256Y-88547205D01*
X142899774Y-88433937D01*
X142943711Y-88390000D01*
X143195199Y-88390000D01*
X147226206Y-92421009D01*
X147250000Y-92450002D01*
X147278993Y-92473796D01*
X147278997Y-92473800D01*
X147349686Y-92531812D01*
X147365725Y-92544975D01*
X147497754Y-92615547D01*
X147641015Y-92659004D01*
X147752668Y-92670001D01*
X147752677Y-92670001D01*
X147790000Y-92673677D01*
X147827323Y-92670001D01*
X148421997Y-92670001D01*
X148418057Y-92710000D01*
X148445764Y-92991309D01*
X148515136Y-93220000D01*
X139379802Y-93220000D01*
X138132863Y-91973061D01*
X138665000Y-91973061D01*
X138665000Y-92176939D01*
X138704774Y-92376898D01*
X138782795Y-92565256D01*
X138896063Y-92734774D01*
X139040226Y-92878937D01*
X139209744Y-92992205D01*
X139398102Y-93070226D01*
X139598061Y-93110000D01*
X139801939Y-93110000D01*
X140001898Y-93070226D01*
X140190256Y-92992205D01*
X140359774Y-92878937D01*
X140403711Y-92835000D01*
X144711289Y-92835000D01*
X144755226Y-92878937D01*
X144924744Y-92992205D01*
X145113102Y-93070226D01*
X145313061Y-93110000D01*
X145516939Y-93110000D01*
X145716898Y-93070226D01*
X145905256Y-92992205D01*
X146074774Y-92878937D01*
X146218937Y-92734774D01*
X146332205Y-92565256D01*
X146410226Y-92376898D01*
X146450000Y-92176939D01*
X146450000Y-91973061D01*
X146410226Y-91773102D01*
X146332205Y-91584744D01*
X146218937Y-91415226D01*
X146074774Y-91271063D01*
X145905256Y-91157795D01*
X145716898Y-91079774D01*
X145516939Y-91040000D01*
X145313061Y-91040000D01*
X145113102Y-91079774D01*
X144924744Y-91157795D01*
X144755226Y-91271063D01*
X144711289Y-91315000D01*
X140403711Y-91315000D01*
X140359774Y-91271063D01*
X140190256Y-91157795D01*
X140001898Y-91079774D01*
X139801939Y-91040000D01*
X139598061Y-91040000D01*
X139398102Y-91079774D01*
X139209744Y-91157795D01*
X139040226Y-91271063D01*
X138896063Y-91415226D01*
X138782795Y-91584744D01*
X138704774Y-91773102D01*
X138665000Y-91973061D01*
X138132863Y-91973061D01*
X137723808Y-91564007D01*
X137723799Y-91563996D01*
X135655000Y-89495199D01*
X135655000Y-89433061D01*
X135615226Y-89233102D01*
X135537205Y-89044744D01*
X135423937Y-88875226D01*
X135279774Y-88731063D01*
X135110256Y-88617795D01*
X134921898Y-88539774D01*
X134721939Y-88500000D01*
X134518061Y-88500000D01*
X134318102Y-88539774D01*
X134129744Y-88617795D01*
X133960226Y-88731063D01*
X133916289Y-88775000D01*
X121353711Y-88775000D01*
X121309774Y-88731063D01*
X121140256Y-88617795D01*
X120951898Y-88539774D01*
X120751939Y-88500000D01*
X120548061Y-88500000D01*
X120348102Y-88539774D01*
X120159744Y-88617795D01*
X120140000Y-88630987D01*
X120140000Y-84564801D01*
X123716200Y-88141002D01*
G36*
X152847264Y-92327066D02*
G01*
X152733102Y-92349774D01*
X152544744Y-92427795D01*
X152375226Y-92541063D01*
X152231063Y-92685226D01*
X152117795Y-92854744D01*
X152039774Y-93043102D01*
X152004587Y-93220000D01*
X151204864Y-93220000D01*
X151274236Y-92991309D01*
X151301943Y-92710000D01*
X151274236Y-92428691D01*
X151192182Y-92158192D01*
X151058932Y-91908899D01*
X150879608Y-91690392D01*
X150661101Y-91511068D01*
X150528142Y-91440000D01*
X150661101Y-91368932D01*
X150879608Y-91189608D01*
X151058932Y-90971101D01*
X151192182Y-90721808D01*
X151203778Y-90683580D01*
X152847264Y-92327066D01*
X152847264Y-92327066D01*
G37*
X152847264Y-92327066D02*
X152733102Y-92349774D01*
X152544744Y-92427795D01*
X152375226Y-92541063D01*
X152231063Y-92685226D01*
X152117795Y-92854744D01*
X152039774Y-93043102D01*
X152004587Y-93220000D01*
X151204864Y-93220000D01*
X151274236Y-92991309D01*
X151301943Y-92710000D01*
X151274236Y-92428691D01*
X151192182Y-92158192D01*
X151058932Y-91908899D01*
X150879608Y-91690392D01*
X150661101Y-91511068D01*
X150528142Y-91440000D01*
X150661101Y-91368932D01*
X150879608Y-91189608D01*
X151058932Y-90971101D01*
X151192182Y-90721808D01*
X151203778Y-90683580D01*
X152847264Y-92327066D01*
G36*
X150850241Y-73815363D02*
G01*
X150650363Y-74015241D01*
X150493320Y-74250273D01*
X150385147Y-74511426D01*
X150330000Y-74788665D01*
X150330000Y-75071335D01*
X150385147Y-75348574D01*
X150493320Y-75609727D01*
X150650363Y-75844759D01*
X150850241Y-76044637D01*
X151005000Y-76148043D01*
X151005000Y-76162668D01*
X151005001Y-77294038D01*
X151001324Y-77331370D01*
X151005001Y-77368703D01*
X151014976Y-77469974D01*
X151015998Y-77480355D01*
X151059454Y-77623616D01*
X151130026Y-77755646D01*
X151201201Y-77842372D01*
X151225000Y-77871371D01*
X151253998Y-77895169D01*
X153545000Y-80186173D01*
X153545001Y-90875199D01*
X151073551Y-88403750D01*
X151192182Y-88181808D01*
X151274236Y-87911309D01*
X151301943Y-87630000D01*
X151274236Y-87348691D01*
X151192182Y-87078192D01*
X151058932Y-86828899D01*
X150879608Y-86610392D01*
X150661101Y-86431068D01*
X150528142Y-86360000D01*
X150661101Y-86288932D01*
X150879608Y-86109608D01*
X151058932Y-85891101D01*
X151192182Y-85641808D01*
X151274236Y-85371309D01*
X151301943Y-85090000D01*
X151274236Y-84808691D01*
X151192182Y-84538192D01*
X151058932Y-84288899D01*
X150879608Y-84070392D01*
X150661101Y-83891068D01*
X150528142Y-83820000D01*
X150661101Y-83748932D01*
X150879608Y-83569608D01*
X151058932Y-83351101D01*
X151192182Y-83101808D01*
X151274236Y-82831309D01*
X151301943Y-82550000D01*
X151274236Y-82268691D01*
X151192182Y-81998192D01*
X151058932Y-81748899D01*
X150879608Y-81530392D01*
X150766518Y-81437581D01*
X150784482Y-81435812D01*
X150904180Y-81399502D01*
X151014494Y-81340537D01*
X151111185Y-81261185D01*
X151190537Y-81164494D01*
X151249502Y-81054180D01*
X151285812Y-80934482D01*
X151298072Y-80810000D01*
X151298072Y-79210000D01*
X151285812Y-79085518D01*
X151249502Y-78965820D01*
X151190537Y-78855506D01*
X151111185Y-78758815D01*
X151014494Y-78679463D01*
X150904180Y-78620498D01*
X150784482Y-78584188D01*
X150660000Y-78571928D01*
X149060000Y-78571928D01*
X148935518Y-78584188D01*
X148815820Y-78620498D01*
X148705506Y-78679463D01*
X148608815Y-78758815D01*
X148529463Y-78855506D01*
X148470498Y-78965820D01*
X148434188Y-79085518D01*
X148421928Y-79210000D01*
X148421928Y-80810000D01*
X148434188Y-80934482D01*
X148470498Y-81054180D01*
X148529463Y-81164494D01*
X148608815Y-81261185D01*
X148705506Y-81340537D01*
X148815820Y-81399502D01*
X148935518Y-81435812D01*
X148953482Y-81437581D01*
X148840392Y-81530392D01*
X148661068Y-81748899D01*
X148527818Y-81998192D01*
X148445764Y-82268691D01*
X148418057Y-82550000D01*
X148445764Y-82831309D01*
X148527818Y-83101808D01*
X148661068Y-83351101D01*
X148840392Y-83569608D01*
X149058899Y-83748932D01*
X149191858Y-83820000D01*
X149058899Y-83891068D01*
X148840392Y-84070392D01*
X148661068Y-84288899D01*
X148527818Y-84538192D01*
X148445764Y-84808691D01*
X148418057Y-85090000D01*
X148445764Y-85371309D01*
X148527818Y-85641808D01*
X148661068Y-85891101D01*
X148840392Y-86109608D01*
X149058899Y-86288932D01*
X149191858Y-86360000D01*
X149058899Y-86431068D01*
X148840392Y-86610392D01*
X148661068Y-86828899D01*
X148527818Y-87078192D01*
X148445764Y-87348691D01*
X148418057Y-87630000D01*
X148445764Y-87911309D01*
X148515136Y-88140000D01*
X148269802Y-88140000D01*
X146613804Y-86484003D01*
X146590001Y-86454999D01*
X146474276Y-86360026D01*
X146342247Y-86289454D01*
X146198986Y-86245997D01*
X146122139Y-86238428D01*
X146074774Y-86191063D01*
X145905256Y-86077795D01*
X145716898Y-85999774D01*
X145516939Y-85960000D01*
X145313061Y-85960000D01*
X145113102Y-85999774D01*
X144924744Y-86077795D01*
X144755226Y-86191063D01*
X144611063Y-86335226D01*
X144497795Y-86504744D01*
X144419774Y-86693102D01*
X144380000Y-86893061D01*
X144380000Y-87096939D01*
X144419774Y-87296898D01*
X144497795Y-87485256D01*
X144611063Y-87654774D01*
X144755226Y-87798937D01*
X144924744Y-87912205D01*
X145113102Y-87990226D01*
X145313061Y-88030000D01*
X145516939Y-88030000D01*
X145716898Y-87990226D01*
X145896168Y-87915969D01*
X147391200Y-89411002D01*
X147414999Y-89440001D01*
X147530724Y-89534974D01*
X147662753Y-89605546D01*
X147806014Y-89649003D01*
X147917667Y-89660000D01*
X147917677Y-89660000D01*
X147955000Y-89663676D01*
X147992323Y-89660000D01*
X148515136Y-89660000D01*
X148445764Y-89888691D01*
X148418057Y-90170000D01*
X148445764Y-90451309D01*
X148527818Y-90721808D01*
X148661068Y-90971101D01*
X148807887Y-91150001D01*
X148104804Y-91150001D01*
X144073804Y-87119003D01*
X144050001Y-87089999D01*
X143934276Y-86995026D01*
X143802247Y-86924454D01*
X143658986Y-86880997D01*
X143547333Y-86870000D01*
X143547322Y-86870000D01*
X143510000Y-86866324D01*
X143472678Y-86870000D01*
X142943711Y-86870000D01*
X142899774Y-86826063D01*
X142730256Y-86712795D01*
X142541898Y-86634774D01*
X142341939Y-86595000D01*
X142138061Y-86595000D01*
X141938102Y-86634774D01*
X141749744Y-86712795D01*
X141580226Y-86826063D01*
X141536289Y-86870000D01*
X124594802Y-86870000D01*
X121680787Y-83955986D01*
X121848932Y-83751101D01*
X121920000Y-83618142D01*
X121991068Y-83751100D01*
X122170392Y-83969607D01*
X122388899Y-84148932D01*
X122451061Y-84182158D01*
X122484454Y-84292246D01*
X122555026Y-84424276D01*
X122626201Y-84511002D01*
X122650000Y-84540001D01*
X122678998Y-84563799D01*
X123716201Y-85601003D01*
X123739999Y-85630001D01*
X123855724Y-85724974D01*
X123987753Y-85795546D01*
X124131014Y-85839003D01*
X124242667Y-85850000D01*
X124242675Y-85850000D01*
X124280000Y-85853676D01*
X124317325Y-85850000D01*
X144742678Y-85850000D01*
X144780000Y-85853676D01*
X144817322Y-85850000D01*
X144817333Y-85850000D01*
X144928986Y-85839003D01*
X145072247Y-85795546D01*
X145204276Y-85724974D01*
X145320001Y-85630001D01*
X145343804Y-85600997D01*
X147831009Y-83113794D01*
X147860001Y-83090001D01*
X147883795Y-83061008D01*
X147883799Y-83061004D01*
X147954973Y-82974277D01*
X147954974Y-82974276D01*
X148025546Y-82842247D01*
X148069003Y-82698986D01*
X148080000Y-82587333D01*
X148080000Y-82587324D01*
X148083676Y-82550001D01*
X148080000Y-82512678D01*
X148080000Y-73785000D01*
X150895683Y-73785000D01*
X150850241Y-73815363D01*
X150850241Y-73815363D01*
G37*
X150850241Y-73815363D02*
X150650363Y-74015241D01*
X150493320Y-74250273D01*
X150385147Y-74511426D01*
X150330000Y-74788665D01*
X150330000Y-75071335D01*
X150385147Y-75348574D01*
X150493320Y-75609727D01*
X150650363Y-75844759D01*
X150850241Y-76044637D01*
X151005000Y-76148043D01*
X151005000Y-76162668D01*
X151005001Y-77294038D01*
X151001324Y-77331370D01*
X151005001Y-77368703D01*
X151014976Y-77469974D01*
X151015998Y-77480355D01*
X151059454Y-77623616D01*
X151130026Y-77755646D01*
X151201201Y-77842372D01*
X151225000Y-77871371D01*
X151253998Y-77895169D01*
X153545000Y-80186173D01*
X153545001Y-90875199D01*
X151073551Y-88403750D01*
X151192182Y-88181808D01*
X151274236Y-87911309D01*
X151301943Y-87630000D01*
X151274236Y-87348691D01*
X151192182Y-87078192D01*
X151058932Y-86828899D01*
X150879608Y-86610392D01*
X150661101Y-86431068D01*
X150528142Y-86360000D01*
X150661101Y-86288932D01*
X150879608Y-86109608D01*
X151058932Y-85891101D01*
X151192182Y-85641808D01*
X151274236Y-85371309D01*
X151301943Y-85090000D01*
X151274236Y-84808691D01*
X151192182Y-84538192D01*
X151058932Y-84288899D01*
X150879608Y-84070392D01*
X150661101Y-83891068D01*
X150528142Y-83820000D01*
X150661101Y-83748932D01*
X150879608Y-83569608D01*
X151058932Y-83351101D01*
X151192182Y-83101808D01*
X151274236Y-82831309D01*
X151301943Y-82550000D01*
X151274236Y-82268691D01*
X151192182Y-81998192D01*
X151058932Y-81748899D01*
X150879608Y-81530392D01*
X150766518Y-81437581D01*
X150784482Y-81435812D01*
X150904180Y-81399502D01*
X151014494Y-81340537D01*
X151111185Y-81261185D01*
X151190537Y-81164494D01*
X151249502Y-81054180D01*
X151285812Y-80934482D01*
X151298072Y-80810000D01*
X151298072Y-79210000D01*
X151285812Y-79085518D01*
X151249502Y-78965820D01*
X151190537Y-78855506D01*
X151111185Y-78758815D01*
X151014494Y-78679463D01*
X150904180Y-78620498D01*
X150784482Y-78584188D01*
X150660000Y-78571928D01*
X149060000Y-78571928D01*
X148935518Y-78584188D01*
X148815820Y-78620498D01*
X148705506Y-78679463D01*
X148608815Y-78758815D01*
X148529463Y-78855506D01*
X148470498Y-78965820D01*
X148434188Y-79085518D01*
X148421928Y-79210000D01*
X148421928Y-80810000D01*
X148434188Y-80934482D01*
X148470498Y-81054180D01*
X148529463Y-81164494D01*
X148608815Y-81261185D01*
X148705506Y-81340537D01*
X148815820Y-81399502D01*
X148935518Y-81435812D01*
X148953482Y-81437581D01*
X148840392Y-81530392D01*
X148661068Y-81748899D01*
X148527818Y-81998192D01*
X148445764Y-82268691D01*
X148418057Y-82550000D01*
X148445764Y-82831309D01*
X148527818Y-83101808D01*
X148661068Y-83351101D01*
X148840392Y-83569608D01*
X149058899Y-83748932D01*
X149191858Y-83820000D01*
X149058899Y-83891068D01*
X148840392Y-84070392D01*
X148661068Y-84288899D01*
X148527818Y-84538192D01*
X148445764Y-84808691D01*
X148418057Y-85090000D01*
X148445764Y-85371309D01*
X148527818Y-85641808D01*
X148661068Y-85891101D01*
X148840392Y-86109608D01*
X149058899Y-86288932D01*
X149191858Y-86360000D01*
X149058899Y-86431068D01*
X148840392Y-86610392D01*
X148661068Y-86828899D01*
X148527818Y-87078192D01*
X148445764Y-87348691D01*
X148418057Y-87630000D01*
X148445764Y-87911309D01*
X148515136Y-88140000D01*
X148269802Y-88140000D01*
X146613804Y-86484003D01*
X146590001Y-86454999D01*
X146474276Y-86360026D01*
X146342247Y-86289454D01*
X146198986Y-86245997D01*
X146122139Y-86238428D01*
X146074774Y-86191063D01*
X145905256Y-86077795D01*
X145716898Y-85999774D01*
X145516939Y-85960000D01*
X145313061Y-85960000D01*
X145113102Y-85999774D01*
X144924744Y-86077795D01*
X144755226Y-86191063D01*
X144611063Y-86335226D01*
X144497795Y-86504744D01*
X144419774Y-86693102D01*
X144380000Y-86893061D01*
X144380000Y-87096939D01*
X144419774Y-87296898D01*
X144497795Y-87485256D01*
X144611063Y-87654774D01*
X144755226Y-87798937D01*
X144924744Y-87912205D01*
X145113102Y-87990226D01*
X145313061Y-88030000D01*
X145516939Y-88030000D01*
X145716898Y-87990226D01*
X145896168Y-87915969D01*
X147391200Y-89411002D01*
X147414999Y-89440001D01*
X147530724Y-89534974D01*
X147662753Y-89605546D01*
X147806014Y-89649003D01*
X147917667Y-89660000D01*
X147917677Y-89660000D01*
X147955000Y-89663676D01*
X147992323Y-89660000D01*
X148515136Y-89660000D01*
X148445764Y-89888691D01*
X148418057Y-90170000D01*
X148445764Y-90451309D01*
X148527818Y-90721808D01*
X148661068Y-90971101D01*
X148807887Y-91150001D01*
X148104804Y-91150001D01*
X144073804Y-87119003D01*
X144050001Y-87089999D01*
X143934276Y-86995026D01*
X143802247Y-86924454D01*
X143658986Y-86880997D01*
X143547333Y-86870000D01*
X143547322Y-86870000D01*
X143510000Y-86866324D01*
X143472678Y-86870000D01*
X142943711Y-86870000D01*
X142899774Y-86826063D01*
X142730256Y-86712795D01*
X142541898Y-86634774D01*
X142341939Y-86595000D01*
X142138061Y-86595000D01*
X141938102Y-86634774D01*
X141749744Y-86712795D01*
X141580226Y-86826063D01*
X141536289Y-86870000D01*
X124594802Y-86870000D01*
X121680787Y-83955986D01*
X121848932Y-83751101D01*
X121920000Y-83618142D01*
X121991068Y-83751100D01*
X122170392Y-83969607D01*
X122388899Y-84148932D01*
X122451061Y-84182158D01*
X122484454Y-84292246D01*
X122555026Y-84424276D01*
X122626201Y-84511002D01*
X122650000Y-84540001D01*
X122678998Y-84563799D01*
X123716201Y-85601003D01*
X123739999Y-85630001D01*
X123855724Y-85724974D01*
X123987753Y-85795546D01*
X124131014Y-85839003D01*
X124242667Y-85850000D01*
X124242675Y-85850000D01*
X124280000Y-85853676D01*
X124317325Y-85850000D01*
X144742678Y-85850000D01*
X144780000Y-85853676D01*
X144817322Y-85850000D01*
X144817333Y-85850000D01*
X144928986Y-85839003D01*
X145072247Y-85795546D01*
X145204276Y-85724974D01*
X145320001Y-85630001D01*
X145343804Y-85600997D01*
X147831009Y-83113794D01*
X147860001Y-83090001D01*
X147883795Y-83061008D01*
X147883799Y-83061004D01*
X147954973Y-82974277D01*
X147954974Y-82974276D01*
X148025546Y-82842247D01*
X148069003Y-82698986D01*
X148080000Y-82587333D01*
X148080000Y-82587324D01*
X148083676Y-82550001D01*
X148080000Y-82512678D01*
X148080000Y-73785000D01*
X150895683Y-73785000D01*
X150850241Y-73815363D01*
G36*
X156460392Y-88649608D02*
G01*
X156678899Y-88828932D01*
X156811858Y-88900000D01*
X156678899Y-88971068D01*
X156460392Y-89150392D01*
X156335000Y-89303183D01*
X156335000Y-88496817D01*
X156460392Y-88649608D01*
X156460392Y-88649608D01*
G37*
X156460392Y-88649608D02*
X156678899Y-88828932D01*
X156811858Y-88900000D01*
X156678899Y-88971068D01*
X156460392Y-89150392D01*
X156335000Y-89303183D01*
X156335000Y-88496817D01*
X156460392Y-88649608D01*
G36*
X156460392Y-86109608D02*
G01*
X156678899Y-86288932D01*
X156811858Y-86360000D01*
X156678899Y-86431068D01*
X156460392Y-86610392D01*
X156335000Y-86763183D01*
X156335000Y-85956817D01*
X156460392Y-86109608D01*
X156460392Y-86109608D01*
G37*
X156460392Y-86109608D02*
X156678899Y-86288932D01*
X156811858Y-86360000D01*
X156678899Y-86431068D01*
X156460392Y-86610392D01*
X156335000Y-86763183D01*
X156335000Y-85956817D01*
X156460392Y-86109608D01*
G36*
X142084188Y-83874482D02*
G01*
X142120498Y-83994180D01*
X142179463Y-84104494D01*
X142258815Y-84201185D01*
X142355506Y-84280537D01*
X142448043Y-84330000D01*
X141364170Y-84330000D01*
X141521807Y-84282182D01*
X141771100Y-84148932D01*
X141989607Y-83969608D01*
X142082419Y-83856517D01*
X142084188Y-83874482D01*
X142084188Y-83874482D01*
G37*
X142084188Y-83874482D02*
X142120498Y-83994180D01*
X142179463Y-84104494D01*
X142258815Y-84201185D01*
X142355506Y-84280537D01*
X142448043Y-84330000D01*
X141364170Y-84330000D01*
X141521807Y-84282182D01*
X141771100Y-84148932D01*
X141989607Y-83969608D01*
X142082419Y-83856517D01*
X142084188Y-83874482D01*
G36*
X129611068Y-83751100D02*
G01*
X129790392Y-83969607D01*
X130008899Y-84148932D01*
X130258192Y-84282182D01*
X130415829Y-84330000D01*
X128664170Y-84330000D01*
X128821807Y-84282182D01*
X129071100Y-84148932D01*
X129289607Y-83969608D01*
X129468932Y-83751101D01*
X129540000Y-83618142D01*
X129611068Y-83751100D01*
X129611068Y-83751100D01*
G37*
X129611068Y-83751100D02*
X129790392Y-83969607D01*
X130008899Y-84148932D01*
X130258192Y-84282182D01*
X130415829Y-84330000D01*
X128664170Y-84330000D01*
X128821807Y-84282182D01*
X129071100Y-84148932D01*
X129289607Y-83969608D01*
X129468932Y-83751101D01*
X129540000Y-83618142D01*
X129611068Y-83751100D01*
G36*
X124531068Y-83751100D02*
G01*
X124710392Y-83969607D01*
X124928899Y-84148932D01*
X125178192Y-84282182D01*
X125335829Y-84330000D01*
X124594802Y-84330000D01*
X124220787Y-83955985D01*
X124388932Y-83751101D01*
X124460000Y-83618142D01*
X124531068Y-83751100D01*
X124531068Y-83751100D01*
G37*
X124531068Y-83751100D02*
X124710392Y-83969607D01*
X124928899Y-84148932D01*
X125178192Y-84282182D01*
X125335829Y-84330000D01*
X124594802Y-84330000D01*
X124220787Y-83955985D01*
X124388932Y-83751101D01*
X124460000Y-83618142D01*
X124531068Y-83751100D01*
G36*
X127071068Y-83751100D02*
G01*
X127250392Y-83969607D01*
X127468899Y-84148932D01*
X127718192Y-84282182D01*
X127875829Y-84330000D01*
X126124170Y-84330000D01*
X126281807Y-84282182D01*
X126531100Y-84148932D01*
X126749607Y-83969608D01*
X126928932Y-83751101D01*
X127000000Y-83618142D01*
X127071068Y-83751100D01*
X127071068Y-83751100D01*
G37*
X127071068Y-83751100D02*
X127250392Y-83969607D01*
X127468899Y-84148932D01*
X127718192Y-84282182D01*
X127875829Y-84330000D01*
X126124170Y-84330000D01*
X126281807Y-84282182D01*
X126531100Y-84148932D01*
X126749607Y-83969608D01*
X126928932Y-83751101D01*
X127000000Y-83618142D01*
X127071068Y-83751100D01*
G36*
X132151068Y-83751100D02*
G01*
X132330392Y-83969607D01*
X132548899Y-84148932D01*
X132798192Y-84282182D01*
X132955829Y-84330000D01*
X131204170Y-84330000D01*
X131361807Y-84282182D01*
X131611100Y-84148932D01*
X131829607Y-83969608D01*
X132008932Y-83751101D01*
X132080000Y-83618142D01*
X132151068Y-83751100D01*
X132151068Y-83751100D01*
G37*
X132151068Y-83751100D02*
X132330392Y-83969607D01*
X132548899Y-84148932D01*
X132798192Y-84282182D01*
X132955829Y-84330000D01*
X131204170Y-84330000D01*
X131361807Y-84282182D01*
X131611100Y-84148932D01*
X131829607Y-83969608D01*
X132008932Y-83751101D01*
X132080000Y-83618142D01*
X132151068Y-83751100D01*
G36*
X137231068Y-83751100D02*
G01*
X137410392Y-83969607D01*
X137628899Y-84148932D01*
X137878192Y-84282182D01*
X138035829Y-84330000D01*
X136284170Y-84330000D01*
X136441807Y-84282182D01*
X136691100Y-84148932D01*
X136909607Y-83969608D01*
X137088932Y-83751101D01*
X137160000Y-83618142D01*
X137231068Y-83751100D01*
X137231068Y-83751100D01*
G37*
X137231068Y-83751100D02*
X137410392Y-83969607D01*
X137628899Y-84148932D01*
X137878192Y-84282182D01*
X138035829Y-84330000D01*
X136284170Y-84330000D01*
X136441807Y-84282182D01*
X136691100Y-84148932D01*
X136909607Y-83969608D01*
X137088932Y-83751101D01*
X137160000Y-83618142D01*
X137231068Y-83751100D01*
G36*
X134691068Y-83751100D02*
G01*
X134870392Y-83969607D01*
X135088899Y-84148932D01*
X135338192Y-84282182D01*
X135495829Y-84330000D01*
X133744170Y-84330000D01*
X133901807Y-84282182D01*
X134151100Y-84148932D01*
X134369607Y-83969608D01*
X134548932Y-83751101D01*
X134620000Y-83618142D01*
X134691068Y-83751100D01*
X134691068Y-83751100D01*
G37*
X134691068Y-83751100D02*
X134870392Y-83969607D01*
X135088899Y-84148932D01*
X135338192Y-84282182D01*
X135495829Y-84330000D01*
X133744170Y-84330000D01*
X133901807Y-84282182D01*
X134151100Y-84148932D01*
X134369607Y-83969608D01*
X134548932Y-83751101D01*
X134620000Y-83618142D01*
X134691068Y-83751100D01*
G36*
X139771068Y-83751100D02*
G01*
X139950392Y-83969607D01*
X140168899Y-84148932D01*
X140418192Y-84282182D01*
X140575829Y-84330000D01*
X138824170Y-84330000D01*
X138981807Y-84282182D01*
X139231100Y-84148932D01*
X139449607Y-83969608D01*
X139628932Y-83751101D01*
X139700000Y-83618142D01*
X139771068Y-83751100D01*
X139771068Y-83751100D01*
G37*
X139771068Y-83751100D02*
X139950392Y-83969607D01*
X140168899Y-84148932D01*
X140418192Y-84282182D01*
X140575829Y-84330000D01*
X138824170Y-84330000D01*
X138981807Y-84282182D01*
X139231100Y-84148932D01*
X139449607Y-83969608D01*
X139628932Y-83751101D01*
X139700000Y-83618142D01*
X139771068Y-83751100D01*
G36*
X156460392Y-83569608D02*
G01*
X156678899Y-83748932D01*
X156811858Y-83820000D01*
X156678899Y-83891068D01*
X156460392Y-84070392D01*
X156335000Y-84223183D01*
X156335000Y-83416817D01*
X156460392Y-83569608D01*
X156460392Y-83569608D01*
G37*
X156460392Y-83569608D02*
X156678899Y-83748932D01*
X156811858Y-83820000D01*
X156678899Y-83891068D01*
X156460392Y-84070392D01*
X156335000Y-84223183D01*
X156335000Y-83416817D01*
X156460392Y-83569608D01*
G36*
X143004000Y-70701678D02*
G01*
X143000324Y-70739000D01*
X143004000Y-70776322D01*
X143004000Y-70776333D01*
X143014997Y-70887986D01*
X143037146Y-70961000D01*
X143058454Y-71031246D01*
X143129026Y-71163276D01*
X143195274Y-71243998D01*
X143224000Y-71279001D01*
X143252998Y-71302799D01*
X145486200Y-73536002D01*
X145509999Y-73565001D01*
X145625724Y-73659974D01*
X145757753Y-73730546D01*
X145901014Y-73774003D01*
X146012667Y-73785000D01*
X146012676Y-73785000D01*
X146049999Y-73788676D01*
X146087322Y-73785000D01*
X146560000Y-73785000D01*
X146560000Y-74332332D01*
X146560001Y-74332342D01*
X146560000Y-82235197D01*
X144937461Y-83857737D01*
X144948072Y-83750000D01*
X144948072Y-81350000D01*
X144935812Y-81225518D01*
X144899502Y-81105820D01*
X144840537Y-80995506D01*
X144761185Y-80898815D01*
X144664494Y-80819463D01*
X144554180Y-80760498D01*
X144434482Y-80724188D01*
X144310000Y-80711928D01*
X142710000Y-80711928D01*
X142585518Y-80724188D01*
X142465820Y-80760498D01*
X142355506Y-80819463D01*
X142258815Y-80898815D01*
X142179463Y-80995506D01*
X142120498Y-81105820D01*
X142084188Y-81225518D01*
X142082419Y-81243482D01*
X141989608Y-81130392D01*
X141771101Y-80951068D01*
X141521808Y-80817818D01*
X141251309Y-80735764D01*
X140970000Y-80708057D01*
X140688692Y-80735764D01*
X140418193Y-80817818D01*
X140168900Y-80951068D01*
X139950393Y-81130392D01*
X139771068Y-81348899D01*
X139700000Y-81481858D01*
X139628932Y-81348899D01*
X139449608Y-81130392D01*
X139231101Y-80951068D01*
X138981808Y-80817818D01*
X138711309Y-80735764D01*
X138430000Y-80708057D01*
X138148692Y-80735764D01*
X137878193Y-80817818D01*
X137628900Y-80951068D01*
X137410393Y-81130392D01*
X137231068Y-81348899D01*
X137160000Y-81481858D01*
X137088932Y-81348899D01*
X136909608Y-81130392D01*
X136691101Y-80951068D01*
X136670008Y-80939793D01*
X140374802Y-77235000D01*
X140436939Y-77235000D01*
X140636898Y-77195226D01*
X140825256Y-77117205D01*
X140994774Y-77003937D01*
X141038711Y-76960000D01*
X144711289Y-76960000D01*
X144755226Y-77003937D01*
X144924744Y-77117205D01*
X145113102Y-77195226D01*
X145313061Y-77235000D01*
X145516939Y-77235000D01*
X145716898Y-77195226D01*
X145905256Y-77117205D01*
X146074774Y-77003937D01*
X146218937Y-76859774D01*
X146332205Y-76690256D01*
X146410226Y-76501898D01*
X146450000Y-76301939D01*
X146450000Y-76098061D01*
X146410226Y-75898102D01*
X146332205Y-75709744D01*
X146218937Y-75540226D01*
X146074774Y-75396063D01*
X145905256Y-75282795D01*
X145716898Y-75204774D01*
X145516939Y-75165000D01*
X145313061Y-75165000D01*
X145113102Y-75204774D01*
X144924744Y-75282795D01*
X144755226Y-75396063D01*
X144711289Y-75440000D01*
X141038711Y-75440000D01*
X140994774Y-75396063D01*
X140825256Y-75282795D01*
X140636898Y-75204774D01*
X140436939Y-75165000D01*
X140233061Y-75165000D01*
X140033102Y-75204774D01*
X139844744Y-75282795D01*
X139675226Y-75396063D01*
X139531063Y-75540226D01*
X139417795Y-75709744D01*
X139339774Y-75898102D01*
X139300000Y-76098061D01*
X139300000Y-76160198D01*
X135575199Y-79885000D01*
X133914802Y-79885000D01*
X134138832Y-79660969D01*
X134318102Y-79735226D01*
X134518061Y-79775000D01*
X134721939Y-79775000D01*
X134921898Y-79735226D01*
X135110256Y-79657205D01*
X135279774Y-79543937D01*
X135423937Y-79399774D01*
X135537205Y-79230256D01*
X135615226Y-79041898D01*
X135655000Y-78841939D01*
X135655000Y-78638061D01*
X135615226Y-78438102D01*
X135537205Y-78249744D01*
X135524013Y-78230000D01*
X136487678Y-78230000D01*
X136525000Y-78233676D01*
X136562322Y-78230000D01*
X136562333Y-78230000D01*
X136673986Y-78219003D01*
X136817247Y-78175546D01*
X136949276Y-78104974D01*
X137065001Y-78010001D01*
X137088804Y-77980997D01*
X140719004Y-74350798D01*
X140748001Y-74327001D01*
X140842974Y-74211276D01*
X140913546Y-74079247D01*
X140957003Y-73935986D01*
X140968000Y-73824333D01*
X140968000Y-73824332D01*
X140971677Y-73787000D01*
X140968000Y-73749667D01*
X140968000Y-70612000D01*
X143004000Y-70612000D01*
X143004000Y-70701678D01*
X143004000Y-70701678D01*
G37*
X143004000Y-70701678D02*
X143000324Y-70739000D01*
X143004000Y-70776322D01*
X143004000Y-70776333D01*
X143014997Y-70887986D01*
X143037146Y-70961000D01*
X143058454Y-71031246D01*
X143129026Y-71163276D01*
X143195274Y-71243998D01*
X143224000Y-71279001D01*
X143252998Y-71302799D01*
X145486200Y-73536002D01*
X145509999Y-73565001D01*
X145625724Y-73659974D01*
X145757753Y-73730546D01*
X145901014Y-73774003D01*
X146012667Y-73785000D01*
X146012676Y-73785000D01*
X146049999Y-73788676D01*
X146087322Y-73785000D01*
X146560000Y-73785000D01*
X146560000Y-74332332D01*
X146560001Y-74332342D01*
X146560000Y-82235197D01*
X144937461Y-83857737D01*
X144948072Y-83750000D01*
X144948072Y-81350000D01*
X144935812Y-81225518D01*
X144899502Y-81105820D01*
X144840537Y-80995506D01*
X144761185Y-80898815D01*
X144664494Y-80819463D01*
X144554180Y-80760498D01*
X144434482Y-80724188D01*
X144310000Y-80711928D01*
X142710000Y-80711928D01*
X142585518Y-80724188D01*
X142465820Y-80760498D01*
X142355506Y-80819463D01*
X142258815Y-80898815D01*
X142179463Y-80995506D01*
X142120498Y-81105820D01*
X142084188Y-81225518D01*
X142082419Y-81243482D01*
X141989608Y-81130392D01*
X141771101Y-80951068D01*
X141521808Y-80817818D01*
X141251309Y-80735764D01*
X140970000Y-80708057D01*
X140688692Y-80735764D01*
X140418193Y-80817818D01*
X140168900Y-80951068D01*
X139950393Y-81130392D01*
X139771068Y-81348899D01*
X139700000Y-81481858D01*
X139628932Y-81348899D01*
X139449608Y-81130392D01*
X139231101Y-80951068D01*
X138981808Y-80817818D01*
X138711309Y-80735764D01*
X138430000Y-80708057D01*
X138148692Y-80735764D01*
X137878193Y-80817818D01*
X137628900Y-80951068D01*
X137410393Y-81130392D01*
X137231068Y-81348899D01*
X137160000Y-81481858D01*
X137088932Y-81348899D01*
X136909608Y-81130392D01*
X136691101Y-80951068D01*
X136670008Y-80939793D01*
X140374802Y-77235000D01*
X140436939Y-77235000D01*
X140636898Y-77195226D01*
X140825256Y-77117205D01*
X140994774Y-77003937D01*
X141038711Y-76960000D01*
X144711289Y-76960000D01*
X144755226Y-77003937D01*
X144924744Y-77117205D01*
X145113102Y-77195226D01*
X145313061Y-77235000D01*
X145516939Y-77235000D01*
X145716898Y-77195226D01*
X145905256Y-77117205D01*
X146074774Y-77003937D01*
X146218937Y-76859774D01*
X146332205Y-76690256D01*
X146410226Y-76501898D01*
X146450000Y-76301939D01*
X146450000Y-76098061D01*
X146410226Y-75898102D01*
X146332205Y-75709744D01*
X146218937Y-75540226D01*
X146074774Y-75396063D01*
X145905256Y-75282795D01*
X145716898Y-75204774D01*
X145516939Y-75165000D01*
X145313061Y-75165000D01*
X145113102Y-75204774D01*
X144924744Y-75282795D01*
X144755226Y-75396063D01*
X144711289Y-75440000D01*
X141038711Y-75440000D01*
X140994774Y-75396063D01*
X140825256Y-75282795D01*
X140636898Y-75204774D01*
X140436939Y-75165000D01*
X140233061Y-75165000D01*
X140033102Y-75204774D01*
X139844744Y-75282795D01*
X139675226Y-75396063D01*
X139531063Y-75540226D01*
X139417795Y-75709744D01*
X139339774Y-75898102D01*
X139300000Y-76098061D01*
X139300000Y-76160198D01*
X135575199Y-79885000D01*
X133914802Y-79885000D01*
X134138832Y-79660969D01*
X134318102Y-79735226D01*
X134518061Y-79775000D01*
X134721939Y-79775000D01*
X134921898Y-79735226D01*
X135110256Y-79657205D01*
X135279774Y-79543937D01*
X135423937Y-79399774D01*
X135537205Y-79230256D01*
X135615226Y-79041898D01*
X135655000Y-78841939D01*
X135655000Y-78638061D01*
X135615226Y-78438102D01*
X135537205Y-78249744D01*
X135524013Y-78230000D01*
X136487678Y-78230000D01*
X136525000Y-78233676D01*
X136562322Y-78230000D01*
X136562333Y-78230000D01*
X136673986Y-78219003D01*
X136817247Y-78175546D01*
X136949276Y-78104974D01*
X137065001Y-78010001D01*
X137088804Y-77980997D01*
X140719004Y-74350798D01*
X140748001Y-74327001D01*
X140842974Y-74211276D01*
X140913546Y-74079247D01*
X140957003Y-73935986D01*
X140968000Y-73824333D01*
X140968000Y-73824332D01*
X140971677Y-73787000D01*
X140968000Y-73749667D01*
X140968000Y-70612000D01*
X143004000Y-70612000D01*
X143004000Y-70701678D01*
G36*
X156460392Y-81029608D02*
G01*
X156678899Y-81208932D01*
X156811858Y-81280000D01*
X156678899Y-81351068D01*
X156460392Y-81530392D01*
X156335000Y-81683183D01*
X156335000Y-80876817D01*
X156460392Y-81029608D01*
X156460392Y-81029608D01*
G37*
X156460392Y-81029608D02*
X156678899Y-81208932D01*
X156811858Y-81280000D01*
X156678899Y-81351068D01*
X156460392Y-81530392D01*
X156335000Y-81683183D01*
X156335000Y-80876817D01*
X156460392Y-81029608D01*
G36*
X120159744Y-79657205D02*
G01*
X120348102Y-79735226D01*
X120548061Y-79775000D01*
X120610199Y-79775000D01*
X121991201Y-81156003D01*
X122014999Y-81185001D01*
X122081074Y-81239227D01*
X121991068Y-81348899D01*
X121920000Y-81481858D01*
X121848932Y-81348899D01*
X121669608Y-81130392D01*
X121451101Y-80951068D01*
X121201808Y-80817818D01*
X120931309Y-80735764D01*
X120650000Y-80708057D01*
X120368692Y-80735764D01*
X120140000Y-80805136D01*
X120140000Y-79644013D01*
X120159744Y-79657205D01*
X120159744Y-79657205D01*
G37*
X120159744Y-79657205D02*
X120348102Y-79735226D01*
X120548061Y-79775000D01*
X120610199Y-79775000D01*
X121991201Y-81156003D01*
X122014999Y-81185001D01*
X122081074Y-81239227D01*
X121991068Y-81348899D01*
X121920000Y-81481858D01*
X121848932Y-81348899D01*
X121669608Y-81130392D01*
X121451101Y-80951068D01*
X121201808Y-80817818D01*
X120931309Y-80735764D01*
X120650000Y-80708057D01*
X120368692Y-80735764D01*
X120140000Y-80805136D01*
X120140000Y-79644013D01*
X120159744Y-79657205D01*
G36*
X124460000Y-81481858D02*
G01*
X124418919Y-81405000D01*
X124501081Y-81405000D01*
X124460000Y-81481858D01*
X124460000Y-81481858D01*
G37*
X124460000Y-81481858D02*
X124418919Y-81405000D01*
X124501081Y-81405000D01*
X124460000Y-81481858D01*
G36*
X134620000Y-81481858D02*
G01*
X134578919Y-81405000D01*
X134661081Y-81405000D01*
X134620000Y-81481858D01*
X134620000Y-81481858D01*
G37*
X134620000Y-81481858D02*
X134578919Y-81405000D01*
X134661081Y-81405000D01*
X134620000Y-81481858D01*
G36*
X107444000Y-72606677D02*
G01*
X107440324Y-72644000D01*
X107444000Y-72681322D01*
X107444000Y-72681332D01*
X107454997Y-72792985D01*
X107496560Y-72930001D01*
X107498454Y-72936246D01*
X107569026Y-73068276D01*
X107608871Y-73116826D01*
X107663999Y-73184001D01*
X107693002Y-73207803D01*
X107867500Y-73382301D01*
X107867500Y-73444439D01*
X107907274Y-73644398D01*
X107985295Y-73832756D01*
X108098563Y-74002274D01*
X108242726Y-74146437D01*
X108412244Y-74259705D01*
X108600602Y-74337726D01*
X108800561Y-74377500D01*
X109004439Y-74377500D01*
X109204398Y-74337726D01*
X109392756Y-74259705D01*
X109562274Y-74146437D01*
X109706437Y-74002274D01*
X109819705Y-73832756D01*
X109897726Y-73644398D01*
X109937500Y-73444439D01*
X109937500Y-73240561D01*
X109897726Y-73040602D01*
X109819705Y-72852244D01*
X109706437Y-72682726D01*
X109562274Y-72538563D01*
X109392756Y-72425295D01*
X109204398Y-72347274D01*
X109004439Y-72307500D01*
X108964000Y-72307500D01*
X108964000Y-70612000D01*
X111000000Y-70612000D01*
X111000000Y-73345197D01*
X108708998Y-75636201D01*
X108680000Y-75659999D01*
X108656202Y-75688997D01*
X108656201Y-75688998D01*
X108585026Y-75775724D01*
X108514454Y-75907754D01*
X108493298Y-75977499D01*
X108470998Y-76051014D01*
X108466841Y-76093224D01*
X108456324Y-76200000D01*
X108460001Y-76237332D01*
X108460000Y-80805136D01*
X108231309Y-80735764D01*
X107950000Y-80708057D01*
X107668692Y-80735764D01*
X107398193Y-80817818D01*
X107148900Y-80951068D01*
X106930393Y-81130392D01*
X106751068Y-81348899D01*
X106680000Y-81481858D01*
X106608932Y-81348899D01*
X106429608Y-81130392D01*
X106211101Y-80951068D01*
X105961808Y-80817818D01*
X105691309Y-80735764D01*
X105410000Y-80708057D01*
X105128692Y-80735764D01*
X104858193Y-80817818D01*
X104608900Y-80951068D01*
X104392000Y-81129073D01*
X104392000Y-71942801D01*
X105159004Y-71175798D01*
X105188001Y-71152001D01*
X105240526Y-71087999D01*
X105282974Y-71036277D01*
X105353546Y-70904247D01*
X105361205Y-70878997D01*
X105397003Y-70760986D01*
X105408000Y-70649333D01*
X105408000Y-70649323D01*
X105411676Y-70612000D01*
X107444000Y-70612000D01*
X107444000Y-72606677D01*
X107444000Y-72606677D01*
G37*
X107444000Y-72606677D02*
X107440324Y-72644000D01*
X107444000Y-72681322D01*
X107444000Y-72681332D01*
X107454997Y-72792985D01*
X107496560Y-72930001D01*
X107498454Y-72936246D01*
X107569026Y-73068276D01*
X107608871Y-73116826D01*
X107663999Y-73184001D01*
X107693002Y-73207803D01*
X107867500Y-73382301D01*
X107867500Y-73444439D01*
X107907274Y-73644398D01*
X107985295Y-73832756D01*
X108098563Y-74002274D01*
X108242726Y-74146437D01*
X108412244Y-74259705D01*
X108600602Y-74337726D01*
X108800561Y-74377500D01*
X109004439Y-74377500D01*
X109204398Y-74337726D01*
X109392756Y-74259705D01*
X109562274Y-74146437D01*
X109706437Y-74002274D01*
X109819705Y-73832756D01*
X109897726Y-73644398D01*
X109937500Y-73444439D01*
X109937500Y-73240561D01*
X109897726Y-73040602D01*
X109819705Y-72852244D01*
X109706437Y-72682726D01*
X109562274Y-72538563D01*
X109392756Y-72425295D01*
X109204398Y-72347274D01*
X109004439Y-72307500D01*
X108964000Y-72307500D01*
X108964000Y-70612000D01*
X111000000Y-70612000D01*
X111000000Y-73345197D01*
X108708998Y-75636201D01*
X108680000Y-75659999D01*
X108656202Y-75688997D01*
X108656201Y-75688998D01*
X108585026Y-75775724D01*
X108514454Y-75907754D01*
X108493298Y-75977499D01*
X108470998Y-76051014D01*
X108466841Y-76093224D01*
X108456324Y-76200000D01*
X108460001Y-76237332D01*
X108460000Y-80805136D01*
X108231309Y-80735764D01*
X107950000Y-80708057D01*
X107668692Y-80735764D01*
X107398193Y-80817818D01*
X107148900Y-80951068D01*
X106930393Y-81130392D01*
X106751068Y-81348899D01*
X106680000Y-81481858D01*
X106608932Y-81348899D01*
X106429608Y-81130392D01*
X106211101Y-80951068D01*
X105961808Y-80817818D01*
X105691309Y-80735764D01*
X105410000Y-80708057D01*
X105128692Y-80735764D01*
X104858193Y-80817818D01*
X104608900Y-80951068D01*
X104392000Y-81129073D01*
X104392000Y-71942801D01*
X105159004Y-71175798D01*
X105188001Y-71152001D01*
X105240526Y-71087999D01*
X105282974Y-71036277D01*
X105353546Y-70904247D01*
X105361205Y-70878997D01*
X105397003Y-70760986D01*
X105408000Y-70649333D01*
X105408000Y-70649323D01*
X105411676Y-70612000D01*
X107444000Y-70612000D01*
X107444000Y-72606677D01*
G36*
X129540000Y-81481858D02*
G01*
X129498919Y-81405000D01*
X129581081Y-81405000D01*
X129540000Y-81481858D01*
X129540000Y-81481858D01*
G37*
X129540000Y-81481858D02*
X129498919Y-81405000D01*
X129581081Y-81405000D01*
X129540000Y-81481858D01*
G36*
X132080000Y-81481858D02*
G01*
X132038919Y-81405000D01*
X132121081Y-81405000D01*
X132080000Y-81481858D01*
X132080000Y-81481858D01*
G37*
X132080000Y-81481858D02*
X132038919Y-81405000D01*
X132121081Y-81405000D01*
X132080000Y-81481858D01*
G36*
X127000000Y-81481858D02*
G01*
X126958919Y-81405000D01*
X127041081Y-81405000D01*
X127000000Y-81481858D01*
X127000000Y-81481858D01*
G37*
X127000000Y-81481858D02*
X126958919Y-81405000D01*
X127041081Y-81405000D01*
X127000000Y-81481858D01*
G36*
X119504003Y-72461196D02*
G01*
X119474999Y-72484999D01*
X119419871Y-72552174D01*
X119380026Y-72600724D01*
X119336940Y-72681332D01*
X119309454Y-72732754D01*
X119265997Y-72876015D01*
X119255000Y-72987668D01*
X119255000Y-72987678D01*
X119251324Y-73025000D01*
X119255000Y-73062323D01*
X119255001Y-76520197D01*
X118870000Y-76905199D01*
X118870000Y-74998711D01*
X118913937Y-74954774D01*
X119027205Y-74785256D01*
X119105226Y-74596898D01*
X119145000Y-74396939D01*
X119145000Y-74193061D01*
X119105226Y-73993102D01*
X119027205Y-73804744D01*
X118913937Y-73635226D01*
X118769774Y-73491063D01*
X118600256Y-73377795D01*
X118411898Y-73299774D01*
X118211939Y-73260000D01*
X118008061Y-73260000D01*
X117808102Y-73299774D01*
X117619744Y-73377795D01*
X117450226Y-73491063D01*
X117306063Y-73635226D01*
X117192795Y-73804744D01*
X117114774Y-73993102D01*
X117075000Y-74193061D01*
X117075000Y-74396939D01*
X117114774Y-74596898D01*
X117192795Y-74785256D01*
X117306063Y-74954774D01*
X117350000Y-74998711D01*
X117350001Y-78702658D01*
X117350000Y-78702668D01*
X117350000Y-79295198D01*
X116329003Y-80316196D01*
X116299999Y-80339999D01*
X116244871Y-80407174D01*
X116205026Y-80455724D01*
X116154634Y-80550001D01*
X116134454Y-80587754D01*
X116090997Y-80731015D01*
X116083589Y-80806225D01*
X115851309Y-80735764D01*
X115570000Y-80708057D01*
X115288692Y-80735764D01*
X115060000Y-80805136D01*
X115060000Y-75244801D01*
X119383008Y-70921795D01*
X119412001Y-70898001D01*
X119435795Y-70869008D01*
X119435799Y-70869004D01*
X119506973Y-70782277D01*
X119506974Y-70782276D01*
X119577546Y-70650247D01*
X119589148Y-70612000D01*
X121353198Y-70612000D01*
X119504003Y-72461196D01*
X119504003Y-72461196D01*
G37*
X119504003Y-72461196D02*
X119474999Y-72484999D01*
X119419871Y-72552174D01*
X119380026Y-72600724D01*
X119336940Y-72681332D01*
X119309454Y-72732754D01*
X119265997Y-72876015D01*
X119255000Y-72987668D01*
X119255000Y-72987678D01*
X119251324Y-73025000D01*
X119255000Y-73062323D01*
X119255001Y-76520197D01*
X118870000Y-76905199D01*
X118870000Y-74998711D01*
X118913937Y-74954774D01*
X119027205Y-74785256D01*
X119105226Y-74596898D01*
X119145000Y-74396939D01*
X119145000Y-74193061D01*
X119105226Y-73993102D01*
X119027205Y-73804744D01*
X118913937Y-73635226D01*
X118769774Y-73491063D01*
X118600256Y-73377795D01*
X118411898Y-73299774D01*
X118211939Y-73260000D01*
X118008061Y-73260000D01*
X117808102Y-73299774D01*
X117619744Y-73377795D01*
X117450226Y-73491063D01*
X117306063Y-73635226D01*
X117192795Y-73804744D01*
X117114774Y-73993102D01*
X117075000Y-74193061D01*
X117075000Y-74396939D01*
X117114774Y-74596898D01*
X117192795Y-74785256D01*
X117306063Y-74954774D01*
X117350000Y-74998711D01*
X117350001Y-78702658D01*
X117350000Y-78702668D01*
X117350000Y-79295198D01*
X116329003Y-80316196D01*
X116299999Y-80339999D01*
X116244871Y-80407174D01*
X116205026Y-80455724D01*
X116154634Y-80550001D01*
X116134454Y-80587754D01*
X116090997Y-80731015D01*
X116083589Y-80806225D01*
X115851309Y-80735764D01*
X115570000Y-80708057D01*
X115288692Y-80735764D01*
X115060000Y-80805136D01*
X115060000Y-75244801D01*
X119383008Y-70921795D01*
X119412001Y-70898001D01*
X119435795Y-70869008D01*
X119435799Y-70869004D01*
X119506973Y-70782277D01*
X119506974Y-70782276D01*
X119577546Y-70650247D01*
X119589148Y-70612000D01*
X121353198Y-70612000D01*
X119504003Y-72461196D01*
G36*
X113789003Y-74366196D02*
G01*
X113759999Y-74389999D01*
X113707474Y-74454001D01*
X113665026Y-74505724D01*
X113599613Y-74628102D01*
X113594454Y-74637754D01*
X113550997Y-74781015D01*
X113540000Y-74892668D01*
X113540000Y-74892678D01*
X113536324Y-74930000D01*
X113540000Y-74967322D01*
X113540000Y-80805136D01*
X113311309Y-80735764D01*
X113030000Y-80708057D01*
X112748692Y-80735764D01*
X112520000Y-80805136D01*
X112520000Y-75371801D01*
X115827009Y-72064794D01*
X115856001Y-72041001D01*
X115879795Y-72012008D01*
X115879799Y-72012004D01*
X115950973Y-71925277D01*
X115950974Y-71925276D01*
X116021546Y-71793247D01*
X116065003Y-71649986D01*
X116076000Y-71538333D01*
X116076000Y-71538324D01*
X116079676Y-71501001D01*
X116076000Y-71463678D01*
X116076000Y-70612000D01*
X117543197Y-70612000D01*
X113789003Y-74366196D01*
X113789003Y-74366196D01*
G37*
X113789003Y-74366196D02*
X113759999Y-74389999D01*
X113707474Y-74454001D01*
X113665026Y-74505724D01*
X113599613Y-74628102D01*
X113594454Y-74637754D01*
X113550997Y-74781015D01*
X113540000Y-74892668D01*
X113540000Y-74892678D01*
X113536324Y-74930000D01*
X113540000Y-74967322D01*
X113540000Y-80805136D01*
X113311309Y-80735764D01*
X113030000Y-80708057D01*
X112748692Y-80735764D01*
X112520000Y-80805136D01*
X112520000Y-75371801D01*
X115827009Y-72064794D01*
X115856001Y-72041001D01*
X115879795Y-72012008D01*
X115879799Y-72012004D01*
X115950973Y-71925277D01*
X115950974Y-71925276D01*
X116021546Y-71793247D01*
X116065003Y-71649986D01*
X116076000Y-71538333D01*
X116076000Y-71538324D01*
X116079676Y-71501001D01*
X116076000Y-71463678D01*
X116076000Y-70612000D01*
X117543197Y-70612000D01*
X113789003Y-74366196D01*
G36*
X118620001Y-80805136D02*
G01*
X118391309Y-80735764D01*
X118110000Y-80708057D01*
X118084204Y-80710598D01*
X118620001Y-80174801D01*
X118620001Y-80805136D01*
X118620001Y-80805136D01*
G37*
X118620001Y-80805136D02*
X118391309Y-80735764D01*
X118110000Y-80708057D01*
X118084204Y-80710598D01*
X118620001Y-80174801D01*
X118620001Y-80805136D01*
G36*
X111000001Y-80805136D02*
G01*
X110771309Y-80735764D01*
X110490000Y-80708057D01*
X110208692Y-80735764D01*
X109980000Y-80805136D01*
X109980000Y-76514801D01*
X111000001Y-75494801D01*
X111000001Y-80805136D01*
X111000001Y-80805136D01*
G37*
X111000001Y-80805136D02*
X110771309Y-80735764D01*
X110490000Y-80708057D01*
X110208692Y-80735764D01*
X109980000Y-80805136D01*
X109980000Y-76514801D01*
X111000001Y-75494801D01*
X111000001Y-80805136D01*
G36*
X154815001Y-76514803D02*
G01*
X154815000Y-77432667D01*
X154815000Y-79306567D01*
X152525000Y-77016569D01*
X152525000Y-76148043D01*
X152679759Y-76044637D01*
X152879637Y-75844759D01*
X153036680Y-75609727D01*
X153144853Y-75348574D01*
X153200000Y-75071335D01*
X153200000Y-74899801D01*
X154815001Y-76514803D01*
X154815001Y-76514803D01*
G37*
X154815001Y-76514803D02*
X154815000Y-77432667D01*
X154815000Y-79306567D01*
X152525000Y-77016569D01*
X152525000Y-76148043D01*
X152679759Y-76044637D01*
X152879637Y-75844759D01*
X153036680Y-75609727D01*
X153144853Y-75348574D01*
X153200000Y-75071335D01*
X153200000Y-74899801D01*
X154815001Y-76514803D01*
G36*
X125224000Y-71336677D02*
G01*
X125220324Y-71374000D01*
X125224000Y-71411322D01*
X125224000Y-71411332D01*
X125234997Y-71522985D01*
X125270795Y-71640998D01*
X125278454Y-71666246D01*
X125349026Y-71798276D01*
X125371944Y-71826201D01*
X125443999Y-71914001D01*
X125473003Y-71937804D01*
X125801196Y-72265997D01*
X125824999Y-72295001D01*
X125940724Y-72389974D01*
X126072753Y-72460546D01*
X126122325Y-72475583D01*
X126082795Y-72534744D01*
X126004774Y-72723102D01*
X125965000Y-72923061D01*
X125965000Y-73126939D01*
X126004774Y-73326898D01*
X126082795Y-73515256D01*
X126196063Y-73684774D01*
X126240000Y-73728711D01*
X126240000Y-76237332D01*
X126240001Y-76237339D01*
X126240001Y-76766288D01*
X126196063Y-76810226D01*
X126082795Y-76979744D01*
X126004774Y-77168102D01*
X125965000Y-77368061D01*
X125965000Y-77571939D01*
X126004774Y-77771898D01*
X126082795Y-77960256D01*
X126122325Y-78019417D01*
X126072753Y-78034454D01*
X125940724Y-78105026D01*
X125824999Y-78199999D01*
X125801200Y-78228998D01*
X125690198Y-78340000D01*
X125628061Y-78340000D01*
X125428102Y-78379774D01*
X125239744Y-78457795D01*
X125070226Y-78571063D01*
X124926063Y-78715226D01*
X124812795Y-78884744D01*
X124734774Y-79073102D01*
X124699587Y-79250000D01*
X124139802Y-79250000D01*
X123315000Y-78425199D01*
X123315000Y-75633711D01*
X123358937Y-75589774D01*
X123472205Y-75420256D01*
X123550226Y-75231898D01*
X123590000Y-75031939D01*
X123590000Y-74828061D01*
X123550226Y-74628102D01*
X123472205Y-74439744D01*
X123358937Y-74270226D01*
X123214774Y-74126063D01*
X123045256Y-74012795D01*
X122856898Y-73934774D01*
X122656939Y-73895000D01*
X122453061Y-73895000D01*
X122253102Y-73934774D01*
X122064744Y-74012795D01*
X121895226Y-74126063D01*
X121751063Y-74270226D01*
X121637795Y-74439744D01*
X121559774Y-74628102D01*
X121520000Y-74828061D01*
X121520000Y-75031939D01*
X121559774Y-75231898D01*
X121637795Y-75420256D01*
X121751063Y-75589774D01*
X121795001Y-75633712D01*
X121795000Y-78702677D01*
X121791324Y-78740000D01*
X121795000Y-78777322D01*
X121795000Y-78777332D01*
X121798591Y-78813789D01*
X121685000Y-78700199D01*
X121685000Y-78638061D01*
X121645226Y-78438102D01*
X121567205Y-78249744D01*
X121453937Y-78080226D01*
X121309774Y-77936063D01*
X121140256Y-77822795D01*
X120951898Y-77744774D01*
X120751939Y-77705000D01*
X120548061Y-77705000D01*
X120348102Y-77744774D01*
X120159744Y-77822795D01*
X120140000Y-77835987D01*
X120140000Y-77784801D01*
X120526002Y-77398800D01*
X120555001Y-77375001D01*
X120649974Y-77259276D01*
X120720546Y-77127247D01*
X120764003Y-76983986D01*
X120775000Y-76872333D01*
X120775000Y-76872332D01*
X120778677Y-76835000D01*
X120775000Y-76797667D01*
X120775000Y-73339801D01*
X122939004Y-71175798D01*
X122968001Y-71152001D01*
X123062974Y-71036276D01*
X123133546Y-70904247D01*
X123177003Y-70760986D01*
X123188000Y-70649333D01*
X123188000Y-70649324D01*
X123191676Y-70612001D01*
X123191676Y-70612000D01*
X125224000Y-70612000D01*
X125224000Y-71336677D01*
X125224000Y-71336677D01*
G37*
X125224000Y-71336677D02*
X125220324Y-71374000D01*
X125224000Y-71411322D01*
X125224000Y-71411332D01*
X125234997Y-71522985D01*
X125270795Y-71640998D01*
X125278454Y-71666246D01*
X125349026Y-71798276D01*
X125371944Y-71826201D01*
X125443999Y-71914001D01*
X125473003Y-71937804D01*
X125801196Y-72265997D01*
X125824999Y-72295001D01*
X125940724Y-72389974D01*
X126072753Y-72460546D01*
X126122325Y-72475583D01*
X126082795Y-72534744D01*
X126004774Y-72723102D01*
X125965000Y-72923061D01*
X125965000Y-73126939D01*
X126004774Y-73326898D01*
X126082795Y-73515256D01*
X126196063Y-73684774D01*
X126240000Y-73728711D01*
X126240000Y-76237332D01*
X126240001Y-76237339D01*
X126240001Y-76766288D01*
X126196063Y-76810226D01*
X126082795Y-76979744D01*
X126004774Y-77168102D01*
X125965000Y-77368061D01*
X125965000Y-77571939D01*
X126004774Y-77771898D01*
X126082795Y-77960256D01*
X126122325Y-78019417D01*
X126072753Y-78034454D01*
X125940724Y-78105026D01*
X125824999Y-78199999D01*
X125801200Y-78228998D01*
X125690198Y-78340000D01*
X125628061Y-78340000D01*
X125428102Y-78379774D01*
X125239744Y-78457795D01*
X125070226Y-78571063D01*
X124926063Y-78715226D01*
X124812795Y-78884744D01*
X124734774Y-79073102D01*
X124699587Y-79250000D01*
X124139802Y-79250000D01*
X123315000Y-78425199D01*
X123315000Y-75633711D01*
X123358937Y-75589774D01*
X123472205Y-75420256D01*
X123550226Y-75231898D01*
X123590000Y-75031939D01*
X123590000Y-74828061D01*
X123550226Y-74628102D01*
X123472205Y-74439744D01*
X123358937Y-74270226D01*
X123214774Y-74126063D01*
X123045256Y-74012795D01*
X122856898Y-73934774D01*
X122656939Y-73895000D01*
X122453061Y-73895000D01*
X122253102Y-73934774D01*
X122064744Y-74012795D01*
X121895226Y-74126063D01*
X121751063Y-74270226D01*
X121637795Y-74439744D01*
X121559774Y-74628102D01*
X121520000Y-74828061D01*
X121520000Y-75031939D01*
X121559774Y-75231898D01*
X121637795Y-75420256D01*
X121751063Y-75589774D01*
X121795001Y-75633712D01*
X121795000Y-78702677D01*
X121791324Y-78740000D01*
X121795000Y-78777322D01*
X121795000Y-78777332D01*
X121798591Y-78813789D01*
X121685000Y-78700199D01*
X121685000Y-78638061D01*
X121645226Y-78438102D01*
X121567205Y-78249744D01*
X121453937Y-78080226D01*
X121309774Y-77936063D01*
X121140256Y-77822795D01*
X120951898Y-77744774D01*
X120751939Y-77705000D01*
X120548061Y-77705000D01*
X120348102Y-77744774D01*
X120159744Y-77822795D01*
X120140000Y-77835987D01*
X120140000Y-77784801D01*
X120526002Y-77398800D01*
X120555001Y-77375001D01*
X120649974Y-77259276D01*
X120720546Y-77127247D01*
X120764003Y-76983986D01*
X120775000Y-76872333D01*
X120775000Y-76872332D01*
X120778677Y-76835000D01*
X120775000Y-76797667D01*
X120775000Y-73339801D01*
X122939004Y-71175798D01*
X122968001Y-71152001D01*
X123062974Y-71036276D01*
X123133546Y-70904247D01*
X123177003Y-70760986D01*
X123188000Y-70649333D01*
X123188000Y-70649324D01*
X123191676Y-70612001D01*
X123191676Y-70612000D01*
X125224000Y-70612000D01*
X125224000Y-71336677D01*
G36*
X129352264Y-76452066D02*
G01*
X129238102Y-76474774D01*
X129049744Y-76552795D01*
X129030000Y-76565987D01*
X129030000Y-76129801D01*
X129352264Y-76452066D01*
X129352264Y-76452066D01*
G37*
X129352264Y-76452066D02*
X129238102Y-76474774D01*
X129049744Y-76552795D01*
X129030000Y-76565987D01*
X129030000Y-76129801D01*
X129352264Y-76452066D01*
G36*
X135892000Y-71665332D02*
G01*
X135892001Y-71665338D01*
X135892001Y-75123197D01*
X135257699Y-75757500D01*
X133704822Y-75757500D01*
X133667499Y-75753824D01*
X133630176Y-75757500D01*
X133630167Y-75757500D01*
X133518514Y-75768497D01*
X133375253Y-75811954D01*
X133243224Y-75882526D01*
X133243222Y-75882527D01*
X133243223Y-75882527D01*
X133156496Y-75953701D01*
X133156492Y-75953705D01*
X133127499Y-75977499D01*
X133103705Y-76006492D01*
X133097934Y-76012263D01*
X133075226Y-75898102D01*
X132997205Y-75709744D01*
X132900490Y-75565000D01*
X132997205Y-75420256D01*
X133075226Y-75231898D01*
X133115000Y-75031939D01*
X133115000Y-74969801D01*
X133607003Y-74477799D01*
X133636001Y-74454001D01*
X133698784Y-74377500D01*
X133730974Y-74338277D01*
X133801546Y-74206247D01*
X133809205Y-74180997D01*
X133845003Y-74062986D01*
X133856000Y-73951333D01*
X133856000Y-73951323D01*
X133859676Y-73914000D01*
X133856000Y-73876678D01*
X133856000Y-70612000D01*
X135892000Y-70612000D01*
X135892000Y-71665332D01*
X135892000Y-71665332D01*
G37*
X135892000Y-71665332D02*
X135892001Y-71665338D01*
X135892001Y-75123197D01*
X135257699Y-75757500D01*
X133704822Y-75757500D01*
X133667499Y-75753824D01*
X133630176Y-75757500D01*
X133630167Y-75757500D01*
X133518514Y-75768497D01*
X133375253Y-75811954D01*
X133243224Y-75882526D01*
X133243222Y-75882527D01*
X133243223Y-75882527D01*
X133156496Y-75953701D01*
X133156492Y-75953705D01*
X133127499Y-75977499D01*
X133103705Y-76006492D01*
X133097934Y-76012263D01*
X133075226Y-75898102D01*
X132997205Y-75709744D01*
X132900490Y-75565000D01*
X132997205Y-75420256D01*
X133075226Y-75231898D01*
X133115000Y-75031939D01*
X133115000Y-74969801D01*
X133607003Y-74477799D01*
X133636001Y-74454001D01*
X133698784Y-74377500D01*
X133730974Y-74338277D01*
X133801546Y-74206247D01*
X133809205Y-74180997D01*
X133845003Y-74062986D01*
X133856000Y-73951333D01*
X133856000Y-73951323D01*
X133859676Y-73914000D01*
X133856000Y-73876678D01*
X133856000Y-70612000D01*
X135892000Y-70612000D01*
X135892000Y-71665332D01*
G36*
X139448000Y-73472198D02*
G01*
X137408409Y-75511789D01*
X137412000Y-75475333D01*
X137415677Y-75438000D01*
X137412000Y-75400667D01*
X137412000Y-70612000D01*
X139448000Y-70612000D01*
X139448000Y-73472198D01*
X139448000Y-73472198D01*
G37*
X139448000Y-73472198D02*
X137408409Y-75511789D01*
X137412000Y-75475333D01*
X137415677Y-75438000D01*
X137412000Y-75400667D01*
X137412000Y-70612000D01*
X139448000Y-70612000D01*
X139448000Y-73472198D01*
G36*
X132336001Y-73599197D02*
G01*
X132040199Y-73895000D01*
X131978061Y-73895000D01*
X131778102Y-73934774D01*
X131589744Y-74012795D01*
X131420226Y-74126063D01*
X131276063Y-74270226D01*
X131162795Y-74439744D01*
X131084774Y-74628102D01*
X131045000Y-74828061D01*
X131045000Y-75031939D01*
X131084774Y-75231898D01*
X131162795Y-75420256D01*
X131175987Y-75440000D01*
X130489802Y-75440000D01*
X130300000Y-75250199D01*
X130300000Y-70612000D01*
X132336001Y-70612000D01*
X132336001Y-73599197D01*
X132336001Y-73599197D01*
G37*
X132336001Y-73599197D02*
X132040199Y-73895000D01*
X131978061Y-73895000D01*
X131778102Y-73934774D01*
X131589744Y-74012795D01*
X131420226Y-74126063D01*
X131276063Y-74270226D01*
X131162795Y-74439744D01*
X131084774Y-74628102D01*
X131045000Y-74828061D01*
X131045000Y-75031939D01*
X131084774Y-75231898D01*
X131162795Y-75420256D01*
X131175987Y-75440000D01*
X130489802Y-75440000D01*
X130300000Y-75250199D01*
X130300000Y-70612000D01*
X132336001Y-70612000D01*
X132336001Y-73599197D01*
G36*
X157228001Y-73392197D02*
G01*
X157088886Y-73531312D01*
X156906335Y-73495000D01*
X156623665Y-73495000D01*
X156346426Y-73550147D01*
X156085273Y-73658320D01*
X155850241Y-73815363D01*
X155650363Y-74015241D01*
X155493320Y-74250273D01*
X155385147Y-74511426D01*
X155330000Y-74788665D01*
X155330000Y-74880198D01*
X152963804Y-72514003D01*
X152940001Y-72484999D01*
X152824276Y-72390026D01*
X152692247Y-72319454D01*
X152548986Y-72275997D01*
X152437333Y-72265000D01*
X152437322Y-72265000D01*
X152400000Y-72261324D01*
X152362678Y-72265000D01*
X147357333Y-72265000D01*
X147320000Y-72261323D01*
X147282667Y-72265000D01*
X146364802Y-72265000D01*
X144711801Y-70612000D01*
X157228001Y-70612000D01*
X157228001Y-73392197D01*
X157228001Y-73392197D01*
G37*
X157228001Y-73392197D02*
X157088886Y-73531312D01*
X156906335Y-73495000D01*
X156623665Y-73495000D01*
X156346426Y-73550147D01*
X156085273Y-73658320D01*
X155850241Y-73815363D01*
X155650363Y-74015241D01*
X155493320Y-74250273D01*
X155385147Y-74511426D01*
X155330000Y-74788665D01*
X155330000Y-74880198D01*
X152963804Y-72514003D01*
X152940001Y-72484999D01*
X152824276Y-72390026D01*
X152692247Y-72319454D01*
X152548986Y-72275997D01*
X152437333Y-72265000D01*
X152437322Y-72265000D01*
X152400000Y-72261324D01*
X152362678Y-72265000D01*
X147357333Y-72265000D01*
X147320000Y-72261323D01*
X147282667Y-72265000D01*
X146364802Y-72265000D01*
X144711801Y-70612000D01*
X157228001Y-70612000D01*
X157228001Y-73392197D01*
G36*
X114556000Y-71186197D02*
G01*
X112520000Y-73222198D01*
X112520000Y-70612000D01*
X114556000Y-70612000D01*
X114556000Y-71186197D01*
X114556000Y-71186197D01*
G37*
X114556000Y-71186197D02*
X112520000Y-73222198D01*
X112520000Y-70612000D01*
X114556000Y-70612000D01*
X114556000Y-71186197D01*
G36*
X128780000Y-72460198D02*
G01*
X128198803Y-71879002D01*
X128198799Y-71878997D01*
X127563803Y-71244002D01*
X127540001Y-71214999D01*
X127424276Y-71120026D01*
X127292247Y-71049454D01*
X127148986Y-71005997D01*
X127037333Y-70995000D01*
X127037322Y-70995000D01*
X127000000Y-70991324D01*
X126962678Y-70995000D01*
X126744000Y-70995000D01*
X126744000Y-70612000D01*
X128780000Y-70612000D01*
X128780000Y-72460198D01*
X128780000Y-72460198D01*
G37*
X128780000Y-72460198D02*
X128198803Y-71879002D01*
X128198799Y-71878997D01*
X127563803Y-71244002D01*
X127540001Y-71214999D01*
X127424276Y-71120026D01*
X127292247Y-71049454D01*
X127148986Y-71005997D01*
X127037333Y-70995000D01*
X127037322Y-70995000D01*
X127000000Y-70991324D01*
X126962678Y-70995000D01*
X126744000Y-70995000D01*
X126744000Y-70612000D01*
X128780000Y-70612000D01*
X128780000Y-72460198D01*
G36*
X103276000Y-70909199D02*
G01*
X103276000Y-70612000D01*
X103573198Y-70612000D01*
X103276000Y-70909199D01*
X103276000Y-70909199D01*
G37*
X103276000Y-70909199D02*
X103276000Y-70612000D01*
X103573198Y-70612000D01*
X103276000Y-70909199D01*
M02*
