M48
; DRILL file {KiCad (5.1.4)-1} date 15.11.2019 7:07:23
; FORMAT={-:-/ absolute / inch / decimal}
; #@! TF.CreationDate,2019-11-15T07:07:23+03:00
; #@! TF.GenerationSoftware,Kicad,Pcbnew,(5.1.4)-1
; #@! TF.FileFunction,Plated,1,2,PTH
FMAT,2
INCH
T1C0.0157
T2C0.0315
%
G90
G05
T1
X4.2875Y-2.8875
X4.65Y-2.925
X4.75Y-3.1
X4.75Y-3.525
X4.825Y-2.95
X4.95Y-3.125
X5.0Y-2.875
X5.0Y-3.05
X5.05Y-3.05
X5.1Y-3.05
X5.2Y-2.95
X5.2Y-3.0
X5.3Y-3.1
X5.3Y-3.525
X5.5Y-3.625
X5.525Y-3.0
X5.6Y-3.45
X5.725Y-3.0
X5.725Y-3.425
X5.725Y-3.625
X6.025Y-3.675
X6.1Y-3.675
T2
X5.975Y-2.95
X6.1719Y-2.95
X5.9Y-3.15
X5.9Y-3.25
X5.9Y-3.35
X5.9Y-3.45
X5.9Y-3.55
X5.9Y-3.65
X5.9Y-3.75
X5.9Y-3.85
X6.2Y-3.15
X6.2Y-3.25
X6.2Y-3.35
X6.2Y-3.45
X6.2Y-3.55
X6.2Y-3.65
X6.2Y-3.75
X6.2Y-3.85
X4.15Y-3.25
X4.15Y-3.85
X4.25Y-3.25
X4.25Y-3.85
X4.35Y-3.25
X4.35Y-3.85
X4.45Y-3.25
X4.45Y-3.85
X4.55Y-3.25
X4.55Y-3.85
X4.65Y-3.25
X4.65Y-3.85
X4.75Y-3.25
X4.75Y-3.85
X4.85Y-3.25
X4.85Y-3.85
X4.95Y-3.25
X4.95Y-3.85
X5.05Y-3.25
X5.05Y-3.85
X5.15Y-3.25
X5.15Y-3.85
X5.25Y-3.25
X5.25Y-3.85
X5.35Y-3.25
X5.35Y-3.85
X5.45Y-3.25
X5.45Y-3.85
X5.55Y-3.25
X5.55Y-3.85
X5.65Y-3.25
X5.65Y-3.85
T0
M30
