G04 #@! TF.GenerationSoftware,KiCad,Pcbnew,(5.1.4)-1*
G04 #@! TF.CreationDate,2020-12-23T14:11:49+03:00*
G04 #@! TF.ProjectId,BlueFam,426c7565-4661-46d2-9e6b-696361645f70,rev?*
G04 #@! TF.SameCoordinates,Original*
G04 #@! TF.FileFunction,Copper,L1,Top*
G04 #@! TF.FilePolarity,Positive*
%FSLAX46Y46*%
G04 Gerber Fmt 4.6, Leading zero omitted, Abs format (unit mm)*
G04 Created by KiCad (PCBNEW (5.1.4)-1) date 2020-12-23 14:11:49*
%MOMM*%
%LPD*%
G04 APERTURE LIST*
%ADD10O,1.600000X1.600000*%
%ADD11R,1.600000X1.600000*%
%ADD12R,3.500000X3.500000*%
%ADD13C,0.100000*%
%ADD14C,3.000000*%
%ADD15C,3.500000*%
%ADD16C,1.600000*%
%ADD17R,2.000000X2.000000*%
%ADD18C,2.000000*%
%ADD19R,1.905000X2.000000*%
%ADD20O,1.905000X2.000000*%
%ADD21O,1.050000X1.500000*%
%ADD22R,1.050000X1.500000*%
%ADD23R,1.700000X1.700000*%
%ADD24O,1.700000X1.700000*%
%ADD25C,4.500000*%
%ADD26C,1.000000*%
%ADD27C,0.254000*%
G04 APERTURE END LIST*
D10*
X40005000Y-94615000D03*
D11*
X47625000Y-94615000D03*
D12*
X35560000Y-97520000D03*
D13*
G36*
X30383513Y-95773611D02*
G01*
X30456318Y-95784411D01*
X30527714Y-95802295D01*
X30597013Y-95827090D01*
X30663548Y-95858559D01*
X30726678Y-95896398D01*
X30785795Y-95940242D01*
X30840330Y-95989670D01*
X30889758Y-96044205D01*
X30933602Y-96103322D01*
X30971441Y-96166452D01*
X31002910Y-96232987D01*
X31027705Y-96302286D01*
X31045589Y-96373682D01*
X31056389Y-96446487D01*
X31060000Y-96520000D01*
X31060000Y-98520000D01*
X31056389Y-98593513D01*
X31045589Y-98666318D01*
X31027705Y-98737714D01*
X31002910Y-98807013D01*
X30971441Y-98873548D01*
X30933602Y-98936678D01*
X30889758Y-98995795D01*
X30840330Y-99050330D01*
X30785795Y-99099758D01*
X30726678Y-99143602D01*
X30663548Y-99181441D01*
X30597013Y-99212910D01*
X30527714Y-99237705D01*
X30456318Y-99255589D01*
X30383513Y-99266389D01*
X30310000Y-99270000D01*
X28810000Y-99270000D01*
X28736487Y-99266389D01*
X28663682Y-99255589D01*
X28592286Y-99237705D01*
X28522987Y-99212910D01*
X28456452Y-99181441D01*
X28393322Y-99143602D01*
X28334205Y-99099758D01*
X28279670Y-99050330D01*
X28230242Y-98995795D01*
X28186398Y-98936678D01*
X28148559Y-98873548D01*
X28117090Y-98807013D01*
X28092295Y-98737714D01*
X28074411Y-98666318D01*
X28063611Y-98593513D01*
X28060000Y-98520000D01*
X28060000Y-96520000D01*
X28063611Y-96446487D01*
X28074411Y-96373682D01*
X28092295Y-96302286D01*
X28117090Y-96232987D01*
X28148559Y-96166452D01*
X28186398Y-96103322D01*
X28230242Y-96044205D01*
X28279670Y-95989670D01*
X28334205Y-95940242D01*
X28393322Y-95896398D01*
X28456452Y-95858559D01*
X28522987Y-95827090D01*
X28592286Y-95802295D01*
X28663682Y-95784411D01*
X28736487Y-95773611D01*
X28810000Y-95770000D01*
X30310000Y-95770000D01*
X30383513Y-95773611D01*
X30383513Y-95773611D01*
G37*
D14*
X29560000Y-97520000D03*
D13*
G36*
X33520765Y-91074213D02*
G01*
X33605704Y-91086813D01*
X33688999Y-91107677D01*
X33769848Y-91136605D01*
X33847472Y-91173319D01*
X33921124Y-91217464D01*
X33990094Y-91268616D01*
X34053718Y-91326282D01*
X34111384Y-91389906D01*
X34162536Y-91458876D01*
X34206681Y-91532528D01*
X34243395Y-91610152D01*
X34272323Y-91691001D01*
X34293187Y-91774296D01*
X34305787Y-91859235D01*
X34310000Y-91945000D01*
X34310000Y-93695000D01*
X34305787Y-93780765D01*
X34293187Y-93865704D01*
X34272323Y-93948999D01*
X34243395Y-94029848D01*
X34206681Y-94107472D01*
X34162536Y-94181124D01*
X34111384Y-94250094D01*
X34053718Y-94313718D01*
X33990094Y-94371384D01*
X33921124Y-94422536D01*
X33847472Y-94466681D01*
X33769848Y-94503395D01*
X33688999Y-94532323D01*
X33605704Y-94553187D01*
X33520765Y-94565787D01*
X33435000Y-94570000D01*
X31685000Y-94570000D01*
X31599235Y-94565787D01*
X31514296Y-94553187D01*
X31431001Y-94532323D01*
X31350152Y-94503395D01*
X31272528Y-94466681D01*
X31198876Y-94422536D01*
X31129906Y-94371384D01*
X31066282Y-94313718D01*
X31008616Y-94250094D01*
X30957464Y-94181124D01*
X30913319Y-94107472D01*
X30876605Y-94029848D01*
X30847677Y-93948999D01*
X30826813Y-93865704D01*
X30814213Y-93780765D01*
X30810000Y-93695000D01*
X30810000Y-91945000D01*
X30814213Y-91859235D01*
X30826813Y-91774296D01*
X30847677Y-91691001D01*
X30876605Y-91610152D01*
X30913319Y-91532528D01*
X30957464Y-91458876D01*
X31008616Y-91389906D01*
X31066282Y-91326282D01*
X31129906Y-91268616D01*
X31198876Y-91217464D01*
X31272528Y-91173319D01*
X31350152Y-91136605D01*
X31431001Y-91107677D01*
X31514296Y-91086813D01*
X31599235Y-91074213D01*
X31685000Y-91070000D01*
X33435000Y-91070000D01*
X33520765Y-91074213D01*
X33520765Y-91074213D01*
G37*
D15*
X32560000Y-92820000D03*
D10*
X50800000Y-88900000D03*
D16*
X43180000Y-88900000D03*
D10*
X41910000Y-74930000D03*
D16*
X41910000Y-67310000D03*
D17*
X60960000Y-95250000D03*
D18*
X60960000Y-100250000D03*
D11*
X58420000Y-58420000D03*
D16*
X55920000Y-58420000D03*
X45466000Y-48220000D03*
D11*
X45466000Y-45720000D03*
D19*
X47244000Y-98425000D03*
D20*
X49784000Y-98425000D03*
X52324000Y-98425000D03*
D11*
X50800000Y-69850000D03*
D10*
X58420000Y-69850000D03*
X44704000Y-58420000D03*
D16*
X52324000Y-58420000D03*
X53340000Y-74422000D03*
D10*
X45720000Y-74422000D03*
D16*
X54610000Y-64770000D03*
D10*
X62230000Y-64770000D03*
X66040000Y-82550000D03*
D16*
X58420000Y-82550000D03*
D21*
X46990000Y-82804000D03*
X48260000Y-82804000D03*
D22*
X45720000Y-82804000D03*
X68580000Y-74930000D03*
D21*
X66040000Y-74930000D03*
X67310000Y-74930000D03*
D23*
X72644000Y-99060000D03*
D24*
X72644000Y-96520000D03*
X72644000Y-93980000D03*
X72644000Y-91440000D03*
X72644000Y-88900000D03*
X72644000Y-86360000D03*
X72644000Y-83820000D03*
D23*
X40005000Y-102870000D03*
D24*
X42545000Y-102870000D03*
D16*
X68580000Y-96520000D03*
X68580000Y-101520000D03*
X38100000Y-90090000D03*
X38100000Y-85090000D03*
D15*
X28194000Y-51154000D03*
X36684000Y-46709000D03*
X36684000Y-55599000D03*
X36684000Y-51154000D03*
X36684000Y-38488000D03*
X36684000Y-42933000D03*
X36684000Y-34043000D03*
X28194000Y-38488000D03*
X36830000Y-70790000D03*
X36830000Y-75235000D03*
X36830000Y-66345000D03*
X28340000Y-70790000D03*
D25*
X30632400Y-24130000D03*
X30734000Y-24231600D03*
X30683200Y-24155400D03*
X61129400Y-24155400D03*
X57129400Y-106705400D03*
X30708600Y-106680000D03*
D26*
X52705000Y-98377500D02*
X52705000Y-98425000D01*
X72644000Y-93980000D02*
X72644000Y-94996000D01*
X72644000Y-91440000D02*
X72644000Y-94996000D01*
X72644000Y-94996000D02*
X72644000Y-96520000D01*
X68580000Y-96520000D02*
X72644000Y-96520000D01*
X52324000Y-98425000D02*
X52324000Y-98377500D01*
X58960000Y-95250000D02*
X60960000Y-95250000D01*
X53499000Y-95250000D02*
X58960000Y-95250000D01*
X52324000Y-96425000D02*
X53499000Y-95250000D01*
X52324000Y-98425000D02*
X52324000Y-96425000D01*
X62230000Y-96520000D02*
X60960000Y-95250000D01*
X68580000Y-96520000D02*
X62230000Y-96520000D01*
X46990000Y-88110000D02*
X46990000Y-82804000D01*
X72644000Y-91440000D02*
X50320000Y-91440000D01*
X50320000Y-91440000D02*
X46990000Y-88110000D01*
X46990000Y-80772000D02*
X53340000Y-74422000D01*
X46990000Y-82804000D02*
X46990000Y-80772000D01*
X58420000Y-58420000D02*
X58420000Y-69850000D01*
X58420000Y-69850000D02*
X58420000Y-82550000D01*
X58166000Y-82804000D02*
X58420000Y-82550000D01*
X48260000Y-82804000D02*
X58166000Y-82804000D01*
X52324000Y-58420000D02*
X55920000Y-58420000D01*
X41910000Y-51776000D02*
X45466000Y-48220000D01*
X41910000Y-67310000D02*
X41910000Y-51776000D01*
X54610000Y-66040000D02*
X50800000Y-69850000D01*
X54610000Y-64770000D02*
X54610000Y-66040000D01*
X45720000Y-82804000D02*
X45720000Y-74422000D01*
X46228000Y-74422000D02*
X50800000Y-69850000D01*
X45720000Y-74422000D02*
X46228000Y-74422000D01*
X70105000Y-74930000D02*
X68580000Y-74930000D01*
X72644000Y-77469000D02*
X70105000Y-74930000D01*
X72644000Y-83820000D02*
X72644000Y-77469000D01*
X67310000Y-69850000D02*
X67310000Y-74930000D01*
X62230000Y-64770000D02*
X67310000Y-69850000D01*
X43180000Y-102870000D02*
X47625000Y-98425000D01*
X42545000Y-102870000D02*
X43180000Y-102870000D01*
X42799000Y-102870000D02*
X47244000Y-98425000D01*
X42545000Y-102870000D02*
X42799000Y-102870000D01*
X50800000Y-88900000D02*
X72644000Y-88900000D01*
X41910000Y-87630000D02*
X43180000Y-88900000D01*
X41910000Y-74930000D02*
X41910000Y-87630000D01*
X37100000Y-97520000D02*
X40005000Y-94615000D01*
X35560000Y-97520000D02*
X37100000Y-97520000D01*
X40005000Y-101020000D02*
X40005000Y-102870000D01*
X40005000Y-100435000D02*
X40005000Y-101020000D01*
X45825000Y-94615000D02*
X40005000Y-100435000D01*
X47625000Y-94615000D02*
X45825000Y-94615000D01*
X38487122Y-38688000D02*
X36684000Y-38688000D01*
X40234000Y-38688000D02*
X38487122Y-38688000D01*
X45466000Y-43920000D02*
X40234000Y-38688000D01*
X45466000Y-45720000D02*
X45466000Y-43920000D01*
X40132000Y-51054000D02*
X45466000Y-45720000D01*
X36684000Y-51054000D02*
X40132000Y-51054000D01*
X44704000Y-58420000D02*
X44704000Y-68834000D01*
X42498000Y-71040000D02*
X44704000Y-68834000D01*
X36830000Y-71040000D02*
X42498000Y-71040000D01*
D27*
G36*
X29127526Y-21314579D02*
G01*
X28607181Y-21662263D01*
X28164663Y-22104781D01*
X27816979Y-22625126D01*
X27577490Y-23203303D01*
X27455400Y-23817093D01*
X27455400Y-24442907D01*
X27577490Y-25056697D01*
X27816979Y-25634874D01*
X28164663Y-26155219D01*
X28708781Y-26699337D01*
X29229126Y-27047021D01*
X29807303Y-27286510D01*
X30421093Y-27408600D01*
X31046907Y-27408600D01*
X31660697Y-27286510D01*
X32238874Y-27047021D01*
X32759219Y-26699337D01*
X33201737Y-26256819D01*
X33549421Y-25736474D01*
X33788910Y-25158297D01*
X33911000Y-24544507D01*
X33911000Y-23918693D01*
X33788910Y-23304903D01*
X33549421Y-22726726D01*
X33498809Y-22650980D01*
X33498621Y-22650526D01*
X33150937Y-22130181D01*
X32708419Y-21687663D01*
X32188074Y-21339979D01*
X32154434Y-21326045D01*
X32137274Y-21314579D01*
X32034479Y-21272000D01*
X59788642Y-21272000D01*
X59624526Y-21339979D01*
X59104181Y-21687663D01*
X58661663Y-22130181D01*
X58313979Y-22650526D01*
X58074490Y-23228703D01*
X57952400Y-23842493D01*
X57952400Y-24468307D01*
X58074490Y-25082097D01*
X58313979Y-25660274D01*
X58661663Y-26180619D01*
X59104181Y-26623137D01*
X59624526Y-26970821D01*
X60202703Y-27210310D01*
X60816493Y-27332400D01*
X61442307Y-27332400D01*
X62056097Y-27210310D01*
X62634274Y-26970821D01*
X63154619Y-26623137D01*
X63597137Y-26180619D01*
X63944821Y-25660274D01*
X64184310Y-25082097D01*
X64306400Y-24468307D01*
X64306400Y-23842493D01*
X64184310Y-23228703D01*
X63944821Y-22650526D01*
X63597137Y-22130181D01*
X63154619Y-21687663D01*
X62634274Y-21339979D01*
X62470158Y-21272000D01*
X75299872Y-21272000D01*
X75374213Y-87249000D01*
X73824583Y-87249000D01*
X73915641Y-87126920D01*
X74040825Y-86864099D01*
X74085476Y-86716890D01*
X73964155Y-86487000D01*
X72771000Y-86487000D01*
X72771000Y-86507000D01*
X72517000Y-86507000D01*
X72517000Y-86487000D01*
X71323845Y-86487000D01*
X71202524Y-86716890D01*
X71247175Y-86864099D01*
X71372359Y-87126920D01*
X71463417Y-87249000D01*
X51306715Y-87249000D01*
X51138551Y-87197988D01*
X50884841Y-87173000D01*
X50715159Y-87173000D01*
X50461449Y-87197988D01*
X50293285Y-87249000D01*
X48417000Y-87249000D01*
X48417000Y-84472562D01*
X48544642Y-84459990D01*
X48818345Y-84376963D01*
X49070591Y-84242135D01*
X49084159Y-84231000D01*
X58018649Y-84231000D01*
X58249905Y-84277000D01*
X58590095Y-84277000D01*
X58923747Y-84210632D01*
X59238041Y-84080447D01*
X59520898Y-83891448D01*
X59761448Y-83650898D01*
X59950447Y-83368041D01*
X60080632Y-83053747D01*
X60111405Y-82899039D01*
X64648096Y-82899039D01*
X64688754Y-83033087D01*
X64808963Y-83287420D01*
X64976481Y-83513414D01*
X65184869Y-83702385D01*
X65426119Y-83847070D01*
X65690960Y-83941909D01*
X65913000Y-83820624D01*
X65913000Y-82677000D01*
X66167000Y-82677000D01*
X66167000Y-83820624D01*
X66389040Y-83941909D01*
X66653881Y-83847070D01*
X66895131Y-83702385D01*
X67103519Y-83513414D01*
X67271037Y-83287420D01*
X67391246Y-83033087D01*
X67431904Y-82899039D01*
X67309915Y-82677000D01*
X66167000Y-82677000D01*
X65913000Y-82677000D01*
X64770085Y-82677000D01*
X64648096Y-82899039D01*
X60111405Y-82899039D01*
X60147000Y-82720095D01*
X60147000Y-82379905D01*
X60111406Y-82200961D01*
X64648096Y-82200961D01*
X64770085Y-82423000D01*
X65913000Y-82423000D01*
X65913000Y-81279376D01*
X66167000Y-81279376D01*
X66167000Y-82423000D01*
X67309915Y-82423000D01*
X67431904Y-82200961D01*
X67391246Y-82066913D01*
X67271037Y-81812580D01*
X67103519Y-81586586D01*
X66895131Y-81397615D01*
X66653881Y-81252930D01*
X66389040Y-81158091D01*
X66167000Y-81279376D01*
X65913000Y-81279376D01*
X65690960Y-81158091D01*
X65426119Y-81252930D01*
X65184869Y-81397615D01*
X64976481Y-81586586D01*
X64808963Y-81812580D01*
X64688754Y-82066913D01*
X64648096Y-82200961D01*
X60111406Y-82200961D01*
X60080632Y-82046253D01*
X59950447Y-81731959D01*
X59847000Y-81577140D01*
X59847000Y-70833481D01*
X59862896Y-70814112D01*
X60023260Y-70514092D01*
X60122012Y-70188551D01*
X60155356Y-69850000D01*
X60122012Y-69511449D01*
X60023260Y-69185908D01*
X59862896Y-68885888D01*
X59847000Y-68866519D01*
X59847000Y-64770000D01*
X60494644Y-64770000D01*
X60527988Y-65108551D01*
X60626740Y-65434092D01*
X60787104Y-65734112D01*
X61002918Y-65997082D01*
X61265888Y-66212896D01*
X61565908Y-66373260D01*
X61891449Y-66472012D01*
X61916386Y-66474468D01*
X65883000Y-70441083D01*
X65883001Y-73690731D01*
X65734190Y-73586036D01*
X65672663Y-73594728D01*
X65463118Y-73687725D01*
X65275742Y-73819816D01*
X65117736Y-73985924D01*
X64995172Y-74179666D01*
X64912761Y-74393596D01*
X64873669Y-74619493D01*
X65033402Y-74803000D01*
X65858000Y-74803000D01*
X65858000Y-75057000D01*
X65033402Y-75057000D01*
X64873669Y-75240507D01*
X64912761Y-75466404D01*
X64995172Y-75680334D01*
X65117736Y-75874076D01*
X65275742Y-76040184D01*
X65463118Y-76172275D01*
X65672663Y-76265272D01*
X65734190Y-76273964D01*
X65913000Y-76148163D01*
X65913000Y-75551691D01*
X65962037Y-75713344D01*
X66096865Y-75965590D01*
X66167000Y-76051049D01*
X66167000Y-76148163D01*
X66345810Y-76273964D01*
X66378957Y-76269281D01*
X66499409Y-76368135D01*
X66751655Y-76502963D01*
X67025358Y-76585990D01*
X67310000Y-76614025D01*
X67594641Y-76585990D01*
X67721437Y-76547527D01*
X67873276Y-76593587D01*
X68055000Y-76611485D01*
X69105000Y-76611485D01*
X69286724Y-76593587D01*
X69461464Y-76540580D01*
X69615281Y-76458363D01*
X71217001Y-78060083D01*
X71217000Y-82757704D01*
X71159330Y-82827975D01*
X70994323Y-83136681D01*
X70892712Y-83471647D01*
X70858402Y-83820000D01*
X70892712Y-84168353D01*
X70994323Y-84503319D01*
X71159330Y-84812025D01*
X71381392Y-85082608D01*
X71628694Y-85285564D01*
X71546412Y-85359731D01*
X71372359Y-85593080D01*
X71247175Y-85855901D01*
X71202524Y-86003110D01*
X71323845Y-86233000D01*
X72517000Y-86233000D01*
X72517000Y-86213000D01*
X72771000Y-86213000D01*
X72771000Y-86233000D01*
X73964155Y-86233000D01*
X74085476Y-86003110D01*
X74040825Y-85855901D01*
X73915641Y-85593080D01*
X73741588Y-85359731D01*
X73659306Y-85285564D01*
X73906608Y-85082608D01*
X74128670Y-84812025D01*
X74293677Y-84503319D01*
X74395288Y-84168353D01*
X74429598Y-83820000D01*
X74395288Y-83471647D01*
X74293677Y-83136681D01*
X74128670Y-82827975D01*
X74071000Y-82757704D01*
X74071000Y-77539087D01*
X74077903Y-77468999D01*
X74071000Y-77398911D01*
X74071000Y-77398902D01*
X74050352Y-77189259D01*
X73968755Y-76920269D01*
X73836248Y-76672366D01*
X73657923Y-76455077D01*
X73603472Y-76410390D01*
X71163610Y-73970528D01*
X71118923Y-73916077D01*
X70901634Y-73737752D01*
X70653731Y-73605245D01*
X70384741Y-73523648D01*
X70175098Y-73503000D01*
X70175088Y-73503000D01*
X70105000Y-73496097D01*
X70034912Y-73503000D01*
X69741310Y-73503000D01*
X69622505Y-73405499D01*
X69461464Y-73319420D01*
X69286724Y-73266413D01*
X69105000Y-73248515D01*
X68737000Y-73248515D01*
X68737000Y-69920090D01*
X68743903Y-69850000D01*
X68737000Y-69779910D01*
X68737000Y-69779902D01*
X68716352Y-69570259D01*
X68634755Y-69301269D01*
X68502248Y-69053366D01*
X68476506Y-69022000D01*
X68368608Y-68890525D01*
X68368601Y-68890518D01*
X68323922Y-68836077D01*
X68269483Y-68791400D01*
X63934468Y-64456386D01*
X63932012Y-64431449D01*
X63833260Y-64105908D01*
X63672896Y-63805888D01*
X63457082Y-63542918D01*
X63194112Y-63327104D01*
X62894092Y-63166740D01*
X62568551Y-63067988D01*
X62314841Y-63043000D01*
X62145159Y-63043000D01*
X61891449Y-63067988D01*
X61565908Y-63166740D01*
X61265888Y-63327104D01*
X61002918Y-63542918D01*
X60787104Y-63805888D01*
X60626740Y-64105908D01*
X60527988Y-64431449D01*
X60494644Y-64770000D01*
X59847000Y-64770000D01*
X59847000Y-59904641D01*
X59878659Y-59878659D01*
X59994501Y-59737505D01*
X60080580Y-59576464D01*
X60133587Y-59401724D01*
X60151485Y-59220000D01*
X60151485Y-57620000D01*
X60133587Y-57438276D01*
X60080580Y-57263536D01*
X59994501Y-57102495D01*
X59878659Y-56961341D01*
X59737505Y-56845499D01*
X59576464Y-56759420D01*
X59401724Y-56706413D01*
X59220000Y-56688515D01*
X57620000Y-56688515D01*
X57438276Y-56706413D01*
X57263536Y-56759420D01*
X57102495Y-56845499D01*
X56961341Y-56961341D01*
X56920308Y-57011340D01*
X56738041Y-56889553D01*
X56423747Y-56759368D01*
X56090095Y-56693000D01*
X55749905Y-56693000D01*
X55416253Y-56759368D01*
X55101959Y-56889553D01*
X54947140Y-56993000D01*
X53296860Y-56993000D01*
X53142041Y-56889553D01*
X52827747Y-56759368D01*
X52494095Y-56693000D01*
X52153905Y-56693000D01*
X51820253Y-56759368D01*
X51505959Y-56889553D01*
X51223102Y-57078552D01*
X50982552Y-57319102D01*
X50793553Y-57601959D01*
X50663368Y-57916253D01*
X50597000Y-58249905D01*
X50597000Y-58590095D01*
X50663368Y-58923747D01*
X50793553Y-59238041D01*
X50982552Y-59520898D01*
X51223102Y-59761448D01*
X51505959Y-59950447D01*
X51820253Y-60080632D01*
X52153905Y-60147000D01*
X52494095Y-60147000D01*
X52827747Y-60080632D01*
X53142041Y-59950447D01*
X53296860Y-59847000D01*
X54947140Y-59847000D01*
X55101959Y-59950447D01*
X55416253Y-60080632D01*
X55749905Y-60147000D01*
X56090095Y-60147000D01*
X56423747Y-60080632D01*
X56738041Y-59950447D01*
X56920308Y-59828660D01*
X56961341Y-59878659D01*
X56993000Y-59904641D01*
X56993001Y-68866518D01*
X56977104Y-68885888D01*
X56816740Y-69185908D01*
X56717988Y-69511449D01*
X56684644Y-69850000D01*
X56717988Y-70188551D01*
X56816740Y-70514092D01*
X56977104Y-70814112D01*
X56993000Y-70833481D01*
X56993001Y-81377000D01*
X49084158Y-81377000D01*
X49070590Y-81365865D01*
X48818344Y-81231037D01*
X48611723Y-81168359D01*
X53661125Y-76118958D01*
X53843747Y-76082632D01*
X54158041Y-75952447D01*
X54440898Y-75763448D01*
X54681448Y-75522898D01*
X54870447Y-75240041D01*
X55000632Y-74925747D01*
X55067000Y-74592095D01*
X55067000Y-74251905D01*
X55000632Y-73918253D01*
X54870447Y-73603959D01*
X54681448Y-73321102D01*
X54440898Y-73080552D01*
X54158041Y-72891553D01*
X53843747Y-72761368D01*
X53510095Y-72695000D01*
X53169905Y-72695000D01*
X52836253Y-72761368D01*
X52521959Y-72891553D01*
X52239102Y-73080552D01*
X51998552Y-73321102D01*
X51809553Y-73603959D01*
X51679368Y-73918253D01*
X51643042Y-74100875D01*
X47147000Y-78596918D01*
X47147000Y-75513825D01*
X47241923Y-75435923D01*
X47286610Y-75381472D01*
X51086597Y-71581485D01*
X51600000Y-71581485D01*
X51781724Y-71563587D01*
X51956464Y-71510580D01*
X52117505Y-71424501D01*
X52258659Y-71308659D01*
X52374501Y-71167505D01*
X52460580Y-71006464D01*
X52513587Y-70831724D01*
X52531485Y-70650000D01*
X52531485Y-70136597D01*
X55569478Y-67098605D01*
X55623923Y-67053923D01*
X55668605Y-66999478D01*
X55668608Y-66999475D01*
X55802248Y-66836635D01*
X55873074Y-66704128D01*
X55934755Y-66588731D01*
X56016352Y-66319741D01*
X56037000Y-66110098D01*
X56037000Y-66110090D01*
X56043903Y-66040000D01*
X56037000Y-65969910D01*
X56037000Y-65742860D01*
X56140447Y-65588041D01*
X56270632Y-65273747D01*
X56337000Y-64940095D01*
X56337000Y-64599905D01*
X56270632Y-64266253D01*
X56140447Y-63951959D01*
X55951448Y-63669102D01*
X55710898Y-63428552D01*
X55428041Y-63239553D01*
X55113747Y-63109368D01*
X54780095Y-63043000D01*
X54439905Y-63043000D01*
X54106253Y-63109368D01*
X53791959Y-63239553D01*
X53509102Y-63428552D01*
X53268552Y-63669102D01*
X53079553Y-63951959D01*
X52949368Y-64266253D01*
X52883000Y-64599905D01*
X52883000Y-64940095D01*
X52949368Y-65273747D01*
X53069103Y-65562814D01*
X50513403Y-68118515D01*
X50000000Y-68118515D01*
X49818276Y-68136413D01*
X49643536Y-68189420D01*
X49482495Y-68275499D01*
X49341341Y-68391341D01*
X49225499Y-68532495D01*
X49139420Y-68693536D01*
X49086413Y-68868276D01*
X49068515Y-69050000D01*
X49068515Y-69563403D01*
X45925076Y-72706842D01*
X45804841Y-72695000D01*
X45635159Y-72695000D01*
X45381449Y-72719988D01*
X45055908Y-72818740D01*
X44755888Y-72979104D01*
X44492918Y-73194918D01*
X44277104Y-73457888D01*
X44116740Y-73757908D01*
X44017988Y-74083449D01*
X43984644Y-74422000D01*
X44017988Y-74760551D01*
X44116740Y-75086092D01*
X44277104Y-75386112D01*
X44293001Y-75405482D01*
X44293000Y-81834079D01*
X44281413Y-81872276D01*
X44263515Y-82054000D01*
X44263515Y-83554000D01*
X44281413Y-83735724D01*
X44334420Y-83910464D01*
X44420499Y-84071505D01*
X44536341Y-84212659D01*
X44677495Y-84328501D01*
X44838536Y-84414580D01*
X45013276Y-84467587D01*
X45195000Y-84485485D01*
X45563001Y-84485485D01*
X45563000Y-87249000D01*
X43707001Y-87249000D01*
X43683747Y-87239368D01*
X43501124Y-87203042D01*
X43337000Y-87038918D01*
X43337000Y-75913481D01*
X43352896Y-75894112D01*
X43513260Y-75594092D01*
X43612012Y-75268551D01*
X43645356Y-74930000D01*
X43612012Y-74591449D01*
X43513260Y-74265908D01*
X43352896Y-73965888D01*
X43137082Y-73702918D01*
X42874112Y-73487104D01*
X42574092Y-73326740D01*
X42248551Y-73227988D01*
X41994841Y-73203000D01*
X41825159Y-73203000D01*
X41571449Y-73227988D01*
X41245908Y-73326740D01*
X40945888Y-73487104D01*
X40682918Y-73702918D01*
X40467104Y-73965888D01*
X40306740Y-74265908D01*
X40207988Y-74591449D01*
X40174644Y-74930000D01*
X40207988Y-75268551D01*
X40306740Y-75594092D01*
X40467104Y-75894112D01*
X40483000Y-75913481D01*
X40483001Y-87249000D01*
X26352000Y-87249000D01*
X26352000Y-86082702D01*
X37286903Y-86082702D01*
X37358486Y-86326671D01*
X37613996Y-86447571D01*
X37888184Y-86516300D01*
X38170512Y-86530217D01*
X38450130Y-86488787D01*
X38716292Y-86393603D01*
X38841514Y-86326671D01*
X38913097Y-86082702D01*
X38100000Y-85269605D01*
X37286903Y-86082702D01*
X26352000Y-86082702D01*
X26352000Y-85160512D01*
X36659783Y-85160512D01*
X36701213Y-85440130D01*
X36796397Y-85706292D01*
X36863329Y-85831514D01*
X37107298Y-85903097D01*
X37920395Y-85090000D01*
X38279605Y-85090000D01*
X39092702Y-85903097D01*
X39336671Y-85831514D01*
X39457571Y-85576004D01*
X39526300Y-85301816D01*
X39540217Y-85019488D01*
X39498787Y-84739870D01*
X39403603Y-84473708D01*
X39336671Y-84348486D01*
X39092702Y-84276903D01*
X38279605Y-85090000D01*
X37920395Y-85090000D01*
X37107298Y-84276903D01*
X36863329Y-84348486D01*
X36742429Y-84603996D01*
X36673700Y-84878184D01*
X36659783Y-85160512D01*
X26352000Y-85160512D01*
X26352000Y-84097298D01*
X37286903Y-84097298D01*
X38100000Y-84910395D01*
X38913097Y-84097298D01*
X38841514Y-83853329D01*
X38586004Y-83732429D01*
X38311816Y-83663700D01*
X38029488Y-83649783D01*
X37749870Y-83691213D01*
X37483708Y-83786397D01*
X37358486Y-83853329D01*
X37286903Y-84097298D01*
X26352000Y-84097298D01*
X26352000Y-72459609D01*
X26849997Y-72459609D01*
X27036073Y-72800766D01*
X27453409Y-73016513D01*
X27904815Y-73146696D01*
X28372946Y-73186313D01*
X28839811Y-73133842D01*
X29287468Y-72991297D01*
X29643927Y-72800766D01*
X29830003Y-72459609D01*
X28340000Y-70969605D01*
X26849997Y-72459609D01*
X26352000Y-72459609D01*
X26352000Y-72106344D01*
X26670391Y-72280003D01*
X28160395Y-70790000D01*
X28519605Y-70790000D01*
X30009609Y-72280003D01*
X30350766Y-72093927D01*
X30566513Y-71676591D01*
X30696696Y-71225185D01*
X30736313Y-70757054D01*
X30683842Y-70290189D01*
X30541297Y-69842532D01*
X30350766Y-69486073D01*
X30009609Y-69299997D01*
X28519605Y-70790000D01*
X28160395Y-70790000D01*
X26670391Y-69299997D01*
X26352000Y-69473656D01*
X26352000Y-69120391D01*
X26849997Y-69120391D01*
X28340000Y-70610395D01*
X29830003Y-69120391D01*
X29643927Y-68779234D01*
X29226591Y-68563487D01*
X28775185Y-68433304D01*
X28307054Y-68393687D01*
X27840189Y-68446158D01*
X27392532Y-68588703D01*
X27036073Y-68779234D01*
X26849997Y-69120391D01*
X26352000Y-69120391D01*
X26352000Y-52823609D01*
X26703997Y-52823609D01*
X26890073Y-53164766D01*
X27307409Y-53380513D01*
X27758815Y-53510696D01*
X28226946Y-53550313D01*
X28693811Y-53497842D01*
X29141468Y-53355297D01*
X29497927Y-53164766D01*
X29684003Y-52823609D01*
X28194000Y-51333605D01*
X26703997Y-52823609D01*
X26352000Y-52823609D01*
X26352000Y-52549976D01*
X26524391Y-52644003D01*
X28014395Y-51154000D01*
X28373605Y-51154000D01*
X29863609Y-52644003D01*
X30204766Y-52457927D01*
X30420513Y-52040591D01*
X30550696Y-51589185D01*
X30590313Y-51121054D01*
X30537842Y-50654189D01*
X30395297Y-50206532D01*
X30204766Y-49850073D01*
X29863609Y-49663997D01*
X28373605Y-51154000D01*
X28014395Y-51154000D01*
X26524391Y-49663997D01*
X26352000Y-49758024D01*
X26352000Y-49484391D01*
X26703997Y-49484391D01*
X28194000Y-50974395D01*
X29684003Y-49484391D01*
X29497927Y-49143234D01*
X29080591Y-48927487D01*
X28629185Y-48797304D01*
X28161054Y-48757687D01*
X27694189Y-48810158D01*
X27246532Y-48952703D01*
X26890073Y-49143234D01*
X26703997Y-49484391D01*
X26352000Y-49484391D01*
X26352000Y-40157609D01*
X26703997Y-40157609D01*
X26890073Y-40498766D01*
X27307409Y-40714513D01*
X27758815Y-40844696D01*
X28226946Y-40884313D01*
X28693811Y-40831842D01*
X29141468Y-40689297D01*
X29497927Y-40498766D01*
X29684003Y-40157609D01*
X28194000Y-38667605D01*
X26703997Y-40157609D01*
X26352000Y-40157609D01*
X26352000Y-39883976D01*
X26524391Y-39978003D01*
X28014395Y-38488000D01*
X28373605Y-38488000D01*
X29863609Y-39978003D01*
X30204766Y-39791927D01*
X30420513Y-39374591D01*
X30550696Y-38923185D01*
X30590313Y-38455054D01*
X30537842Y-37988189D01*
X30395297Y-37540532D01*
X30204766Y-37184073D01*
X29863609Y-36997997D01*
X28373605Y-38488000D01*
X28014395Y-38488000D01*
X26524391Y-36997997D01*
X26352000Y-37092024D01*
X26352000Y-36818391D01*
X26703997Y-36818391D01*
X28194000Y-38308395D01*
X29684003Y-36818391D01*
X29497927Y-36477234D01*
X29080591Y-36261487D01*
X28629185Y-36131304D01*
X28161054Y-36091687D01*
X27694189Y-36144158D01*
X27246532Y-36286703D01*
X26890073Y-36477234D01*
X26703997Y-36818391D01*
X26352000Y-36818391D01*
X26352000Y-33779338D01*
X34007000Y-33779338D01*
X34007000Y-34306662D01*
X34109875Y-34823852D01*
X34311673Y-35311035D01*
X34604638Y-35749488D01*
X34977512Y-36122362D01*
X35191733Y-36265500D01*
X34977512Y-36408638D01*
X34604638Y-36781512D01*
X34311673Y-37219965D01*
X34109875Y-37707148D01*
X34007000Y-38224338D01*
X34007000Y-38751662D01*
X34109875Y-39268852D01*
X34311673Y-39756035D01*
X34604638Y-40194488D01*
X34977512Y-40567362D01*
X35191733Y-40710500D01*
X34977512Y-40853638D01*
X34604638Y-41226512D01*
X34311673Y-41664965D01*
X34109875Y-42152148D01*
X34007000Y-42669338D01*
X34007000Y-43196662D01*
X34109875Y-43713852D01*
X34311673Y-44201035D01*
X34604638Y-44639488D01*
X34786150Y-44821000D01*
X34604638Y-45002512D01*
X34311673Y-45440965D01*
X34109875Y-45928148D01*
X34007000Y-46445338D01*
X34007000Y-46972662D01*
X34109875Y-47489852D01*
X34311673Y-47977035D01*
X34604638Y-48415488D01*
X34977512Y-48788362D01*
X35191733Y-48931500D01*
X34977512Y-49074638D01*
X34604638Y-49447512D01*
X34311673Y-49885965D01*
X34109875Y-50373148D01*
X34007000Y-50890338D01*
X34007000Y-51417662D01*
X34109875Y-51934852D01*
X34311673Y-52422035D01*
X34604638Y-52860488D01*
X34977512Y-53233362D01*
X35191733Y-53376500D01*
X34977512Y-53519638D01*
X34604638Y-53892512D01*
X34311673Y-54330965D01*
X34109875Y-54818148D01*
X34007000Y-55335338D01*
X34007000Y-55862662D01*
X34109875Y-56379852D01*
X34311673Y-56867035D01*
X34604638Y-57305488D01*
X34977512Y-57678362D01*
X35415965Y-57971327D01*
X35903148Y-58173125D01*
X36420338Y-58276000D01*
X36947662Y-58276000D01*
X37464852Y-58173125D01*
X37952035Y-57971327D01*
X38390488Y-57678362D01*
X38763362Y-57305488D01*
X39056327Y-56867035D01*
X39258125Y-56379852D01*
X39361000Y-55862662D01*
X39361000Y-55335338D01*
X39258125Y-54818148D01*
X39056327Y-54330965D01*
X38763362Y-53892512D01*
X38390488Y-53519638D01*
X38176267Y-53376500D01*
X38390488Y-53233362D01*
X38763362Y-52860488D01*
X39016928Y-52481000D01*
X40061912Y-52481000D01*
X40132000Y-52487903D01*
X40202088Y-52481000D01*
X40202098Y-52481000D01*
X40411741Y-52460352D01*
X40483001Y-52438736D01*
X40483000Y-66337140D01*
X40379553Y-66491959D01*
X40249368Y-66806253D01*
X40183000Y-67139905D01*
X40183000Y-67480095D01*
X40249368Y-67813747D01*
X40379553Y-68128041D01*
X40568552Y-68410898D01*
X40809102Y-68651448D01*
X41091959Y-68840447D01*
X41406253Y-68970632D01*
X41739905Y-69037000D01*
X42080095Y-69037000D01*
X42413747Y-68970632D01*
X42645126Y-68874792D01*
X41906918Y-69613000D01*
X39240035Y-69613000D01*
X39202327Y-69521965D01*
X38909362Y-69083512D01*
X38536488Y-68710638D01*
X38322267Y-68567500D01*
X38536488Y-68424362D01*
X38909362Y-68051488D01*
X39202327Y-67613035D01*
X39404125Y-67125852D01*
X39507000Y-66608662D01*
X39507000Y-66081338D01*
X39404125Y-65564148D01*
X39202327Y-65076965D01*
X38909362Y-64638512D01*
X38536488Y-64265638D01*
X38098035Y-63972673D01*
X37610852Y-63770875D01*
X37093662Y-63668000D01*
X36566338Y-63668000D01*
X36049148Y-63770875D01*
X35561965Y-63972673D01*
X35123512Y-64265638D01*
X34750638Y-64638512D01*
X34457673Y-65076965D01*
X34255875Y-65564148D01*
X34153000Y-66081338D01*
X34153000Y-66608662D01*
X34255875Y-67125852D01*
X34457673Y-67613035D01*
X34750638Y-68051488D01*
X35123512Y-68424362D01*
X35337733Y-68567500D01*
X35123512Y-68710638D01*
X34750638Y-69083512D01*
X34457673Y-69521965D01*
X34255875Y-70009148D01*
X34153000Y-70526338D01*
X34153000Y-71053662D01*
X34255875Y-71570852D01*
X34457673Y-72058035D01*
X34750638Y-72496488D01*
X35123512Y-72869362D01*
X35337733Y-73012500D01*
X35123512Y-73155638D01*
X34750638Y-73528512D01*
X34457673Y-73966965D01*
X34255875Y-74454148D01*
X34153000Y-74971338D01*
X34153000Y-75498662D01*
X34255875Y-76015852D01*
X34457673Y-76503035D01*
X34750638Y-76941488D01*
X35123512Y-77314362D01*
X35561965Y-77607327D01*
X36049148Y-77809125D01*
X36566338Y-77912000D01*
X37093662Y-77912000D01*
X37610852Y-77809125D01*
X38098035Y-77607327D01*
X38536488Y-77314362D01*
X38909362Y-76941488D01*
X39202327Y-76503035D01*
X39404125Y-76015852D01*
X39507000Y-75498662D01*
X39507000Y-74971338D01*
X39404125Y-74454148D01*
X39202327Y-73966965D01*
X38909362Y-73528512D01*
X38536488Y-73155638D01*
X38322267Y-73012500D01*
X38536488Y-72869362D01*
X38909362Y-72496488D01*
X38929065Y-72467000D01*
X42427912Y-72467000D01*
X42498000Y-72473903D01*
X42568088Y-72467000D01*
X42568098Y-72467000D01*
X42777741Y-72446352D01*
X43046731Y-72364755D01*
X43294634Y-72232248D01*
X43511923Y-72053923D01*
X43556609Y-71999473D01*
X45663478Y-69892605D01*
X45717923Y-69847923D01*
X45762605Y-69793478D01*
X45762608Y-69793475D01*
X45896247Y-69630635D01*
X45896248Y-69630634D01*
X46028755Y-69382731D01*
X46110352Y-69113741D01*
X46131000Y-68904098D01*
X46131000Y-68904089D01*
X46137903Y-68834001D01*
X46131000Y-68763913D01*
X46131000Y-59403481D01*
X46146896Y-59384112D01*
X46307260Y-59084092D01*
X46406012Y-58758551D01*
X46439356Y-58420000D01*
X46406012Y-58081449D01*
X46307260Y-57755908D01*
X46146896Y-57455888D01*
X45931082Y-57192918D01*
X45668112Y-56977104D01*
X45368092Y-56816740D01*
X45042551Y-56717988D01*
X44788841Y-56693000D01*
X44619159Y-56693000D01*
X44365449Y-56717988D01*
X44039908Y-56816740D01*
X43739888Y-56977104D01*
X43476918Y-57192918D01*
X43337000Y-57363408D01*
X43337000Y-52367082D01*
X45787124Y-49916958D01*
X45969747Y-49880632D01*
X46284041Y-49750447D01*
X46566898Y-49561448D01*
X46807448Y-49320898D01*
X46996447Y-49038041D01*
X47126632Y-48723747D01*
X47193000Y-48390095D01*
X47193000Y-48049905D01*
X47126632Y-47716253D01*
X46996447Y-47401959D01*
X46874660Y-47219692D01*
X46924659Y-47178659D01*
X47040501Y-47037505D01*
X47126580Y-46876464D01*
X47179587Y-46701724D01*
X47197485Y-46520000D01*
X47197485Y-44920000D01*
X47179587Y-44738276D01*
X47126580Y-44563536D01*
X47040501Y-44402495D01*
X46924659Y-44261341D01*
X46893000Y-44235359D01*
X46893000Y-43990087D01*
X46899903Y-43919999D01*
X46893000Y-43849911D01*
X46893000Y-43849902D01*
X46872352Y-43640259D01*
X46790755Y-43371269D01*
X46658248Y-43123366D01*
X46479923Y-42906077D01*
X46425472Y-42861390D01*
X41292610Y-37728528D01*
X41247923Y-37674077D01*
X41030634Y-37495752D01*
X40782731Y-37363245D01*
X40513741Y-37281648D01*
X40304098Y-37261000D01*
X40304088Y-37261000D01*
X40234000Y-37254097D01*
X40163912Y-37261000D01*
X39073324Y-37261000D01*
X39056327Y-37219965D01*
X38763362Y-36781512D01*
X38390488Y-36408638D01*
X38176267Y-36265500D01*
X38390488Y-36122362D01*
X38763362Y-35749488D01*
X39056327Y-35311035D01*
X39258125Y-34823852D01*
X39361000Y-34306662D01*
X39361000Y-33779338D01*
X39258125Y-33262148D01*
X39056327Y-32774965D01*
X38763362Y-32336512D01*
X38390488Y-31963638D01*
X37952035Y-31670673D01*
X37464852Y-31468875D01*
X36947662Y-31366000D01*
X36420338Y-31366000D01*
X35903148Y-31468875D01*
X35415965Y-31670673D01*
X34977512Y-31963638D01*
X34604638Y-32336512D01*
X34311673Y-32774965D01*
X34109875Y-33262148D01*
X34007000Y-33779338D01*
X26352000Y-33779338D01*
X26352000Y-21272000D01*
X29230321Y-21272000D01*
X29127526Y-21314579D01*
X29127526Y-21314579D01*
G37*
X29127526Y-21314579D02*
X28607181Y-21662263D01*
X28164663Y-22104781D01*
X27816979Y-22625126D01*
X27577490Y-23203303D01*
X27455400Y-23817093D01*
X27455400Y-24442907D01*
X27577490Y-25056697D01*
X27816979Y-25634874D01*
X28164663Y-26155219D01*
X28708781Y-26699337D01*
X29229126Y-27047021D01*
X29807303Y-27286510D01*
X30421093Y-27408600D01*
X31046907Y-27408600D01*
X31660697Y-27286510D01*
X32238874Y-27047021D01*
X32759219Y-26699337D01*
X33201737Y-26256819D01*
X33549421Y-25736474D01*
X33788910Y-25158297D01*
X33911000Y-24544507D01*
X33911000Y-23918693D01*
X33788910Y-23304903D01*
X33549421Y-22726726D01*
X33498809Y-22650980D01*
X33498621Y-22650526D01*
X33150937Y-22130181D01*
X32708419Y-21687663D01*
X32188074Y-21339979D01*
X32154434Y-21326045D01*
X32137274Y-21314579D01*
X32034479Y-21272000D01*
X59788642Y-21272000D01*
X59624526Y-21339979D01*
X59104181Y-21687663D01*
X58661663Y-22130181D01*
X58313979Y-22650526D01*
X58074490Y-23228703D01*
X57952400Y-23842493D01*
X57952400Y-24468307D01*
X58074490Y-25082097D01*
X58313979Y-25660274D01*
X58661663Y-26180619D01*
X59104181Y-26623137D01*
X59624526Y-26970821D01*
X60202703Y-27210310D01*
X60816493Y-27332400D01*
X61442307Y-27332400D01*
X62056097Y-27210310D01*
X62634274Y-26970821D01*
X63154619Y-26623137D01*
X63597137Y-26180619D01*
X63944821Y-25660274D01*
X64184310Y-25082097D01*
X64306400Y-24468307D01*
X64306400Y-23842493D01*
X64184310Y-23228703D01*
X63944821Y-22650526D01*
X63597137Y-22130181D01*
X63154619Y-21687663D01*
X62634274Y-21339979D01*
X62470158Y-21272000D01*
X75299872Y-21272000D01*
X75374213Y-87249000D01*
X73824583Y-87249000D01*
X73915641Y-87126920D01*
X74040825Y-86864099D01*
X74085476Y-86716890D01*
X73964155Y-86487000D01*
X72771000Y-86487000D01*
X72771000Y-86507000D01*
X72517000Y-86507000D01*
X72517000Y-86487000D01*
X71323845Y-86487000D01*
X71202524Y-86716890D01*
X71247175Y-86864099D01*
X71372359Y-87126920D01*
X71463417Y-87249000D01*
X51306715Y-87249000D01*
X51138551Y-87197988D01*
X50884841Y-87173000D01*
X50715159Y-87173000D01*
X50461449Y-87197988D01*
X50293285Y-87249000D01*
X48417000Y-87249000D01*
X48417000Y-84472562D01*
X48544642Y-84459990D01*
X48818345Y-84376963D01*
X49070591Y-84242135D01*
X49084159Y-84231000D01*
X58018649Y-84231000D01*
X58249905Y-84277000D01*
X58590095Y-84277000D01*
X58923747Y-84210632D01*
X59238041Y-84080447D01*
X59520898Y-83891448D01*
X59761448Y-83650898D01*
X59950447Y-83368041D01*
X60080632Y-83053747D01*
X60111405Y-82899039D01*
X64648096Y-82899039D01*
X64688754Y-83033087D01*
X64808963Y-83287420D01*
X64976481Y-83513414D01*
X65184869Y-83702385D01*
X65426119Y-83847070D01*
X65690960Y-83941909D01*
X65913000Y-83820624D01*
X65913000Y-82677000D01*
X66167000Y-82677000D01*
X66167000Y-83820624D01*
X66389040Y-83941909D01*
X66653881Y-83847070D01*
X66895131Y-83702385D01*
X67103519Y-83513414D01*
X67271037Y-83287420D01*
X67391246Y-83033087D01*
X67431904Y-82899039D01*
X67309915Y-82677000D01*
X66167000Y-82677000D01*
X65913000Y-82677000D01*
X64770085Y-82677000D01*
X64648096Y-82899039D01*
X60111405Y-82899039D01*
X60147000Y-82720095D01*
X60147000Y-82379905D01*
X60111406Y-82200961D01*
X64648096Y-82200961D01*
X64770085Y-82423000D01*
X65913000Y-82423000D01*
X65913000Y-81279376D01*
X66167000Y-81279376D01*
X66167000Y-82423000D01*
X67309915Y-82423000D01*
X67431904Y-82200961D01*
X67391246Y-82066913D01*
X67271037Y-81812580D01*
X67103519Y-81586586D01*
X66895131Y-81397615D01*
X66653881Y-81252930D01*
X66389040Y-81158091D01*
X66167000Y-81279376D01*
X65913000Y-81279376D01*
X65690960Y-81158091D01*
X65426119Y-81252930D01*
X65184869Y-81397615D01*
X64976481Y-81586586D01*
X64808963Y-81812580D01*
X64688754Y-82066913D01*
X64648096Y-82200961D01*
X60111406Y-82200961D01*
X60080632Y-82046253D01*
X59950447Y-81731959D01*
X59847000Y-81577140D01*
X59847000Y-70833481D01*
X59862896Y-70814112D01*
X60023260Y-70514092D01*
X60122012Y-70188551D01*
X60155356Y-69850000D01*
X60122012Y-69511449D01*
X60023260Y-69185908D01*
X59862896Y-68885888D01*
X59847000Y-68866519D01*
X59847000Y-64770000D01*
X60494644Y-64770000D01*
X60527988Y-65108551D01*
X60626740Y-65434092D01*
X60787104Y-65734112D01*
X61002918Y-65997082D01*
X61265888Y-66212896D01*
X61565908Y-66373260D01*
X61891449Y-66472012D01*
X61916386Y-66474468D01*
X65883000Y-70441083D01*
X65883001Y-73690731D01*
X65734190Y-73586036D01*
X65672663Y-73594728D01*
X65463118Y-73687725D01*
X65275742Y-73819816D01*
X65117736Y-73985924D01*
X64995172Y-74179666D01*
X64912761Y-74393596D01*
X64873669Y-74619493D01*
X65033402Y-74803000D01*
X65858000Y-74803000D01*
X65858000Y-75057000D01*
X65033402Y-75057000D01*
X64873669Y-75240507D01*
X64912761Y-75466404D01*
X64995172Y-75680334D01*
X65117736Y-75874076D01*
X65275742Y-76040184D01*
X65463118Y-76172275D01*
X65672663Y-76265272D01*
X65734190Y-76273964D01*
X65913000Y-76148163D01*
X65913000Y-75551691D01*
X65962037Y-75713344D01*
X66096865Y-75965590D01*
X66167000Y-76051049D01*
X66167000Y-76148163D01*
X66345810Y-76273964D01*
X66378957Y-76269281D01*
X66499409Y-76368135D01*
X66751655Y-76502963D01*
X67025358Y-76585990D01*
X67310000Y-76614025D01*
X67594641Y-76585990D01*
X67721437Y-76547527D01*
X67873276Y-76593587D01*
X68055000Y-76611485D01*
X69105000Y-76611485D01*
X69286724Y-76593587D01*
X69461464Y-76540580D01*
X69615281Y-76458363D01*
X71217001Y-78060083D01*
X71217000Y-82757704D01*
X71159330Y-82827975D01*
X70994323Y-83136681D01*
X70892712Y-83471647D01*
X70858402Y-83820000D01*
X70892712Y-84168353D01*
X70994323Y-84503319D01*
X71159330Y-84812025D01*
X71381392Y-85082608D01*
X71628694Y-85285564D01*
X71546412Y-85359731D01*
X71372359Y-85593080D01*
X71247175Y-85855901D01*
X71202524Y-86003110D01*
X71323845Y-86233000D01*
X72517000Y-86233000D01*
X72517000Y-86213000D01*
X72771000Y-86213000D01*
X72771000Y-86233000D01*
X73964155Y-86233000D01*
X74085476Y-86003110D01*
X74040825Y-85855901D01*
X73915641Y-85593080D01*
X73741588Y-85359731D01*
X73659306Y-85285564D01*
X73906608Y-85082608D01*
X74128670Y-84812025D01*
X74293677Y-84503319D01*
X74395288Y-84168353D01*
X74429598Y-83820000D01*
X74395288Y-83471647D01*
X74293677Y-83136681D01*
X74128670Y-82827975D01*
X74071000Y-82757704D01*
X74071000Y-77539087D01*
X74077903Y-77468999D01*
X74071000Y-77398911D01*
X74071000Y-77398902D01*
X74050352Y-77189259D01*
X73968755Y-76920269D01*
X73836248Y-76672366D01*
X73657923Y-76455077D01*
X73603472Y-76410390D01*
X71163610Y-73970528D01*
X71118923Y-73916077D01*
X70901634Y-73737752D01*
X70653731Y-73605245D01*
X70384741Y-73523648D01*
X70175098Y-73503000D01*
X70175088Y-73503000D01*
X70105000Y-73496097D01*
X70034912Y-73503000D01*
X69741310Y-73503000D01*
X69622505Y-73405499D01*
X69461464Y-73319420D01*
X69286724Y-73266413D01*
X69105000Y-73248515D01*
X68737000Y-73248515D01*
X68737000Y-69920090D01*
X68743903Y-69850000D01*
X68737000Y-69779910D01*
X68737000Y-69779902D01*
X68716352Y-69570259D01*
X68634755Y-69301269D01*
X68502248Y-69053366D01*
X68476506Y-69022000D01*
X68368608Y-68890525D01*
X68368601Y-68890518D01*
X68323922Y-68836077D01*
X68269483Y-68791400D01*
X63934468Y-64456386D01*
X63932012Y-64431449D01*
X63833260Y-64105908D01*
X63672896Y-63805888D01*
X63457082Y-63542918D01*
X63194112Y-63327104D01*
X62894092Y-63166740D01*
X62568551Y-63067988D01*
X62314841Y-63043000D01*
X62145159Y-63043000D01*
X61891449Y-63067988D01*
X61565908Y-63166740D01*
X61265888Y-63327104D01*
X61002918Y-63542918D01*
X60787104Y-63805888D01*
X60626740Y-64105908D01*
X60527988Y-64431449D01*
X60494644Y-64770000D01*
X59847000Y-64770000D01*
X59847000Y-59904641D01*
X59878659Y-59878659D01*
X59994501Y-59737505D01*
X60080580Y-59576464D01*
X60133587Y-59401724D01*
X60151485Y-59220000D01*
X60151485Y-57620000D01*
X60133587Y-57438276D01*
X60080580Y-57263536D01*
X59994501Y-57102495D01*
X59878659Y-56961341D01*
X59737505Y-56845499D01*
X59576464Y-56759420D01*
X59401724Y-56706413D01*
X59220000Y-56688515D01*
X57620000Y-56688515D01*
X57438276Y-56706413D01*
X57263536Y-56759420D01*
X57102495Y-56845499D01*
X56961341Y-56961341D01*
X56920308Y-57011340D01*
X56738041Y-56889553D01*
X56423747Y-56759368D01*
X56090095Y-56693000D01*
X55749905Y-56693000D01*
X55416253Y-56759368D01*
X55101959Y-56889553D01*
X54947140Y-56993000D01*
X53296860Y-56993000D01*
X53142041Y-56889553D01*
X52827747Y-56759368D01*
X52494095Y-56693000D01*
X52153905Y-56693000D01*
X51820253Y-56759368D01*
X51505959Y-56889553D01*
X51223102Y-57078552D01*
X50982552Y-57319102D01*
X50793553Y-57601959D01*
X50663368Y-57916253D01*
X50597000Y-58249905D01*
X50597000Y-58590095D01*
X50663368Y-58923747D01*
X50793553Y-59238041D01*
X50982552Y-59520898D01*
X51223102Y-59761448D01*
X51505959Y-59950447D01*
X51820253Y-60080632D01*
X52153905Y-60147000D01*
X52494095Y-60147000D01*
X52827747Y-60080632D01*
X53142041Y-59950447D01*
X53296860Y-59847000D01*
X54947140Y-59847000D01*
X55101959Y-59950447D01*
X55416253Y-60080632D01*
X55749905Y-60147000D01*
X56090095Y-60147000D01*
X56423747Y-60080632D01*
X56738041Y-59950447D01*
X56920308Y-59828660D01*
X56961341Y-59878659D01*
X56993000Y-59904641D01*
X56993001Y-68866518D01*
X56977104Y-68885888D01*
X56816740Y-69185908D01*
X56717988Y-69511449D01*
X56684644Y-69850000D01*
X56717988Y-70188551D01*
X56816740Y-70514092D01*
X56977104Y-70814112D01*
X56993000Y-70833481D01*
X56993001Y-81377000D01*
X49084158Y-81377000D01*
X49070590Y-81365865D01*
X48818344Y-81231037D01*
X48611723Y-81168359D01*
X53661125Y-76118958D01*
X53843747Y-76082632D01*
X54158041Y-75952447D01*
X54440898Y-75763448D01*
X54681448Y-75522898D01*
X54870447Y-75240041D01*
X55000632Y-74925747D01*
X55067000Y-74592095D01*
X55067000Y-74251905D01*
X55000632Y-73918253D01*
X54870447Y-73603959D01*
X54681448Y-73321102D01*
X54440898Y-73080552D01*
X54158041Y-72891553D01*
X53843747Y-72761368D01*
X53510095Y-72695000D01*
X53169905Y-72695000D01*
X52836253Y-72761368D01*
X52521959Y-72891553D01*
X52239102Y-73080552D01*
X51998552Y-73321102D01*
X51809553Y-73603959D01*
X51679368Y-73918253D01*
X51643042Y-74100875D01*
X47147000Y-78596918D01*
X47147000Y-75513825D01*
X47241923Y-75435923D01*
X47286610Y-75381472D01*
X51086597Y-71581485D01*
X51600000Y-71581485D01*
X51781724Y-71563587D01*
X51956464Y-71510580D01*
X52117505Y-71424501D01*
X52258659Y-71308659D01*
X52374501Y-71167505D01*
X52460580Y-71006464D01*
X52513587Y-70831724D01*
X52531485Y-70650000D01*
X52531485Y-70136597D01*
X55569478Y-67098605D01*
X55623923Y-67053923D01*
X55668605Y-66999478D01*
X55668608Y-66999475D01*
X55802248Y-66836635D01*
X55873074Y-66704128D01*
X55934755Y-66588731D01*
X56016352Y-66319741D01*
X56037000Y-66110098D01*
X56037000Y-66110090D01*
X56043903Y-66040000D01*
X56037000Y-65969910D01*
X56037000Y-65742860D01*
X56140447Y-65588041D01*
X56270632Y-65273747D01*
X56337000Y-64940095D01*
X56337000Y-64599905D01*
X56270632Y-64266253D01*
X56140447Y-63951959D01*
X55951448Y-63669102D01*
X55710898Y-63428552D01*
X55428041Y-63239553D01*
X55113747Y-63109368D01*
X54780095Y-63043000D01*
X54439905Y-63043000D01*
X54106253Y-63109368D01*
X53791959Y-63239553D01*
X53509102Y-63428552D01*
X53268552Y-63669102D01*
X53079553Y-63951959D01*
X52949368Y-64266253D01*
X52883000Y-64599905D01*
X52883000Y-64940095D01*
X52949368Y-65273747D01*
X53069103Y-65562814D01*
X50513403Y-68118515D01*
X50000000Y-68118515D01*
X49818276Y-68136413D01*
X49643536Y-68189420D01*
X49482495Y-68275499D01*
X49341341Y-68391341D01*
X49225499Y-68532495D01*
X49139420Y-68693536D01*
X49086413Y-68868276D01*
X49068515Y-69050000D01*
X49068515Y-69563403D01*
X45925076Y-72706842D01*
X45804841Y-72695000D01*
X45635159Y-72695000D01*
X45381449Y-72719988D01*
X45055908Y-72818740D01*
X44755888Y-72979104D01*
X44492918Y-73194918D01*
X44277104Y-73457888D01*
X44116740Y-73757908D01*
X44017988Y-74083449D01*
X43984644Y-74422000D01*
X44017988Y-74760551D01*
X44116740Y-75086092D01*
X44277104Y-75386112D01*
X44293001Y-75405482D01*
X44293000Y-81834079D01*
X44281413Y-81872276D01*
X44263515Y-82054000D01*
X44263515Y-83554000D01*
X44281413Y-83735724D01*
X44334420Y-83910464D01*
X44420499Y-84071505D01*
X44536341Y-84212659D01*
X44677495Y-84328501D01*
X44838536Y-84414580D01*
X45013276Y-84467587D01*
X45195000Y-84485485D01*
X45563001Y-84485485D01*
X45563000Y-87249000D01*
X43707001Y-87249000D01*
X43683747Y-87239368D01*
X43501124Y-87203042D01*
X43337000Y-87038918D01*
X43337000Y-75913481D01*
X43352896Y-75894112D01*
X43513260Y-75594092D01*
X43612012Y-75268551D01*
X43645356Y-74930000D01*
X43612012Y-74591449D01*
X43513260Y-74265908D01*
X43352896Y-73965888D01*
X43137082Y-73702918D01*
X42874112Y-73487104D01*
X42574092Y-73326740D01*
X42248551Y-73227988D01*
X41994841Y-73203000D01*
X41825159Y-73203000D01*
X41571449Y-73227988D01*
X41245908Y-73326740D01*
X40945888Y-73487104D01*
X40682918Y-73702918D01*
X40467104Y-73965888D01*
X40306740Y-74265908D01*
X40207988Y-74591449D01*
X40174644Y-74930000D01*
X40207988Y-75268551D01*
X40306740Y-75594092D01*
X40467104Y-75894112D01*
X40483000Y-75913481D01*
X40483001Y-87249000D01*
X26352000Y-87249000D01*
X26352000Y-86082702D01*
X37286903Y-86082702D01*
X37358486Y-86326671D01*
X37613996Y-86447571D01*
X37888184Y-86516300D01*
X38170512Y-86530217D01*
X38450130Y-86488787D01*
X38716292Y-86393603D01*
X38841514Y-86326671D01*
X38913097Y-86082702D01*
X38100000Y-85269605D01*
X37286903Y-86082702D01*
X26352000Y-86082702D01*
X26352000Y-85160512D01*
X36659783Y-85160512D01*
X36701213Y-85440130D01*
X36796397Y-85706292D01*
X36863329Y-85831514D01*
X37107298Y-85903097D01*
X37920395Y-85090000D01*
X38279605Y-85090000D01*
X39092702Y-85903097D01*
X39336671Y-85831514D01*
X39457571Y-85576004D01*
X39526300Y-85301816D01*
X39540217Y-85019488D01*
X39498787Y-84739870D01*
X39403603Y-84473708D01*
X39336671Y-84348486D01*
X39092702Y-84276903D01*
X38279605Y-85090000D01*
X37920395Y-85090000D01*
X37107298Y-84276903D01*
X36863329Y-84348486D01*
X36742429Y-84603996D01*
X36673700Y-84878184D01*
X36659783Y-85160512D01*
X26352000Y-85160512D01*
X26352000Y-84097298D01*
X37286903Y-84097298D01*
X38100000Y-84910395D01*
X38913097Y-84097298D01*
X38841514Y-83853329D01*
X38586004Y-83732429D01*
X38311816Y-83663700D01*
X38029488Y-83649783D01*
X37749870Y-83691213D01*
X37483708Y-83786397D01*
X37358486Y-83853329D01*
X37286903Y-84097298D01*
X26352000Y-84097298D01*
X26352000Y-72459609D01*
X26849997Y-72459609D01*
X27036073Y-72800766D01*
X27453409Y-73016513D01*
X27904815Y-73146696D01*
X28372946Y-73186313D01*
X28839811Y-73133842D01*
X29287468Y-72991297D01*
X29643927Y-72800766D01*
X29830003Y-72459609D01*
X28340000Y-70969605D01*
X26849997Y-72459609D01*
X26352000Y-72459609D01*
X26352000Y-72106344D01*
X26670391Y-72280003D01*
X28160395Y-70790000D01*
X28519605Y-70790000D01*
X30009609Y-72280003D01*
X30350766Y-72093927D01*
X30566513Y-71676591D01*
X30696696Y-71225185D01*
X30736313Y-70757054D01*
X30683842Y-70290189D01*
X30541297Y-69842532D01*
X30350766Y-69486073D01*
X30009609Y-69299997D01*
X28519605Y-70790000D01*
X28160395Y-70790000D01*
X26670391Y-69299997D01*
X26352000Y-69473656D01*
X26352000Y-69120391D01*
X26849997Y-69120391D01*
X28340000Y-70610395D01*
X29830003Y-69120391D01*
X29643927Y-68779234D01*
X29226591Y-68563487D01*
X28775185Y-68433304D01*
X28307054Y-68393687D01*
X27840189Y-68446158D01*
X27392532Y-68588703D01*
X27036073Y-68779234D01*
X26849997Y-69120391D01*
X26352000Y-69120391D01*
X26352000Y-52823609D01*
X26703997Y-52823609D01*
X26890073Y-53164766D01*
X27307409Y-53380513D01*
X27758815Y-53510696D01*
X28226946Y-53550313D01*
X28693811Y-53497842D01*
X29141468Y-53355297D01*
X29497927Y-53164766D01*
X29684003Y-52823609D01*
X28194000Y-51333605D01*
X26703997Y-52823609D01*
X26352000Y-52823609D01*
X26352000Y-52549976D01*
X26524391Y-52644003D01*
X28014395Y-51154000D01*
X28373605Y-51154000D01*
X29863609Y-52644003D01*
X30204766Y-52457927D01*
X30420513Y-52040591D01*
X30550696Y-51589185D01*
X30590313Y-51121054D01*
X30537842Y-50654189D01*
X30395297Y-50206532D01*
X30204766Y-49850073D01*
X29863609Y-49663997D01*
X28373605Y-51154000D01*
X28014395Y-51154000D01*
X26524391Y-49663997D01*
X26352000Y-49758024D01*
X26352000Y-49484391D01*
X26703997Y-49484391D01*
X28194000Y-50974395D01*
X29684003Y-49484391D01*
X29497927Y-49143234D01*
X29080591Y-48927487D01*
X28629185Y-48797304D01*
X28161054Y-48757687D01*
X27694189Y-48810158D01*
X27246532Y-48952703D01*
X26890073Y-49143234D01*
X26703997Y-49484391D01*
X26352000Y-49484391D01*
X26352000Y-40157609D01*
X26703997Y-40157609D01*
X26890073Y-40498766D01*
X27307409Y-40714513D01*
X27758815Y-40844696D01*
X28226946Y-40884313D01*
X28693811Y-40831842D01*
X29141468Y-40689297D01*
X29497927Y-40498766D01*
X29684003Y-40157609D01*
X28194000Y-38667605D01*
X26703997Y-40157609D01*
X26352000Y-40157609D01*
X26352000Y-39883976D01*
X26524391Y-39978003D01*
X28014395Y-38488000D01*
X28373605Y-38488000D01*
X29863609Y-39978003D01*
X30204766Y-39791927D01*
X30420513Y-39374591D01*
X30550696Y-38923185D01*
X30590313Y-38455054D01*
X30537842Y-37988189D01*
X30395297Y-37540532D01*
X30204766Y-37184073D01*
X29863609Y-36997997D01*
X28373605Y-38488000D01*
X28014395Y-38488000D01*
X26524391Y-36997997D01*
X26352000Y-37092024D01*
X26352000Y-36818391D01*
X26703997Y-36818391D01*
X28194000Y-38308395D01*
X29684003Y-36818391D01*
X29497927Y-36477234D01*
X29080591Y-36261487D01*
X28629185Y-36131304D01*
X28161054Y-36091687D01*
X27694189Y-36144158D01*
X27246532Y-36286703D01*
X26890073Y-36477234D01*
X26703997Y-36818391D01*
X26352000Y-36818391D01*
X26352000Y-33779338D01*
X34007000Y-33779338D01*
X34007000Y-34306662D01*
X34109875Y-34823852D01*
X34311673Y-35311035D01*
X34604638Y-35749488D01*
X34977512Y-36122362D01*
X35191733Y-36265500D01*
X34977512Y-36408638D01*
X34604638Y-36781512D01*
X34311673Y-37219965D01*
X34109875Y-37707148D01*
X34007000Y-38224338D01*
X34007000Y-38751662D01*
X34109875Y-39268852D01*
X34311673Y-39756035D01*
X34604638Y-40194488D01*
X34977512Y-40567362D01*
X35191733Y-40710500D01*
X34977512Y-40853638D01*
X34604638Y-41226512D01*
X34311673Y-41664965D01*
X34109875Y-42152148D01*
X34007000Y-42669338D01*
X34007000Y-43196662D01*
X34109875Y-43713852D01*
X34311673Y-44201035D01*
X34604638Y-44639488D01*
X34786150Y-44821000D01*
X34604638Y-45002512D01*
X34311673Y-45440965D01*
X34109875Y-45928148D01*
X34007000Y-46445338D01*
X34007000Y-46972662D01*
X34109875Y-47489852D01*
X34311673Y-47977035D01*
X34604638Y-48415488D01*
X34977512Y-48788362D01*
X35191733Y-48931500D01*
X34977512Y-49074638D01*
X34604638Y-49447512D01*
X34311673Y-49885965D01*
X34109875Y-50373148D01*
X34007000Y-50890338D01*
X34007000Y-51417662D01*
X34109875Y-51934852D01*
X34311673Y-52422035D01*
X34604638Y-52860488D01*
X34977512Y-53233362D01*
X35191733Y-53376500D01*
X34977512Y-53519638D01*
X34604638Y-53892512D01*
X34311673Y-54330965D01*
X34109875Y-54818148D01*
X34007000Y-55335338D01*
X34007000Y-55862662D01*
X34109875Y-56379852D01*
X34311673Y-56867035D01*
X34604638Y-57305488D01*
X34977512Y-57678362D01*
X35415965Y-57971327D01*
X35903148Y-58173125D01*
X36420338Y-58276000D01*
X36947662Y-58276000D01*
X37464852Y-58173125D01*
X37952035Y-57971327D01*
X38390488Y-57678362D01*
X38763362Y-57305488D01*
X39056327Y-56867035D01*
X39258125Y-56379852D01*
X39361000Y-55862662D01*
X39361000Y-55335338D01*
X39258125Y-54818148D01*
X39056327Y-54330965D01*
X38763362Y-53892512D01*
X38390488Y-53519638D01*
X38176267Y-53376500D01*
X38390488Y-53233362D01*
X38763362Y-52860488D01*
X39016928Y-52481000D01*
X40061912Y-52481000D01*
X40132000Y-52487903D01*
X40202088Y-52481000D01*
X40202098Y-52481000D01*
X40411741Y-52460352D01*
X40483001Y-52438736D01*
X40483000Y-66337140D01*
X40379553Y-66491959D01*
X40249368Y-66806253D01*
X40183000Y-67139905D01*
X40183000Y-67480095D01*
X40249368Y-67813747D01*
X40379553Y-68128041D01*
X40568552Y-68410898D01*
X40809102Y-68651448D01*
X41091959Y-68840447D01*
X41406253Y-68970632D01*
X41739905Y-69037000D01*
X42080095Y-69037000D01*
X42413747Y-68970632D01*
X42645126Y-68874792D01*
X41906918Y-69613000D01*
X39240035Y-69613000D01*
X39202327Y-69521965D01*
X38909362Y-69083512D01*
X38536488Y-68710638D01*
X38322267Y-68567500D01*
X38536488Y-68424362D01*
X38909362Y-68051488D01*
X39202327Y-67613035D01*
X39404125Y-67125852D01*
X39507000Y-66608662D01*
X39507000Y-66081338D01*
X39404125Y-65564148D01*
X39202327Y-65076965D01*
X38909362Y-64638512D01*
X38536488Y-64265638D01*
X38098035Y-63972673D01*
X37610852Y-63770875D01*
X37093662Y-63668000D01*
X36566338Y-63668000D01*
X36049148Y-63770875D01*
X35561965Y-63972673D01*
X35123512Y-64265638D01*
X34750638Y-64638512D01*
X34457673Y-65076965D01*
X34255875Y-65564148D01*
X34153000Y-66081338D01*
X34153000Y-66608662D01*
X34255875Y-67125852D01*
X34457673Y-67613035D01*
X34750638Y-68051488D01*
X35123512Y-68424362D01*
X35337733Y-68567500D01*
X35123512Y-68710638D01*
X34750638Y-69083512D01*
X34457673Y-69521965D01*
X34255875Y-70009148D01*
X34153000Y-70526338D01*
X34153000Y-71053662D01*
X34255875Y-71570852D01*
X34457673Y-72058035D01*
X34750638Y-72496488D01*
X35123512Y-72869362D01*
X35337733Y-73012500D01*
X35123512Y-73155638D01*
X34750638Y-73528512D01*
X34457673Y-73966965D01*
X34255875Y-74454148D01*
X34153000Y-74971338D01*
X34153000Y-75498662D01*
X34255875Y-76015852D01*
X34457673Y-76503035D01*
X34750638Y-76941488D01*
X35123512Y-77314362D01*
X35561965Y-77607327D01*
X36049148Y-77809125D01*
X36566338Y-77912000D01*
X37093662Y-77912000D01*
X37610852Y-77809125D01*
X38098035Y-77607327D01*
X38536488Y-77314362D01*
X38909362Y-76941488D01*
X39202327Y-76503035D01*
X39404125Y-76015852D01*
X39507000Y-75498662D01*
X39507000Y-74971338D01*
X39404125Y-74454148D01*
X39202327Y-73966965D01*
X38909362Y-73528512D01*
X38536488Y-73155638D01*
X38322267Y-73012500D01*
X38536488Y-72869362D01*
X38909362Y-72496488D01*
X38929065Y-72467000D01*
X42427912Y-72467000D01*
X42498000Y-72473903D01*
X42568088Y-72467000D01*
X42568098Y-72467000D01*
X42777741Y-72446352D01*
X43046731Y-72364755D01*
X43294634Y-72232248D01*
X43511923Y-72053923D01*
X43556609Y-71999473D01*
X45663478Y-69892605D01*
X45717923Y-69847923D01*
X45762605Y-69793478D01*
X45762608Y-69793475D01*
X45896247Y-69630635D01*
X45896248Y-69630634D01*
X46028755Y-69382731D01*
X46110352Y-69113741D01*
X46131000Y-68904098D01*
X46131000Y-68904089D01*
X46137903Y-68834001D01*
X46131000Y-68763913D01*
X46131000Y-59403481D01*
X46146896Y-59384112D01*
X46307260Y-59084092D01*
X46406012Y-58758551D01*
X46439356Y-58420000D01*
X46406012Y-58081449D01*
X46307260Y-57755908D01*
X46146896Y-57455888D01*
X45931082Y-57192918D01*
X45668112Y-56977104D01*
X45368092Y-56816740D01*
X45042551Y-56717988D01*
X44788841Y-56693000D01*
X44619159Y-56693000D01*
X44365449Y-56717988D01*
X44039908Y-56816740D01*
X43739888Y-56977104D01*
X43476918Y-57192918D01*
X43337000Y-57363408D01*
X43337000Y-52367082D01*
X45787124Y-49916958D01*
X45969747Y-49880632D01*
X46284041Y-49750447D01*
X46566898Y-49561448D01*
X46807448Y-49320898D01*
X46996447Y-49038041D01*
X47126632Y-48723747D01*
X47193000Y-48390095D01*
X47193000Y-48049905D01*
X47126632Y-47716253D01*
X46996447Y-47401959D01*
X46874660Y-47219692D01*
X46924659Y-47178659D01*
X47040501Y-47037505D01*
X47126580Y-46876464D01*
X47179587Y-46701724D01*
X47197485Y-46520000D01*
X47197485Y-44920000D01*
X47179587Y-44738276D01*
X47126580Y-44563536D01*
X47040501Y-44402495D01*
X46924659Y-44261341D01*
X46893000Y-44235359D01*
X46893000Y-43990087D01*
X46899903Y-43919999D01*
X46893000Y-43849911D01*
X46893000Y-43849902D01*
X46872352Y-43640259D01*
X46790755Y-43371269D01*
X46658248Y-43123366D01*
X46479923Y-42906077D01*
X46425472Y-42861390D01*
X41292610Y-37728528D01*
X41247923Y-37674077D01*
X41030634Y-37495752D01*
X40782731Y-37363245D01*
X40513741Y-37281648D01*
X40304098Y-37261000D01*
X40304088Y-37261000D01*
X40234000Y-37254097D01*
X40163912Y-37261000D01*
X39073324Y-37261000D01*
X39056327Y-37219965D01*
X38763362Y-36781512D01*
X38390488Y-36408638D01*
X38176267Y-36265500D01*
X38390488Y-36122362D01*
X38763362Y-35749488D01*
X39056327Y-35311035D01*
X39258125Y-34823852D01*
X39361000Y-34306662D01*
X39361000Y-33779338D01*
X39258125Y-33262148D01*
X39056327Y-32774965D01*
X38763362Y-32336512D01*
X38390488Y-31963638D01*
X37952035Y-31670673D01*
X37464852Y-31468875D01*
X36947662Y-31366000D01*
X36420338Y-31366000D01*
X35903148Y-31468875D01*
X35415965Y-31670673D01*
X34977512Y-31963638D01*
X34604638Y-32336512D01*
X34311673Y-32774965D01*
X34109875Y-33262148D01*
X34007000Y-33779338D01*
X26352000Y-33779338D01*
X26352000Y-21272000D01*
X29230321Y-21272000D01*
X29127526Y-21314579D01*
G36*
X40585246Y-88178731D02*
G01*
X40717753Y-88426634D01*
X40851392Y-88589474D01*
X40851396Y-88589478D01*
X40896078Y-88643923D01*
X40950523Y-88688605D01*
X41483042Y-89221124D01*
X41519368Y-89403747D01*
X41649553Y-89718041D01*
X41838552Y-90000898D01*
X42079102Y-90241448D01*
X42361959Y-90430447D01*
X42676253Y-90560632D01*
X43009905Y-90627000D01*
X43350095Y-90627000D01*
X43683747Y-90560632D01*
X43998041Y-90430447D01*
X44280898Y-90241448D01*
X44521448Y-90000898D01*
X44710447Y-89718041D01*
X44840632Y-89403747D01*
X44907000Y-89070095D01*
X44907000Y-88729905D01*
X44840632Y-88396253D01*
X44710447Y-88081959D01*
X44663034Y-88011000D01*
X45563000Y-88011000D01*
X45563000Y-88039912D01*
X45556097Y-88110000D01*
X45563000Y-88180088D01*
X45563000Y-88180097D01*
X45583648Y-88389740D01*
X45665245Y-88658730D01*
X45794207Y-88900000D01*
X45797753Y-88906634D01*
X45931392Y-89069474D01*
X45931395Y-89069477D01*
X45976077Y-89123922D01*
X46030523Y-89168605D01*
X49261395Y-92399478D01*
X49306077Y-92453923D01*
X49360522Y-92498605D01*
X49360525Y-92498608D01*
X49451962Y-92573648D01*
X49523366Y-92632248D01*
X49771269Y-92764755D01*
X50040259Y-92846352D01*
X50249902Y-92867000D01*
X50249911Y-92867000D01*
X50319999Y-92873903D01*
X50390087Y-92867000D01*
X71217000Y-92867000D01*
X71217000Y-92917703D01*
X71159330Y-92987975D01*
X70994323Y-93296681D01*
X70892712Y-93631647D01*
X70858402Y-93980000D01*
X70892712Y-94328353D01*
X70994323Y-94663319D01*
X71159330Y-94972025D01*
X71217000Y-95042296D01*
X71217000Y-95093000D01*
X69552860Y-95093000D01*
X69398041Y-94989553D01*
X69083747Y-94859368D01*
X68750095Y-94793000D01*
X68409905Y-94793000D01*
X68076253Y-94859368D01*
X67761959Y-94989553D01*
X67607140Y-95093000D01*
X62891485Y-95093000D01*
X62891485Y-94250000D01*
X62873587Y-94068276D01*
X62820580Y-93893536D01*
X62734501Y-93732495D01*
X62618659Y-93591341D01*
X62477505Y-93475499D01*
X62316464Y-93389420D01*
X62141724Y-93336413D01*
X61960000Y-93318515D01*
X59960000Y-93318515D01*
X59778276Y-93336413D01*
X59603536Y-93389420D01*
X59442495Y-93475499D01*
X59301341Y-93591341D01*
X59185499Y-93732495D01*
X59137123Y-93823000D01*
X53569088Y-93823000D01*
X53499000Y-93816097D01*
X53428912Y-93823000D01*
X53428902Y-93823000D01*
X53219259Y-93843648D01*
X52950269Y-93925245D01*
X52702366Y-94057752D01*
X52702364Y-94057753D01*
X52702365Y-94057753D01*
X52539525Y-94191392D01*
X52539522Y-94191395D01*
X52485077Y-94236077D01*
X52440395Y-94290522D01*
X51364523Y-95366395D01*
X51310078Y-95411077D01*
X51265396Y-95465522D01*
X51265392Y-95465526D01*
X51131753Y-95628366D01*
X50999246Y-95876269D01*
X50917649Y-96145259D01*
X50890097Y-96425000D01*
X50897001Y-96495097D01*
X50897001Y-97153630D01*
X50851029Y-97209646D01*
X50650923Y-97049031D01*
X50375094Y-96905429D01*
X50156980Y-96834437D01*
X49911000Y-96954406D01*
X49911000Y-98298000D01*
X49931000Y-98298000D01*
X49931000Y-98552000D01*
X49911000Y-98552000D01*
X49911000Y-99895594D01*
X50156980Y-100015563D01*
X50375094Y-99944571D01*
X50650923Y-99800969D01*
X50851029Y-99640354D01*
X50988562Y-99807938D01*
X51274753Y-100042809D01*
X51601267Y-100217333D01*
X51955555Y-100324805D01*
X52324000Y-100361094D01*
X52692446Y-100324805D01*
X52732697Y-100312595D01*
X59318282Y-100312595D01*
X59362039Y-100631675D01*
X59467205Y-100936088D01*
X59560186Y-101110044D01*
X59824587Y-101205808D01*
X60780395Y-100250000D01*
X61139605Y-100250000D01*
X62095413Y-101205808D01*
X62359814Y-101110044D01*
X62500704Y-100820429D01*
X62577558Y-100527298D01*
X67766903Y-100527298D01*
X68580000Y-101340395D01*
X69393097Y-100527298D01*
X69321514Y-100283329D01*
X69066004Y-100162429D01*
X68791816Y-100093700D01*
X68509488Y-100079783D01*
X68229870Y-100121213D01*
X67963708Y-100216397D01*
X67838486Y-100283329D01*
X67766903Y-100527298D01*
X62577558Y-100527298D01*
X62582384Y-100508892D01*
X62601718Y-100187405D01*
X62563677Y-99910000D01*
X71155928Y-99910000D01*
X71168188Y-100034482D01*
X71204498Y-100154180D01*
X71263463Y-100264494D01*
X71342815Y-100361185D01*
X71439506Y-100440537D01*
X71549820Y-100499502D01*
X71669518Y-100535812D01*
X71794000Y-100548072D01*
X72358250Y-100545000D01*
X72517000Y-100386250D01*
X72517000Y-99187000D01*
X72771000Y-99187000D01*
X72771000Y-100386250D01*
X72929750Y-100545000D01*
X73494000Y-100548072D01*
X73618482Y-100535812D01*
X73738180Y-100499502D01*
X73848494Y-100440537D01*
X73945185Y-100361185D01*
X74024537Y-100264494D01*
X74083502Y-100154180D01*
X74119812Y-100034482D01*
X74132072Y-99910000D01*
X74129000Y-99345750D01*
X73970250Y-99187000D01*
X72771000Y-99187000D01*
X72517000Y-99187000D01*
X71317750Y-99187000D01*
X71159000Y-99345750D01*
X71155928Y-99910000D01*
X62563677Y-99910000D01*
X62557961Y-99868325D01*
X62452795Y-99563912D01*
X62359814Y-99389956D01*
X62095413Y-99294192D01*
X61139605Y-100250000D01*
X60780395Y-100250000D01*
X59824587Y-99294192D01*
X59560186Y-99389956D01*
X59419296Y-99679571D01*
X59337616Y-99991108D01*
X59318282Y-100312595D01*
X52732697Y-100312595D01*
X53046734Y-100217333D01*
X53373247Y-100042809D01*
X53659438Y-99807938D01*
X53894309Y-99521747D01*
X54068833Y-99195233D01*
X54093296Y-99114587D01*
X60004192Y-99114587D01*
X60960000Y-100070395D01*
X61915808Y-99114587D01*
X61820044Y-98850186D01*
X61530429Y-98709296D01*
X61218892Y-98627616D01*
X60897405Y-98608282D01*
X60578325Y-98652039D01*
X60273912Y-98757205D01*
X60099956Y-98850186D01*
X60004192Y-99114587D01*
X54093296Y-99114587D01*
X54176305Y-98840945D01*
X54203500Y-98564831D01*
X54203500Y-98285168D01*
X54176305Y-98009054D01*
X54068833Y-97654766D01*
X53894309Y-97328253D01*
X53751000Y-97153631D01*
X53751000Y-97016082D01*
X54090083Y-96677000D01*
X59137123Y-96677000D01*
X59185499Y-96767505D01*
X59301341Y-96908659D01*
X59442495Y-97024501D01*
X59603536Y-97110580D01*
X59778276Y-97163587D01*
X59960000Y-97181485D01*
X60873403Y-97181485D01*
X61171390Y-97479472D01*
X61216077Y-97533923D01*
X61433366Y-97712248D01*
X61681269Y-97844755D01*
X61950259Y-97926352D01*
X62159902Y-97947000D01*
X62159911Y-97947000D01*
X62229999Y-97953903D01*
X62300087Y-97947000D01*
X67607140Y-97947000D01*
X67761959Y-98050447D01*
X68076253Y-98180632D01*
X68409905Y-98247000D01*
X68750095Y-98247000D01*
X69083747Y-98180632D01*
X69398041Y-98050447D01*
X69552860Y-97947000D01*
X71214558Y-97947000D01*
X71204498Y-97965820D01*
X71168188Y-98085518D01*
X71155928Y-98210000D01*
X71159000Y-98774250D01*
X71317750Y-98933000D01*
X72517000Y-98933000D01*
X72517000Y-98913000D01*
X72771000Y-98913000D01*
X72771000Y-98933000D01*
X73970250Y-98933000D01*
X74129000Y-98774250D01*
X74132072Y-98210000D01*
X74119812Y-98085518D01*
X74083502Y-97965820D01*
X74024537Y-97855506D01*
X73945185Y-97758815D01*
X73933801Y-97749473D01*
X74128670Y-97512025D01*
X74293677Y-97203319D01*
X74395288Y-96868353D01*
X74429598Y-96520000D01*
X74395288Y-96171647D01*
X74293677Y-95836681D01*
X74128670Y-95527975D01*
X74071000Y-95457704D01*
X74071000Y-95042296D01*
X74128670Y-94972025D01*
X74293677Y-94663319D01*
X74395288Y-94328353D01*
X74429598Y-93980000D01*
X74395288Y-93631647D01*
X74293677Y-93296681D01*
X74128670Y-92987975D01*
X74071000Y-92917704D01*
X74071000Y-92502296D01*
X74128670Y-92432025D01*
X74293677Y-92123319D01*
X74395288Y-91788353D01*
X74429598Y-91440000D01*
X74395288Y-91091647D01*
X74293677Y-90756681D01*
X74128670Y-90447975D01*
X73906608Y-90177392D01*
X73897601Y-90170000D01*
X73906608Y-90162608D01*
X74128670Y-89892025D01*
X74293677Y-89583319D01*
X74395288Y-89248353D01*
X74429598Y-88900000D01*
X74395288Y-88551647D01*
X74293677Y-88216681D01*
X74183738Y-88011000D01*
X75375071Y-88011000D01*
X75399327Y-109538000D01*
X58592800Y-109538000D01*
X58634274Y-109520821D01*
X59154619Y-109173137D01*
X59597137Y-108730619D01*
X59944821Y-108210274D01*
X60184310Y-107632097D01*
X60306400Y-107018307D01*
X60306400Y-106392493D01*
X60184310Y-105778703D01*
X59944821Y-105200526D01*
X59597137Y-104680181D01*
X59154619Y-104237663D01*
X58634274Y-103889979D01*
X58056097Y-103650490D01*
X57442307Y-103528400D01*
X56816493Y-103528400D01*
X56202703Y-103650490D01*
X55624526Y-103889979D01*
X55104181Y-104237663D01*
X54661663Y-104680181D01*
X54313979Y-105200526D01*
X54074490Y-105778703D01*
X53952400Y-106392493D01*
X53952400Y-107018307D01*
X54074490Y-107632097D01*
X54313979Y-108210274D01*
X54661663Y-108730619D01*
X55104181Y-109173137D01*
X55624526Y-109520821D01*
X55666000Y-109538000D01*
X32110679Y-109538000D01*
X32213474Y-109495421D01*
X32733819Y-109147737D01*
X33176337Y-108705219D01*
X33524021Y-108184874D01*
X33763510Y-107606697D01*
X33885600Y-106992907D01*
X33885600Y-106367093D01*
X33763510Y-105753303D01*
X33524021Y-105175126D01*
X33176337Y-104654781D01*
X32733819Y-104212263D01*
X32213474Y-103864579D01*
X31635297Y-103625090D01*
X31021507Y-103503000D01*
X30395693Y-103503000D01*
X29781903Y-103625090D01*
X29203726Y-103864579D01*
X28683381Y-104212263D01*
X28240863Y-104654781D01*
X27893179Y-105175126D01*
X27653690Y-105753303D01*
X27531600Y-106367093D01*
X27531600Y-106992907D01*
X27653690Y-107606697D01*
X27893179Y-108184874D01*
X28240863Y-108705219D01*
X28683381Y-109147737D01*
X29203726Y-109495421D01*
X29306521Y-109538000D01*
X26352000Y-109538000D01*
X26352000Y-102020000D01*
X38223515Y-102020000D01*
X38223515Y-103720000D01*
X38241413Y-103901724D01*
X38294420Y-104076464D01*
X38380499Y-104237505D01*
X38496341Y-104378659D01*
X38637495Y-104494501D01*
X38798536Y-104580580D01*
X38973276Y-104633587D01*
X39155000Y-104651485D01*
X40855000Y-104651485D01*
X41036724Y-104633587D01*
X41211464Y-104580580D01*
X41372505Y-104494501D01*
X41513659Y-104378659D01*
X41541246Y-104345044D01*
X41552975Y-104354670D01*
X41861681Y-104519677D01*
X42196647Y-104621288D01*
X42457704Y-104647000D01*
X42632296Y-104647000D01*
X42893353Y-104621288D01*
X43228319Y-104519677D01*
X43537025Y-104354670D01*
X43737767Y-104189925D01*
X43976634Y-104062248D01*
X44193923Y-103883923D01*
X44238610Y-103829472D01*
X45555380Y-102512702D01*
X67766903Y-102512702D01*
X67838486Y-102756671D01*
X68093996Y-102877571D01*
X68368184Y-102946300D01*
X68650512Y-102960217D01*
X68930130Y-102918787D01*
X69196292Y-102823603D01*
X69321514Y-102756671D01*
X69393097Y-102512702D01*
X68580000Y-101699605D01*
X67766903Y-102512702D01*
X45555380Y-102512702D01*
X46682669Y-101385413D01*
X60004192Y-101385413D01*
X60099956Y-101649814D01*
X60389571Y-101790704D01*
X60701108Y-101872384D01*
X61022595Y-101891718D01*
X61341675Y-101847961D01*
X61646088Y-101742795D01*
X61820044Y-101649814D01*
X61841522Y-101590512D01*
X67139783Y-101590512D01*
X67181213Y-101870130D01*
X67276397Y-102136292D01*
X67343329Y-102261514D01*
X67587298Y-102333097D01*
X68400395Y-101520000D01*
X68759605Y-101520000D01*
X69572702Y-102333097D01*
X69816671Y-102261514D01*
X69937571Y-102006004D01*
X70006300Y-101731816D01*
X70020217Y-101449488D01*
X69978787Y-101169870D01*
X69883603Y-100903708D01*
X69816671Y-100778486D01*
X69572702Y-100706903D01*
X68759605Y-101520000D01*
X68400395Y-101520000D01*
X67587298Y-100706903D01*
X67343329Y-100778486D01*
X67222429Y-101033996D01*
X67153700Y-101308184D01*
X67139783Y-101590512D01*
X61841522Y-101590512D01*
X61915808Y-101385413D01*
X60960000Y-100429605D01*
X60004192Y-101385413D01*
X46682669Y-101385413D01*
X47711597Y-100356485D01*
X48196500Y-100356485D01*
X48378224Y-100338587D01*
X48552964Y-100285580D01*
X48714005Y-100199501D01*
X48855159Y-100083659D01*
X48971001Y-99942505D01*
X49018445Y-99853743D01*
X49192906Y-99944571D01*
X49411020Y-100015563D01*
X49657000Y-99895594D01*
X49657000Y-98552000D01*
X49637000Y-98552000D01*
X49637000Y-98298000D01*
X49657000Y-98298000D01*
X49657000Y-96954406D01*
X49411020Y-96834437D01*
X49192906Y-96905429D01*
X49018445Y-96996257D01*
X48971001Y-96907495D01*
X48855159Y-96766341D01*
X48714005Y-96650499D01*
X48552964Y-96564420D01*
X48378224Y-96511413D01*
X48196500Y-96493515D01*
X46291500Y-96493515D01*
X46109776Y-96511413D01*
X45935036Y-96564420D01*
X45846154Y-96611929D01*
X46286122Y-96171961D01*
X46307495Y-96189501D01*
X46468536Y-96275580D01*
X46643276Y-96328587D01*
X46825000Y-96346485D01*
X48425000Y-96346485D01*
X48606724Y-96328587D01*
X48781464Y-96275580D01*
X48942505Y-96189501D01*
X49083659Y-96073659D01*
X49199501Y-95932505D01*
X49285580Y-95771464D01*
X49338587Y-95596724D01*
X49356485Y-95415000D01*
X49356485Y-93815000D01*
X49338587Y-93633276D01*
X49285580Y-93458536D01*
X49199501Y-93297495D01*
X49083659Y-93156341D01*
X48942505Y-93040499D01*
X48781464Y-92954420D01*
X48606724Y-92901413D01*
X48425000Y-92883515D01*
X46825000Y-92883515D01*
X46643276Y-92901413D01*
X46468536Y-92954420D01*
X46307495Y-93040499D01*
X46166341Y-93156341D01*
X46140359Y-93188000D01*
X45895088Y-93188000D01*
X45825000Y-93181097D01*
X45754912Y-93188000D01*
X45754902Y-93188000D01*
X45545259Y-93208648D01*
X45276269Y-93290245D01*
X45028366Y-93422752D01*
X45028364Y-93422753D01*
X45028365Y-93422753D01*
X44865525Y-93556392D01*
X44865524Y-93556393D01*
X44811077Y-93601077D01*
X44766395Y-93655522D01*
X39045523Y-99376395D01*
X38991077Y-99421078D01*
X38946395Y-99475523D01*
X38946392Y-99475526D01*
X38914670Y-99514180D01*
X38812752Y-99638367D01*
X38680245Y-99886270D01*
X38598648Y-100155260D01*
X38578000Y-100364903D01*
X38578000Y-100364912D01*
X38571097Y-100435000D01*
X38578000Y-100505088D01*
X38578000Y-101294325D01*
X38496341Y-101361341D01*
X38380499Y-101502495D01*
X38294420Y-101663536D01*
X38241413Y-101838276D01*
X38223515Y-102020000D01*
X26352000Y-102020000D01*
X26352000Y-99270000D01*
X27421928Y-99270000D01*
X27434188Y-99394482D01*
X27470498Y-99514180D01*
X27529463Y-99624494D01*
X27608815Y-99721185D01*
X27705506Y-99800537D01*
X27815820Y-99859502D01*
X27935518Y-99895812D01*
X28060000Y-99908072D01*
X29274250Y-99905000D01*
X29433000Y-99746250D01*
X29433000Y-97647000D01*
X29687000Y-97647000D01*
X29687000Y-99746250D01*
X29845750Y-99905000D01*
X31060000Y-99908072D01*
X31184482Y-99895812D01*
X31304180Y-99859502D01*
X31414494Y-99800537D01*
X31511185Y-99721185D01*
X31590537Y-99624494D01*
X31649502Y-99514180D01*
X31685812Y-99394482D01*
X31698072Y-99270000D01*
X31695000Y-97805750D01*
X31536250Y-97647000D01*
X29687000Y-97647000D01*
X29433000Y-97647000D01*
X27583750Y-97647000D01*
X27425000Y-97805750D01*
X27421928Y-99270000D01*
X26352000Y-99270000D01*
X26352000Y-95770000D01*
X27421928Y-95770000D01*
X27425000Y-97234250D01*
X27583750Y-97393000D01*
X29433000Y-97393000D01*
X29433000Y-95293750D01*
X29687000Y-95293750D01*
X29687000Y-97393000D01*
X31536250Y-97393000D01*
X31695000Y-97234250D01*
X31698072Y-95770000D01*
X31685812Y-95645518D01*
X31649502Y-95525820D01*
X31633799Y-95496442D01*
X31685000Y-95501485D01*
X32922741Y-95501485D01*
X32896413Y-95588276D01*
X32878515Y-95770000D01*
X32878515Y-99270000D01*
X32896413Y-99451724D01*
X32949420Y-99626464D01*
X33035499Y-99787505D01*
X33151341Y-99928659D01*
X33292495Y-100044501D01*
X33453536Y-100130580D01*
X33628276Y-100183587D01*
X33810000Y-100201485D01*
X37310000Y-100201485D01*
X37491724Y-100183587D01*
X37666464Y-100130580D01*
X37827505Y-100044501D01*
X37968659Y-99928659D01*
X38084501Y-99787505D01*
X38170580Y-99626464D01*
X38223587Y-99451724D01*
X38241485Y-99270000D01*
X38241485Y-98396597D01*
X40318614Y-96319468D01*
X40343551Y-96317012D01*
X40669092Y-96218260D01*
X40969112Y-96057896D01*
X41232082Y-95842082D01*
X41447896Y-95579112D01*
X41608260Y-95279092D01*
X41707012Y-94953551D01*
X41740356Y-94615000D01*
X41707012Y-94276449D01*
X41608260Y-93950908D01*
X41447896Y-93650888D01*
X41232082Y-93387918D01*
X40969112Y-93172104D01*
X40669092Y-93011740D01*
X40343551Y-92912988D01*
X40089841Y-92888000D01*
X39920159Y-92888000D01*
X39666449Y-92912988D01*
X39340908Y-93011740D01*
X39040888Y-93172104D01*
X38777918Y-93387918D01*
X38562104Y-93650888D01*
X38401740Y-93950908D01*
X38302988Y-94276449D01*
X38300532Y-94301386D01*
X37683430Y-94918488D01*
X37666464Y-94909420D01*
X37491724Y-94856413D01*
X37310000Y-94838515D01*
X34822236Y-94838515D01*
X34937037Y-94698629D01*
X35103975Y-94386312D01*
X35206774Y-94047428D01*
X35241485Y-93695000D01*
X35241485Y-91945000D01*
X35206774Y-91592572D01*
X35103975Y-91253688D01*
X35012581Y-91082702D01*
X37286903Y-91082702D01*
X37358486Y-91326671D01*
X37613996Y-91447571D01*
X37888184Y-91516300D01*
X38170512Y-91530217D01*
X38450130Y-91488787D01*
X38716292Y-91393603D01*
X38841514Y-91326671D01*
X38913097Y-91082702D01*
X38100000Y-90269605D01*
X37286903Y-91082702D01*
X35012581Y-91082702D01*
X34937037Y-90941371D01*
X34712378Y-90667622D01*
X34438629Y-90442963D01*
X34126312Y-90276025D01*
X33787428Y-90173226D01*
X33658341Y-90160512D01*
X36659783Y-90160512D01*
X36701213Y-90440130D01*
X36796397Y-90706292D01*
X36863329Y-90831514D01*
X37107298Y-90903097D01*
X37920395Y-90090000D01*
X38279605Y-90090000D01*
X39092702Y-90903097D01*
X39336671Y-90831514D01*
X39457571Y-90576004D01*
X39526300Y-90301816D01*
X39540217Y-90019488D01*
X39498787Y-89739870D01*
X39403603Y-89473708D01*
X39336671Y-89348486D01*
X39092702Y-89276903D01*
X38279605Y-90090000D01*
X37920395Y-90090000D01*
X37107298Y-89276903D01*
X36863329Y-89348486D01*
X36742429Y-89603996D01*
X36673700Y-89878184D01*
X36659783Y-90160512D01*
X33658341Y-90160512D01*
X33435000Y-90138515D01*
X31685000Y-90138515D01*
X31332572Y-90173226D01*
X30993688Y-90276025D01*
X30681371Y-90442963D01*
X30407622Y-90667622D01*
X30182963Y-90941371D01*
X30016025Y-91253688D01*
X29913226Y-91592572D01*
X29878515Y-91945000D01*
X29878515Y-93695000D01*
X29913226Y-94047428D01*
X30016025Y-94386312D01*
X30182963Y-94698629D01*
X30407622Y-94972378D01*
X30603443Y-95133083D01*
X29845750Y-95135000D01*
X29687000Y-95293750D01*
X29433000Y-95293750D01*
X29274250Y-95135000D01*
X28060000Y-95131928D01*
X27935518Y-95144188D01*
X27815820Y-95180498D01*
X27705506Y-95239463D01*
X27608815Y-95318815D01*
X27529463Y-95415506D01*
X27470498Y-95525820D01*
X27434188Y-95645518D01*
X27421928Y-95770000D01*
X26352000Y-95770000D01*
X26352000Y-89097298D01*
X37286903Y-89097298D01*
X38100000Y-89910395D01*
X38913097Y-89097298D01*
X38841514Y-88853329D01*
X38586004Y-88732429D01*
X38311816Y-88663700D01*
X38029488Y-88649783D01*
X37749870Y-88691213D01*
X37483708Y-88786397D01*
X37358486Y-88853329D01*
X37286903Y-89097298D01*
X26352000Y-89097298D01*
X26352000Y-88011000D01*
X40534365Y-88011000D01*
X40585246Y-88178731D01*
X40585246Y-88178731D01*
G37*
X40585246Y-88178731D02*
X40717753Y-88426634D01*
X40851392Y-88589474D01*
X40851396Y-88589478D01*
X40896078Y-88643923D01*
X40950523Y-88688605D01*
X41483042Y-89221124D01*
X41519368Y-89403747D01*
X41649553Y-89718041D01*
X41838552Y-90000898D01*
X42079102Y-90241448D01*
X42361959Y-90430447D01*
X42676253Y-90560632D01*
X43009905Y-90627000D01*
X43350095Y-90627000D01*
X43683747Y-90560632D01*
X43998041Y-90430447D01*
X44280898Y-90241448D01*
X44521448Y-90000898D01*
X44710447Y-89718041D01*
X44840632Y-89403747D01*
X44907000Y-89070095D01*
X44907000Y-88729905D01*
X44840632Y-88396253D01*
X44710447Y-88081959D01*
X44663034Y-88011000D01*
X45563000Y-88011000D01*
X45563000Y-88039912D01*
X45556097Y-88110000D01*
X45563000Y-88180088D01*
X45563000Y-88180097D01*
X45583648Y-88389740D01*
X45665245Y-88658730D01*
X45794207Y-88900000D01*
X45797753Y-88906634D01*
X45931392Y-89069474D01*
X45931395Y-89069477D01*
X45976077Y-89123922D01*
X46030523Y-89168605D01*
X49261395Y-92399478D01*
X49306077Y-92453923D01*
X49360522Y-92498605D01*
X49360525Y-92498608D01*
X49451962Y-92573648D01*
X49523366Y-92632248D01*
X49771269Y-92764755D01*
X50040259Y-92846352D01*
X50249902Y-92867000D01*
X50249911Y-92867000D01*
X50319999Y-92873903D01*
X50390087Y-92867000D01*
X71217000Y-92867000D01*
X71217000Y-92917703D01*
X71159330Y-92987975D01*
X70994323Y-93296681D01*
X70892712Y-93631647D01*
X70858402Y-93980000D01*
X70892712Y-94328353D01*
X70994323Y-94663319D01*
X71159330Y-94972025D01*
X71217000Y-95042296D01*
X71217000Y-95093000D01*
X69552860Y-95093000D01*
X69398041Y-94989553D01*
X69083747Y-94859368D01*
X68750095Y-94793000D01*
X68409905Y-94793000D01*
X68076253Y-94859368D01*
X67761959Y-94989553D01*
X67607140Y-95093000D01*
X62891485Y-95093000D01*
X62891485Y-94250000D01*
X62873587Y-94068276D01*
X62820580Y-93893536D01*
X62734501Y-93732495D01*
X62618659Y-93591341D01*
X62477505Y-93475499D01*
X62316464Y-93389420D01*
X62141724Y-93336413D01*
X61960000Y-93318515D01*
X59960000Y-93318515D01*
X59778276Y-93336413D01*
X59603536Y-93389420D01*
X59442495Y-93475499D01*
X59301341Y-93591341D01*
X59185499Y-93732495D01*
X59137123Y-93823000D01*
X53569088Y-93823000D01*
X53499000Y-93816097D01*
X53428912Y-93823000D01*
X53428902Y-93823000D01*
X53219259Y-93843648D01*
X52950269Y-93925245D01*
X52702366Y-94057752D01*
X52702364Y-94057753D01*
X52702365Y-94057753D01*
X52539525Y-94191392D01*
X52539522Y-94191395D01*
X52485077Y-94236077D01*
X52440395Y-94290522D01*
X51364523Y-95366395D01*
X51310078Y-95411077D01*
X51265396Y-95465522D01*
X51265392Y-95465526D01*
X51131753Y-95628366D01*
X50999246Y-95876269D01*
X50917649Y-96145259D01*
X50890097Y-96425000D01*
X50897001Y-96495097D01*
X50897001Y-97153630D01*
X50851029Y-97209646D01*
X50650923Y-97049031D01*
X50375094Y-96905429D01*
X50156980Y-96834437D01*
X49911000Y-96954406D01*
X49911000Y-98298000D01*
X49931000Y-98298000D01*
X49931000Y-98552000D01*
X49911000Y-98552000D01*
X49911000Y-99895594D01*
X50156980Y-100015563D01*
X50375094Y-99944571D01*
X50650923Y-99800969D01*
X50851029Y-99640354D01*
X50988562Y-99807938D01*
X51274753Y-100042809D01*
X51601267Y-100217333D01*
X51955555Y-100324805D01*
X52324000Y-100361094D01*
X52692446Y-100324805D01*
X52732697Y-100312595D01*
X59318282Y-100312595D01*
X59362039Y-100631675D01*
X59467205Y-100936088D01*
X59560186Y-101110044D01*
X59824587Y-101205808D01*
X60780395Y-100250000D01*
X61139605Y-100250000D01*
X62095413Y-101205808D01*
X62359814Y-101110044D01*
X62500704Y-100820429D01*
X62577558Y-100527298D01*
X67766903Y-100527298D01*
X68580000Y-101340395D01*
X69393097Y-100527298D01*
X69321514Y-100283329D01*
X69066004Y-100162429D01*
X68791816Y-100093700D01*
X68509488Y-100079783D01*
X68229870Y-100121213D01*
X67963708Y-100216397D01*
X67838486Y-100283329D01*
X67766903Y-100527298D01*
X62577558Y-100527298D01*
X62582384Y-100508892D01*
X62601718Y-100187405D01*
X62563677Y-99910000D01*
X71155928Y-99910000D01*
X71168188Y-100034482D01*
X71204498Y-100154180D01*
X71263463Y-100264494D01*
X71342815Y-100361185D01*
X71439506Y-100440537D01*
X71549820Y-100499502D01*
X71669518Y-100535812D01*
X71794000Y-100548072D01*
X72358250Y-100545000D01*
X72517000Y-100386250D01*
X72517000Y-99187000D01*
X72771000Y-99187000D01*
X72771000Y-100386250D01*
X72929750Y-100545000D01*
X73494000Y-100548072D01*
X73618482Y-100535812D01*
X73738180Y-100499502D01*
X73848494Y-100440537D01*
X73945185Y-100361185D01*
X74024537Y-100264494D01*
X74083502Y-100154180D01*
X74119812Y-100034482D01*
X74132072Y-99910000D01*
X74129000Y-99345750D01*
X73970250Y-99187000D01*
X72771000Y-99187000D01*
X72517000Y-99187000D01*
X71317750Y-99187000D01*
X71159000Y-99345750D01*
X71155928Y-99910000D01*
X62563677Y-99910000D01*
X62557961Y-99868325D01*
X62452795Y-99563912D01*
X62359814Y-99389956D01*
X62095413Y-99294192D01*
X61139605Y-100250000D01*
X60780395Y-100250000D01*
X59824587Y-99294192D01*
X59560186Y-99389956D01*
X59419296Y-99679571D01*
X59337616Y-99991108D01*
X59318282Y-100312595D01*
X52732697Y-100312595D01*
X53046734Y-100217333D01*
X53373247Y-100042809D01*
X53659438Y-99807938D01*
X53894309Y-99521747D01*
X54068833Y-99195233D01*
X54093296Y-99114587D01*
X60004192Y-99114587D01*
X60960000Y-100070395D01*
X61915808Y-99114587D01*
X61820044Y-98850186D01*
X61530429Y-98709296D01*
X61218892Y-98627616D01*
X60897405Y-98608282D01*
X60578325Y-98652039D01*
X60273912Y-98757205D01*
X60099956Y-98850186D01*
X60004192Y-99114587D01*
X54093296Y-99114587D01*
X54176305Y-98840945D01*
X54203500Y-98564831D01*
X54203500Y-98285168D01*
X54176305Y-98009054D01*
X54068833Y-97654766D01*
X53894309Y-97328253D01*
X53751000Y-97153631D01*
X53751000Y-97016082D01*
X54090083Y-96677000D01*
X59137123Y-96677000D01*
X59185499Y-96767505D01*
X59301341Y-96908659D01*
X59442495Y-97024501D01*
X59603536Y-97110580D01*
X59778276Y-97163587D01*
X59960000Y-97181485D01*
X60873403Y-97181485D01*
X61171390Y-97479472D01*
X61216077Y-97533923D01*
X61433366Y-97712248D01*
X61681269Y-97844755D01*
X61950259Y-97926352D01*
X62159902Y-97947000D01*
X62159911Y-97947000D01*
X62229999Y-97953903D01*
X62300087Y-97947000D01*
X67607140Y-97947000D01*
X67761959Y-98050447D01*
X68076253Y-98180632D01*
X68409905Y-98247000D01*
X68750095Y-98247000D01*
X69083747Y-98180632D01*
X69398041Y-98050447D01*
X69552860Y-97947000D01*
X71214558Y-97947000D01*
X71204498Y-97965820D01*
X71168188Y-98085518D01*
X71155928Y-98210000D01*
X71159000Y-98774250D01*
X71317750Y-98933000D01*
X72517000Y-98933000D01*
X72517000Y-98913000D01*
X72771000Y-98913000D01*
X72771000Y-98933000D01*
X73970250Y-98933000D01*
X74129000Y-98774250D01*
X74132072Y-98210000D01*
X74119812Y-98085518D01*
X74083502Y-97965820D01*
X74024537Y-97855506D01*
X73945185Y-97758815D01*
X73933801Y-97749473D01*
X74128670Y-97512025D01*
X74293677Y-97203319D01*
X74395288Y-96868353D01*
X74429598Y-96520000D01*
X74395288Y-96171647D01*
X74293677Y-95836681D01*
X74128670Y-95527975D01*
X74071000Y-95457704D01*
X74071000Y-95042296D01*
X74128670Y-94972025D01*
X74293677Y-94663319D01*
X74395288Y-94328353D01*
X74429598Y-93980000D01*
X74395288Y-93631647D01*
X74293677Y-93296681D01*
X74128670Y-92987975D01*
X74071000Y-92917704D01*
X74071000Y-92502296D01*
X74128670Y-92432025D01*
X74293677Y-92123319D01*
X74395288Y-91788353D01*
X74429598Y-91440000D01*
X74395288Y-91091647D01*
X74293677Y-90756681D01*
X74128670Y-90447975D01*
X73906608Y-90177392D01*
X73897601Y-90170000D01*
X73906608Y-90162608D01*
X74128670Y-89892025D01*
X74293677Y-89583319D01*
X74395288Y-89248353D01*
X74429598Y-88900000D01*
X74395288Y-88551647D01*
X74293677Y-88216681D01*
X74183738Y-88011000D01*
X75375071Y-88011000D01*
X75399327Y-109538000D01*
X58592800Y-109538000D01*
X58634274Y-109520821D01*
X59154619Y-109173137D01*
X59597137Y-108730619D01*
X59944821Y-108210274D01*
X60184310Y-107632097D01*
X60306400Y-107018307D01*
X60306400Y-106392493D01*
X60184310Y-105778703D01*
X59944821Y-105200526D01*
X59597137Y-104680181D01*
X59154619Y-104237663D01*
X58634274Y-103889979D01*
X58056097Y-103650490D01*
X57442307Y-103528400D01*
X56816493Y-103528400D01*
X56202703Y-103650490D01*
X55624526Y-103889979D01*
X55104181Y-104237663D01*
X54661663Y-104680181D01*
X54313979Y-105200526D01*
X54074490Y-105778703D01*
X53952400Y-106392493D01*
X53952400Y-107018307D01*
X54074490Y-107632097D01*
X54313979Y-108210274D01*
X54661663Y-108730619D01*
X55104181Y-109173137D01*
X55624526Y-109520821D01*
X55666000Y-109538000D01*
X32110679Y-109538000D01*
X32213474Y-109495421D01*
X32733819Y-109147737D01*
X33176337Y-108705219D01*
X33524021Y-108184874D01*
X33763510Y-107606697D01*
X33885600Y-106992907D01*
X33885600Y-106367093D01*
X33763510Y-105753303D01*
X33524021Y-105175126D01*
X33176337Y-104654781D01*
X32733819Y-104212263D01*
X32213474Y-103864579D01*
X31635297Y-103625090D01*
X31021507Y-103503000D01*
X30395693Y-103503000D01*
X29781903Y-103625090D01*
X29203726Y-103864579D01*
X28683381Y-104212263D01*
X28240863Y-104654781D01*
X27893179Y-105175126D01*
X27653690Y-105753303D01*
X27531600Y-106367093D01*
X27531600Y-106992907D01*
X27653690Y-107606697D01*
X27893179Y-108184874D01*
X28240863Y-108705219D01*
X28683381Y-109147737D01*
X29203726Y-109495421D01*
X29306521Y-109538000D01*
X26352000Y-109538000D01*
X26352000Y-102020000D01*
X38223515Y-102020000D01*
X38223515Y-103720000D01*
X38241413Y-103901724D01*
X38294420Y-104076464D01*
X38380499Y-104237505D01*
X38496341Y-104378659D01*
X38637495Y-104494501D01*
X38798536Y-104580580D01*
X38973276Y-104633587D01*
X39155000Y-104651485D01*
X40855000Y-104651485D01*
X41036724Y-104633587D01*
X41211464Y-104580580D01*
X41372505Y-104494501D01*
X41513659Y-104378659D01*
X41541246Y-104345044D01*
X41552975Y-104354670D01*
X41861681Y-104519677D01*
X42196647Y-104621288D01*
X42457704Y-104647000D01*
X42632296Y-104647000D01*
X42893353Y-104621288D01*
X43228319Y-104519677D01*
X43537025Y-104354670D01*
X43737767Y-104189925D01*
X43976634Y-104062248D01*
X44193923Y-103883923D01*
X44238610Y-103829472D01*
X45555380Y-102512702D01*
X67766903Y-102512702D01*
X67838486Y-102756671D01*
X68093996Y-102877571D01*
X68368184Y-102946300D01*
X68650512Y-102960217D01*
X68930130Y-102918787D01*
X69196292Y-102823603D01*
X69321514Y-102756671D01*
X69393097Y-102512702D01*
X68580000Y-101699605D01*
X67766903Y-102512702D01*
X45555380Y-102512702D01*
X46682669Y-101385413D01*
X60004192Y-101385413D01*
X60099956Y-101649814D01*
X60389571Y-101790704D01*
X60701108Y-101872384D01*
X61022595Y-101891718D01*
X61341675Y-101847961D01*
X61646088Y-101742795D01*
X61820044Y-101649814D01*
X61841522Y-101590512D01*
X67139783Y-101590512D01*
X67181213Y-101870130D01*
X67276397Y-102136292D01*
X67343329Y-102261514D01*
X67587298Y-102333097D01*
X68400395Y-101520000D01*
X68759605Y-101520000D01*
X69572702Y-102333097D01*
X69816671Y-102261514D01*
X69937571Y-102006004D01*
X70006300Y-101731816D01*
X70020217Y-101449488D01*
X69978787Y-101169870D01*
X69883603Y-100903708D01*
X69816671Y-100778486D01*
X69572702Y-100706903D01*
X68759605Y-101520000D01*
X68400395Y-101520000D01*
X67587298Y-100706903D01*
X67343329Y-100778486D01*
X67222429Y-101033996D01*
X67153700Y-101308184D01*
X67139783Y-101590512D01*
X61841522Y-101590512D01*
X61915808Y-101385413D01*
X60960000Y-100429605D01*
X60004192Y-101385413D01*
X46682669Y-101385413D01*
X47711597Y-100356485D01*
X48196500Y-100356485D01*
X48378224Y-100338587D01*
X48552964Y-100285580D01*
X48714005Y-100199501D01*
X48855159Y-100083659D01*
X48971001Y-99942505D01*
X49018445Y-99853743D01*
X49192906Y-99944571D01*
X49411020Y-100015563D01*
X49657000Y-99895594D01*
X49657000Y-98552000D01*
X49637000Y-98552000D01*
X49637000Y-98298000D01*
X49657000Y-98298000D01*
X49657000Y-96954406D01*
X49411020Y-96834437D01*
X49192906Y-96905429D01*
X49018445Y-96996257D01*
X48971001Y-96907495D01*
X48855159Y-96766341D01*
X48714005Y-96650499D01*
X48552964Y-96564420D01*
X48378224Y-96511413D01*
X48196500Y-96493515D01*
X46291500Y-96493515D01*
X46109776Y-96511413D01*
X45935036Y-96564420D01*
X45846154Y-96611929D01*
X46286122Y-96171961D01*
X46307495Y-96189501D01*
X46468536Y-96275580D01*
X46643276Y-96328587D01*
X46825000Y-96346485D01*
X48425000Y-96346485D01*
X48606724Y-96328587D01*
X48781464Y-96275580D01*
X48942505Y-96189501D01*
X49083659Y-96073659D01*
X49199501Y-95932505D01*
X49285580Y-95771464D01*
X49338587Y-95596724D01*
X49356485Y-95415000D01*
X49356485Y-93815000D01*
X49338587Y-93633276D01*
X49285580Y-93458536D01*
X49199501Y-93297495D01*
X49083659Y-93156341D01*
X48942505Y-93040499D01*
X48781464Y-92954420D01*
X48606724Y-92901413D01*
X48425000Y-92883515D01*
X46825000Y-92883515D01*
X46643276Y-92901413D01*
X46468536Y-92954420D01*
X46307495Y-93040499D01*
X46166341Y-93156341D01*
X46140359Y-93188000D01*
X45895088Y-93188000D01*
X45825000Y-93181097D01*
X45754912Y-93188000D01*
X45754902Y-93188000D01*
X45545259Y-93208648D01*
X45276269Y-93290245D01*
X45028366Y-93422752D01*
X45028364Y-93422753D01*
X45028365Y-93422753D01*
X44865525Y-93556392D01*
X44865524Y-93556393D01*
X44811077Y-93601077D01*
X44766395Y-93655522D01*
X39045523Y-99376395D01*
X38991077Y-99421078D01*
X38946395Y-99475523D01*
X38946392Y-99475526D01*
X38914670Y-99514180D01*
X38812752Y-99638367D01*
X38680245Y-99886270D01*
X38598648Y-100155260D01*
X38578000Y-100364903D01*
X38578000Y-100364912D01*
X38571097Y-100435000D01*
X38578000Y-100505088D01*
X38578000Y-101294325D01*
X38496341Y-101361341D01*
X38380499Y-101502495D01*
X38294420Y-101663536D01*
X38241413Y-101838276D01*
X38223515Y-102020000D01*
X26352000Y-102020000D01*
X26352000Y-99270000D01*
X27421928Y-99270000D01*
X27434188Y-99394482D01*
X27470498Y-99514180D01*
X27529463Y-99624494D01*
X27608815Y-99721185D01*
X27705506Y-99800537D01*
X27815820Y-99859502D01*
X27935518Y-99895812D01*
X28060000Y-99908072D01*
X29274250Y-99905000D01*
X29433000Y-99746250D01*
X29433000Y-97647000D01*
X29687000Y-97647000D01*
X29687000Y-99746250D01*
X29845750Y-99905000D01*
X31060000Y-99908072D01*
X31184482Y-99895812D01*
X31304180Y-99859502D01*
X31414494Y-99800537D01*
X31511185Y-99721185D01*
X31590537Y-99624494D01*
X31649502Y-99514180D01*
X31685812Y-99394482D01*
X31698072Y-99270000D01*
X31695000Y-97805750D01*
X31536250Y-97647000D01*
X29687000Y-97647000D01*
X29433000Y-97647000D01*
X27583750Y-97647000D01*
X27425000Y-97805750D01*
X27421928Y-99270000D01*
X26352000Y-99270000D01*
X26352000Y-95770000D01*
X27421928Y-95770000D01*
X27425000Y-97234250D01*
X27583750Y-97393000D01*
X29433000Y-97393000D01*
X29433000Y-95293750D01*
X29687000Y-95293750D01*
X29687000Y-97393000D01*
X31536250Y-97393000D01*
X31695000Y-97234250D01*
X31698072Y-95770000D01*
X31685812Y-95645518D01*
X31649502Y-95525820D01*
X31633799Y-95496442D01*
X31685000Y-95501485D01*
X32922741Y-95501485D01*
X32896413Y-95588276D01*
X32878515Y-95770000D01*
X32878515Y-99270000D01*
X32896413Y-99451724D01*
X32949420Y-99626464D01*
X33035499Y-99787505D01*
X33151341Y-99928659D01*
X33292495Y-100044501D01*
X33453536Y-100130580D01*
X33628276Y-100183587D01*
X33810000Y-100201485D01*
X37310000Y-100201485D01*
X37491724Y-100183587D01*
X37666464Y-100130580D01*
X37827505Y-100044501D01*
X37968659Y-99928659D01*
X38084501Y-99787505D01*
X38170580Y-99626464D01*
X38223587Y-99451724D01*
X38241485Y-99270000D01*
X38241485Y-98396597D01*
X40318614Y-96319468D01*
X40343551Y-96317012D01*
X40669092Y-96218260D01*
X40969112Y-96057896D01*
X41232082Y-95842082D01*
X41447896Y-95579112D01*
X41608260Y-95279092D01*
X41707012Y-94953551D01*
X41740356Y-94615000D01*
X41707012Y-94276449D01*
X41608260Y-93950908D01*
X41447896Y-93650888D01*
X41232082Y-93387918D01*
X40969112Y-93172104D01*
X40669092Y-93011740D01*
X40343551Y-92912988D01*
X40089841Y-92888000D01*
X39920159Y-92888000D01*
X39666449Y-92912988D01*
X39340908Y-93011740D01*
X39040888Y-93172104D01*
X38777918Y-93387918D01*
X38562104Y-93650888D01*
X38401740Y-93950908D01*
X38302988Y-94276449D01*
X38300532Y-94301386D01*
X37683430Y-94918488D01*
X37666464Y-94909420D01*
X37491724Y-94856413D01*
X37310000Y-94838515D01*
X34822236Y-94838515D01*
X34937037Y-94698629D01*
X35103975Y-94386312D01*
X35206774Y-94047428D01*
X35241485Y-93695000D01*
X35241485Y-91945000D01*
X35206774Y-91592572D01*
X35103975Y-91253688D01*
X35012581Y-91082702D01*
X37286903Y-91082702D01*
X37358486Y-91326671D01*
X37613996Y-91447571D01*
X37888184Y-91516300D01*
X38170512Y-91530217D01*
X38450130Y-91488787D01*
X38716292Y-91393603D01*
X38841514Y-91326671D01*
X38913097Y-91082702D01*
X38100000Y-90269605D01*
X37286903Y-91082702D01*
X35012581Y-91082702D01*
X34937037Y-90941371D01*
X34712378Y-90667622D01*
X34438629Y-90442963D01*
X34126312Y-90276025D01*
X33787428Y-90173226D01*
X33658341Y-90160512D01*
X36659783Y-90160512D01*
X36701213Y-90440130D01*
X36796397Y-90706292D01*
X36863329Y-90831514D01*
X37107298Y-90903097D01*
X37920395Y-90090000D01*
X38279605Y-90090000D01*
X39092702Y-90903097D01*
X39336671Y-90831514D01*
X39457571Y-90576004D01*
X39526300Y-90301816D01*
X39540217Y-90019488D01*
X39498787Y-89739870D01*
X39403603Y-89473708D01*
X39336671Y-89348486D01*
X39092702Y-89276903D01*
X38279605Y-90090000D01*
X37920395Y-90090000D01*
X37107298Y-89276903D01*
X36863329Y-89348486D01*
X36742429Y-89603996D01*
X36673700Y-89878184D01*
X36659783Y-90160512D01*
X33658341Y-90160512D01*
X33435000Y-90138515D01*
X31685000Y-90138515D01*
X31332572Y-90173226D01*
X30993688Y-90276025D01*
X30681371Y-90442963D01*
X30407622Y-90667622D01*
X30182963Y-90941371D01*
X30016025Y-91253688D01*
X29913226Y-91592572D01*
X29878515Y-91945000D01*
X29878515Y-93695000D01*
X29913226Y-94047428D01*
X30016025Y-94386312D01*
X30182963Y-94698629D01*
X30407622Y-94972378D01*
X30603443Y-95133083D01*
X29845750Y-95135000D01*
X29687000Y-95293750D01*
X29433000Y-95293750D01*
X29274250Y-95135000D01*
X28060000Y-95131928D01*
X27935518Y-95144188D01*
X27815820Y-95180498D01*
X27705506Y-95239463D01*
X27608815Y-95318815D01*
X27529463Y-95415506D01*
X27470498Y-95525820D01*
X27434188Y-95645518D01*
X27421928Y-95770000D01*
X26352000Y-95770000D01*
X26352000Y-89097298D01*
X37286903Y-89097298D01*
X38100000Y-89910395D01*
X38913097Y-89097298D01*
X38841514Y-88853329D01*
X38586004Y-88732429D01*
X38311816Y-88663700D01*
X38029488Y-88649783D01*
X37749870Y-88691213D01*
X37483708Y-88786397D01*
X37358486Y-88853329D01*
X37286903Y-89097298D01*
X26352000Y-89097298D01*
X26352000Y-88011000D01*
X40534365Y-88011000D01*
X40585246Y-88178731D01*
M02*
